<?xml version="1.0" encoding="utf-8"?><svg xmlns="http://www.w3.org/2000/svg" xmlns:xlink="http://www.w3.org/1999/xlink"><symbol viewBox="0 0 58 58" id="3d" xmlns="http://www.w3.org/2000/svg"><g clip-path="url(#aaa)"><path d="M15.635 34.918l2 1.108a.85.85 0 0 1-.824 1.487l-2-1.108a.85.85 0 0 1 .824-1.487zM15.635 32.508l2 1.107a.85.85 0 1 1-.823 1.487l-2-1.108a.85.85 0 0 1 .823-1.486z"/><path d="M1.536 42.686a.86.86 0 0 1-.127-.445v-7.474a.85.85 0 0 1 1.7 0v6.165l8.17-3.644V21.501l-8.17-4.527v14.093a.85.85 0 1 1-1.7 0V15.532c0-.303.173-.596.438-.743L28.557-.008a.86.86 0 0 1 .823 0l26.71 14.797a.86.86 0 0 1 .437.753v26.7a.862.862 0 0 1-.438.742l-11.768 6.52a.85.85 0 0 1-.823-1.486l10.278-5.695-7.926-3.535-16.032 8.882v7.926l10.31-5.711a.85.85 0 1 1 .824 1.486l-11.572 6.41a.86.86 0 0 1-.823 0L16.42 51.059a.85.85 0 1 1 .823-1.486l10.875 6.024V47.67l-16.032-8.882-7.926 3.535 9.716 5.383a.85.85 0 1 1-.824 1.487L1.848 42.984a.862.862 0 0 1-.31-.298zM28.97 12.642L13.882 21l15.087 8.358L44.055 21l-15.086-8.358zm-16.84 7.387l15.99-8.86V2.178L4.013 15.532l8.116 4.497zm17.69-8.86l15.99 8.86 8.116-4.497L29.818 2.177v8.993zm25.01 5.805L46.66 21.5v15.788l8.17 3.644V16.974zm-9.87 5.468l-6.17 3.418-8.973 4.971v14.897l15.14-8.388V22.442zM28.12 30.83l-15.14-8.388V37.34l15.14 8.388V30.83z"/></g><defs><linearGradient id="aab" x1="16.223" y1="34.812" x2="16.223" y2="37.619" gradientUnits="userSpaceOnUse"><stop stop-color="#9F2FFF"/><stop offset="1" stop-color="#25A6EF"/></linearGradient><linearGradient id="aac" x1="16.223" y1="32.401" x2="16.223" y2="35.208" gradientUnits="userSpaceOnUse"><stop stop-color="#9F2FFF"/><stop offset="1" stop-color="#25A6EF"/></linearGradient><linearGradient id="aad" x1="28.968" y1="-.113" x2="28.968" y2="57.887" gradientUnits="userSpaceOnUse"><stop stop-color="#9F2FFF"/><stop offset="1" stop-color="#25A6EF"/></linearGradient><clipPath id="aaa"><path transform="matrix(-1 0 0 1 58 0)" d="M0 0h58v58H0z"/></clipPath></defs></symbol><symbol viewBox="0 0 511.999 511.999" id="analysis" xmlns="http://www.w3.org/2000/svg"><path d="M289.527 95.794c-24.497-24.496-57.065-37.988-91.709-37.988-34.643 0-67.213 13.491-91.71 37.988-50.567 50.568-50.567 132.849 0 183.418 24.497 24.496 57.066 37.988 91.71 37.988 34.643 0 67.212-13.491 91.709-37.988 24.496-24.496 37.987-57.066 37.987-91.709s-13.491-67.212-37.987-91.709zm-172.974 10.445c21.706-21.706 50.567-33.661 81.264-33.661s59.557 11.955 81.263 33.661c17.132 17.131 28.183 38.721 32.082 62.151l-40.259 39.369a26.144 26.144 0 0 0-12.89-3.385c-9.113 0-17.157 4.657-21.882 11.714l-59.173-18.567c.003-.171.013-.342.013-.514 0-14.513-11.807-26.321-26.321-26.321-14.513 0-26.321 11.808-26.321 26.321 0 4.744 1.268 9.196 3.474 13.045l-31.047 32.183c-23.558-43.559-16.965-99.234 19.797-135.996zm153.011 124.455c0 6.368-5.182 11.55-11.55 11.55s-11.55-5.182-11.55-11.55 5.182-11.55 11.55-11.55 11.55 5.181 11.55 11.55zm-107.363-33.689c0 6.368-5.182 11.55-11.55 11.55-6.369 0-11.551-5.182-11.551-11.55s5.182-11.55 11.551-11.55c6.368.001 11.55 5.182 11.55 11.55zm116.88 71.763c-21.706 21.706-50.566 33.661-81.263 33.661-30.697 0-59.558-11.954-81.264-33.661a115.302 115.302 0 0 1-11.686-13.667l33.565-34.793a26.148 26.148 0 0 0 12.218 3.018c9.113 0 17.157-4.657 21.882-11.714l59.173 18.567c-.003.171-.013.342-.013.514 0 14.513 11.807 26.321 26.321 26.321 14.513 0 26.321-11.808 26.321-26.321 0-4.472-1.125-8.685-3.1-12.377l31.508-30.811c-.001 30.697-11.956 59.557-33.662 81.263z"/><path d="M132.414 112.159l9.69 11.148c22.904-19.908 55.016-26.046 83.81-16.017l4.859-13.949c-33.778-11.766-71.467-4.555-98.359 18.818zm117.316-9.867l-7.684 12.615a84.809 84.809 0 0 1 11.151 8.113l9.633-11.199a99.782 99.782 0 0 0-13.1-9.529zm-34.243 168.325c-16.619 3.503-33.698 2.029-49.396-4.26l-5.493 13.711a99.738 99.738 0 0 0 37.146 7.179c6.935 0 13.897-.723 20.79-2.176l-3.047-14.454z"/><path d="M382.834 306.165l-10.724 10.724-26.606-28.439c31.49-46.031 39.071-103.617 22.735-155.212l21.109-20.643a26.152 26.152 0 0 0 12.468 3.146c14.513 0 26.321-11.808 26.321-26.321 0-4.298-1.042-8.355-2.877-11.943l45.316-44.313v22.904h14.771V8.227h-47.84v14.771h22.338l-44.718 43.728a26.153 26.153 0 0 0-13.31-3.628c-14.513 0-26.321 11.808-26.321 26.321 0 4.644 1.214 9.008 3.334 12.8l-16.178 15.82c-8.709-20.74-21.482-40.164-38.344-57.026-69.748-69.747-183.232-69.745-252.979 0C9.198 123.144 2.415 219.981 50.974 289.691l-12.436 12.891a26.148 26.148 0 0 0-12.218-3.018C11.807 299.563 0 311.371 0 325.884s11.807 26.321 26.321 26.321 26.321-11.808 26.321-26.321c0-4.745-1.268-9.196-3.475-13.045l10.865-11.263a180.31 180.31 0 0 0 11.296 12.416c34.874 34.873 80.682 52.309 126.49 52.309 35.164 0 70.324-10.288 100.542-30.838l26.669 28.507-11.09 11.09 129.164 128.713L512 434.878 382.834 306.165zM401.817 77.87c6.368 0 11.55 5.182 11.55 11.55s-5.182 11.55-11.55 11.55c-6.369 0-11.55-5.182-11.55-11.55s5.181-11.55 11.55-11.55zM26.321 337.433c-6.368 0-11.55-5.182-11.55-11.55s5.182-11.55 11.55-11.55c6.369 0 11.55 5.182 11.55 11.55-.001 6.369-5.182 11.55-11.55 11.55zm55.452-33.885c-63.987-63.987-63.987-168.101 0-232.09 31.993-31.994 74.018-47.989 116.044-47.989 42.026 0 84.052 15.997 116.045 47.989 63.987 63.987 63.987 168.102 0 232.09-63.985 63.986-168.104 63.986-232.089 0zm228.525 23.054a180.136 180.136 0 0 0 26.228-26.129l25.135 26.865-26.181 26.181-25.182-26.917zm132.788 156.3L334.848 375.041l48.006-48.006 108.238 107.86-48.006 48.007z"/><path d="M382.845 348.478l-21.136 21.135 10.446 10.445 10.69-10.691 40.766 40.766 10.444-10.444zm53.429 74.292l10.445-10.444 10.946 10.947-10.444 10.444zM80.028 373.868h14.771v16.093H80.028zm0 90.2h14.771v16.093H80.028zm121.652-59.162h14.771v16.092H201.68zm211.686-132.848h14.771v16.093h-14.771zm16.759-128.171h14.771v16.093h-14.771zm48.951 67.867h14.771v16.093h-14.771z"/></symbol><symbol viewBox="0 0 41 41" id="bell" xmlns="http://www.w3.org/2000/svg"><path d="M36.626 27.574h-.002c-1.208 0-1.89-.582-2.28-1.944-.4-1.393-.413-3.414-.427-5.553-.017-2.592-.036-5.529-.73-8.156-.082-.31-.42-.5-.754-.425-.334.077-.54.39-.457.7.659 2.496.677 5.36.694 7.888.015 2.215.028 4.307.468 5.843.191.668.466 1.217.82 1.647H7.966c.354-.43.629-.979.82-1.647.44-1.536.454-3.628.468-5.843.022-3.381.048-7.214 1.538-10.147 1.677-3.302 5.004-4.907 10.17-4.907 2.838 0 5.16.495 6.901 1.472 1.51.846 2.619 2.05 3.39 3.68.138.292.506.425.822.296.315-.128.458-.47.32-.763-.866-1.83-2.173-3.244-3.887-4.205-1.094-.614-2.378-1.056-3.842-1.326C24.52 2.406 22.915 1 20.962 1c-1.952 0-3.557 1.406-3.703 3.185-1.396.257-2.63.67-3.69 1.24-1.703.917-3.018 2.27-3.906 4.018-1.607 3.164-1.634 7.133-1.656 10.634-.014 2.14-.028 4.16-.427 5.553-.39 1.362-1.072 1.944-2.28 1.944h-.002c-2.017 0-3.657 1.524-3.657 3.397 0 1.872 1.64 3.396 3.657 3.396h3.948c.344 0 .624-.26.624-.58 0-.32-.28-.579-.624-.579H5.298c-1.329 0-2.41-1.004-2.41-2.237 0-1.234 1.08-2.238 2.41-2.238h31.328c1.329 0 2.41 1.004 2.41 2.238 0 1.233-1.082 2.237-2.41 2.237H11.74c-.344 0-.623.26-.623.58 0 .319.279.579.623.579h2.56C14.618 37.522 17.484 40 20.963 40s6.345-2.478 6.66-5.633h9.004c2.017 0 3.657-1.524 3.657-3.396 0-1.873-1.64-3.397-3.657-3.397zM20.962 2.158c1.195 0 2.194.793 2.42 1.841a22.223 22.223 0 0 0-2.42-.128c-.848 0-1.654.044-2.42.128.227-1.049 1.226-1.84 2.42-1.84zm0 36.684c-2.79 0-5.096-1.96-5.406-4.475h10.812c-.31 2.514-2.616 4.475-5.406 4.475zM30.978 4.635c.01.006 1.121.594 2.214 1.962 1.464 1.83 2.206 4.118 2.206 6.799 0 .32.28.58.624.58s.623-.26.623-.58c0-3.69-1.357-6.14-2.495-7.544-1.251-1.544-2.514-2.203-2.567-2.23a.65.65 0 0 0-.846.226c-.167.278-.059.63.24.787zM35.684 4.848c.1.06 2.458 1.53 2.458 5.228 0 .32.28.579.624.579.345 0 .624-.26.624-.58 0-4.36-2.91-6.13-3.034-6.203a.651.651 0 0 0-.857.176.556.556 0 0 0 .185.8zM5.902 13.975c.345 0 .624-.26.624-.58 0-2.68.742-4.967 2.206-6.798 1.086-1.359 2.19-1.949 2.214-1.962.3-.155.409-.507.243-.786a.65.65 0 0 0-.848-.227c-.053.027-1.316.686-2.567 2.23-1.138 1.404-2.495 3.854-2.495 7.544 0 .32.279.58.623.58zM3.158 10.654c.344 0 .623-.259.623-.579 0-3.694 2.355-5.164 2.459-5.227a.555.555 0 0 0 .188-.798.653.653 0 0 0-.86-.178c-.125.073-3.034 1.843-3.034 6.203 0 .32.28.58.624.58z"/><defs><linearGradient id="aca" x1="20.962" y1="1" x2="20.962" y2="40" gradientUnits="userSpaceOnUse"><stop stop-color="#9F2FFF"/><stop offset="1" stop-color="#25A6EF"/></linearGradient><linearGradient id="acb" x1="33.652" y1="3.55" x2="33.652" y2="13.975" gradientUnits="userSpaceOnUse"><stop stop-color="#9F2FFF"/><stop offset="1" stop-color="#25A6EF"/></linearGradient><linearGradient id="acc" x1="37.395" y1="3.782" x2="37.395" y2="10.655" gradientUnits="userSpaceOnUse"><stop stop-color="#9F2FFF"/><stop offset="1" stop-color="#25A6EF"/></linearGradient><linearGradient id="acd" x1="8.273" y1="3.55" x2="8.273" y2="13.975" gradientUnits="userSpaceOnUse"><stop stop-color="#9F2FFF"/><stop offset="1" stop-color="#25A6EF"/></linearGradient><linearGradient id="ace" x1="4.53" y1="3.782" x2="4.53" y2="10.654" gradientUnits="userSpaceOnUse"><stop stop-color="#9F2FFF"/><stop offset="1" stop-color="#25A6EF"/></linearGradient></defs></symbol><symbol viewBox="0 0 176 161" id="bg-pattern" xmlns="http://www.w3.org/2000/svg"><rect width="68.718" height="10.723" rx="5.362" transform="matrix(-.74732 -.66446 .67378 -.73893 53 56)"/><path d="M137.702 104.661c.905-2.75 4.795-2.75 5.7 0l4.229 12.852a3 3 0 0 0 2.85 2.063h13.604c2.916 0 4.118 3.738 1.749 5.437l-10.941 7.85a3 3 0 0 0-1.101 3.375l4.195 12.747c.907 2.758-2.24 5.068-4.599 3.376l-11.087-7.955a3 3 0 0 0-3.498 0l-11.087 7.955c-2.358 1.692-5.506-.618-4.598-3.376l4.194-12.747a2.999 2.999 0 0 0-1.101-3.375l-10.941-7.85c-2.369-1.699-1.166-5.437 1.749-5.437h13.605a3 3 0 0 0 2.849-2.063l4.229-12.852z"/><rect width="43.993" height="43.993" rx="9" transform="matrix(.71155 -.70264 .71155 .70264 0 130)"/><ellipse cx="140.515" cy="28.258" rx="20.515" ry="20.258"/></symbol><symbol viewBox="0 0 813 697" id="bg-union" xmlns="http://www.w3.org/2000/svg"><path d="M654.588 139.836c31.948-13.225 60.847-33.609 84.737-59.769L812.202.264l.242-.264H813v697H0v-.849.123l.252-.123 153.401-75.136c43.394-21.255 76.186-61.225 90.119-109.846l1.819-6.348c18.535-64.678 72.512-111.471 135.682-118.769 62.511-7.222 115.702-54.023 133.158-118.295 13.48-49.636 47.938-89.747 93.191-108.48l46.966-19.441z"/><defs><linearGradient id="aea" x1="406.5" x2="406.5" y2="697" gradientUnits="userSpaceOnUse"><stop stop-color="#A852F1"/><stop offset="1" stop-color="#A63232"/></linearGradient></defs></symbol><symbol viewBox="0 0 230 60" id="btn-bg" xmlns="http://www.w3.org/2000/svg"><rect width="230" height="60" rx="6"/><defs><radialGradient id="afa" cx="0" cy="0" r="1" gradientUnits="userSpaceOnUse" gradientTransform="matrix(144.50013 .5 -.45678 132.01021 115 42.5)"><stop stop-color="#25A6EF"/><stop offset="1" stop-color="#9F2FFF"/></radialGradient></defs></symbol><symbol viewBox="0 0 64 64" id="chat" xmlns="http://www.w3.org/2000/svg"><path d="M10.667 27.163h13.866a1.066 1.066 0 1 0 0-2.134H10.667a1.066 1.066 0 1 0 0 2.134zM38.4 31.43H10.667a1.066 1.066 0 1 0 0 2.133H38.4a1.066 1.066 0 1 0 0-2.134zM38.4 37.83H10.667a1.066 1.066 0 1 0 0 2.133H38.4a1.066 1.066 0 1 0 0-2.133z"/><path d="M57.677 2.704L21.259 2.63a6.332 6.332 0 0 0-6.326 6.326v5.465l-8.608.018A6.332 6.332 0 0 0 0 20.764v22.55a6.331 6.331 0 0 0 6.325 6.325H12.8v10.666a1.067 1.067 0 0 0 1.856.718l10.35-11.387 17.735-.072a6.332 6.332 0 0 0 6.326-6.325v-.12l5.61 6.172a1.069 1.069 0 0 0 1.856-.718V37.906h1.142A6.332 6.332 0 0 0 64 31.582V9.029a6.332 6.332 0 0 0-6.323-6.325zM46.933 43.24c0 2.31-1.88 4.19-4.196 4.19l-18.208.075a1.067 1.067 0 0 0-.785.349l-8.81 9.693V48.57c0-.59-.477-1.067-1.067-1.067H6.325a4.197 4.197 0 0 1-4.192-4.19V20.762a4.197 4.197 0 0 1 4.194-4.192L16 16.55h.002l26.74-.056a4.197 4.197 0 0 1 4.191 4.192v22.553zm14.934-11.66a4.196 4.196 0 0 1-4.192 4.192h-2.208c-.59 0-1.067.478-1.067 1.066v8.975l-5.333-5.866V20.688a6.333 6.333 0 0 0-6.328-6.325l-25.672.052V8.954a4.196 4.196 0 0 1 4.19-4.192l36.417.074h.002a4.197 4.197 0 0 1 4.192 4.192V31.58h-.001z"/><defs><linearGradient id="aga" x1="17.6" y1="25.029" x2="17.6" y2="27.163" gradientUnits="userSpaceOnUse"><stop stop-color="#9F2FFF"/><stop offset="1" stop-color="#25A6EF"/></linearGradient><linearGradient id="agb" x1="24.533" y1="31.429" x2="24.533" y2="33.563" gradientUnits="userSpaceOnUse"><stop stop-color="#9F2FFF"/><stop offset="1" stop-color="#25A6EF"/></linearGradient><linearGradient id="agc" x1="24.533" y1="37.83" x2="24.533" y2="39.963" gradientUnits="userSpaceOnUse"><stop stop-color="#9F2FFF"/><stop offset="1" stop-color="#25A6EF"/></linearGradient><linearGradient id="agd" x1="32" y1="2.629" x2="32" y2="61.372" gradientUnits="userSpaceOnUse"><stop stop-color="#9F2FFF"/><stop offset="1" stop-color="#25A6EF"/></linearGradient></defs></symbol><symbol viewBox="0 0 64 64" id="computer" xmlns="http://www.w3.org/2000/svg"><g clip-path="url(#aha)"><path d="M34.133 50.133a2.133 2.133 0 1 1-4.267 0 2.133 2.133 0 0 1 4.267 0z"/><path d="M56.267 10.667h-8.534V12.8h8.534c.589 0 1.066.478 1.066 1.067v29.866h-51.2V13.867c0-.59.478-1.067 1.067-1.067h8.533v-2.133H7.2a3.204 3.204 0 0 0-3.2 3.2v39.466a3.203 3.203 0 0 0 3.2 3.2h19.2v5.334h-4.267V64h19.2v-2.133h-4.266v-5.334h19.2a3.204 3.204 0 0 0 3.2-3.2V13.867a3.204 3.204 0 0 0-3.2-3.2zm-21.334 51.2h-6.4v-5.334h6.4v5.334zm22.4-8.534c0 .59-.477 1.066-1.066 1.067H7.2c-.59 0-1.066-.478-1.067-1.067v-7.466h51.2v7.466z"/><path d="M21.2 0A3.203 3.203 0 0 0 18 3.2v35.2a3.203 3.203 0 0 0 3.2 3.2h21.333a3.203 3.203 0 0 0 3.2-3.2V3.2a3.203 3.203 0 0 0-3.2-3.2H21.2zm22.4 38.4c0 .59-.478 1.066-1.067 1.067H21.2c-.59 0-1.066-.478-1.067-1.067v-7.467H43.6V38.4zm0-35.2v25.6H20.133V3.2c0-.59.478-1.066 1.067-1.067h21.333c.59 0 1.066.478 1.067 1.067z"/><path d="M34.267 35.2a2.133 2.133 0 1 1-4.267 0 2.133 2.133 0 0 1 4.267 0zM30 4.267h4.267V6.4H30V4.267z"/></g><defs><linearGradient id="ahb" x1="32" y1="48" x2="32" y2="52.267" gradientUnits="userSpaceOnUse"><stop stop-color="#9F2FFF"/><stop offset="1" stop-color="#10A4F7"/></linearGradient><linearGradient id="ahc" x1="31.733" y1="10.667" x2="31.733" y2="64" gradientUnits="userSpaceOnUse"><stop stop-color="#9F2FFF"/><stop offset="1" stop-color="#10A4F7"/></linearGradient><linearGradient id="ahd" x1="31.867" x2="31.867" y2="41.6" gradientUnits="userSpaceOnUse"><stop stop-color="#9F2FFF"/><stop offset="1" stop-color="#10A4F7"/></linearGradient><linearGradient id="ahe" x1="32.133" y1="33.067" x2="32.133" y2="37.333" gradientUnits="userSpaceOnUse"><stop stop-color="#9F2FFF"/><stop offset="1" stop-color="#10A4F7"/></linearGradient><linearGradient id="ahf" x1="32.133" y1="4.267" x2="32.133" y2="6.4" gradientUnits="userSpaceOnUse"><stop stop-color="#9F2FFF"/><stop offset="1" stop-color="#10A4F7"/></linearGradient><clipPath id="aha"><path d="M0 0h64v64H0z"/></clipPath></defs></symbol><symbol viewBox="0 0 64 64" id="deadline" xmlns="http://www.w3.org/2000/svg"><path fill-rule="evenodd" clip-rule="evenodd" d="M11.865 7.645A32.314 32.314 0 0 0 9.7 9.613a31.757 31.757 0 0 0-4.952 6.468.93.93 0 0 0-.083.094c-.017.03-.017.064-.032.095A31.644 31.644 0 0 0 2.91 44.347a31.828 31.828 0 0 0 1.723 3.412c.015.03.015.064.032.095.036.054.077.106.122.154a30.925 30.925 0 0 0 11.384 11.36c.035.024.056.061.093.083.044.02.088.039.133.055a31.65 31.65 0 0 0 28.04 1.706 31.56 31.56 0 0 0 3.378-1.706 2.07 2.07 0 0 0 .13-.052.968.968 0 0 0 .092-.083 30.93 30.93 0 0 0 11.386-11.36c.044-.048.084-.1.121-.154.017-.03.017-.065.032-.096a31.22 31.22 0 0 0 0-31.492c-.015-.03-.015-.065-.032-.095a1.142 1.142 0 0 0-.082-.093A30.962 30.962 0 0 0 48.041 4.66c-.035-.024-.056-.06-.094-.083-.038-.021-.064-.017-.095-.03a31.643 31.643 0 0 0-28.08-1.724 31.778 31.778 0 0 0-3.412 1.723c-.031.014-.065.014-.096.031a1.068 1.068 0 0 0-.092.083c-.5.292-1.005.581-1.488.9l-2.819 2.085zm19.02-4.846c-3.497.135-6.94.903-10.164 2.265v.003a28.83 28.83 0 0 0-2.168 1.042l2.415 4.197a1.218 1.218 0 1 1-2.11 1.219l-2.416-4.182a28.413 28.413 0 0 0-9.017 9.017l4.182 2.415a1.22 1.22 0 1 1-1.218 2.11l-4.194-2.42a28.97 28.97 0 0 0-1.042 2.17 29.003 29.003 0 0 0-2.266 10.162h7.282a1.219 1.219 0 1 1 0 2.438H2.887c.136 3.496.904 6.94 2.268 10.163.31.742.676 1.46 1.042 2.168l4.197-2.415a1.218 1.218 0 1 1 1.218 2.111L7.43 47.677a28.41 28.41 0 0 0 9.018 9.017l2.414-4.181a1.22 1.22 0 0 1 2.111 1.218l-2.42 4.192c.707.371 1.427.73 2.169 1.043a28.995 28.995 0 0 0 10.163 2.267V53.95a1.218 1.218 0 1 1 2.437 0v7.282a28.988 28.988 0 0 0 10.164-2.267c.742-.311 1.459-.676 2.168-1.042l-2.42-4.192a1.219 1.219 0 1 1 2.11-1.218l2.42 4.176a28.412 28.412 0 0 0 9.018-9.017L52.6 45.257a1.22 1.22 0 1 1 1.218-2.11l4.193 2.42c.371-.707.729-1.427 1.042-2.17a28.99 28.99 0 0 0 2.267-10.162h-7.283a1.218 1.218 0 0 1 0-2.438h7.283a28.985 28.985 0 0 0-2.268-10.164c-.31-.74-.676-1.458-1.042-2.168l-4.191 2.42a1.218 1.218 0 1 1-1.22-2.11l4.178-2.42a28.41 28.41 0 0 0-9.017-9.018l-2.416 4.183a1.218 1.218 0 1 1-2.11-1.219l2.42-4.193a28.765 28.765 0 0 0-2.17-1.042A29.014 29.014 0 0 0 33.323 2.8v7.283a1.219 1.219 0 1 1-2.437 0V2.799z"/><path d="M16.472 31.008a4.873 4.873 0 0 0 0 6.892l8.53 8.53a4.836 4.836 0 0 0 3.446 1.428h.233a4.876 4.876 0 0 0 3.533-1.77l17.06-20.716a4.874 4.874 0 1 0-7.523-6.197L28.103 35.748l-4.735-4.734a4.987 4.987 0 0 0-6.896-.006zm10.852 7.405c.24.249.576.38.92.356.344-.016.664-.177.882-.442l14.501-17.608a2.437 2.437 0 1 1 3.762 3.1L30.33 44.534a2.438 2.438 0 0 1-1.779.885l-.102.001a2.42 2.42 0 0 1-1.723-.714l-8.53-8.53a2.438 2.438 0 1 1 3.445-3.446l5.684 5.684z"/><defs><linearGradient id="aia" x1="32.129" y1=".333" x2="32.129" y2="63.7" gradientUnits="userSpaceOnUse"><stop stop-color="#9F2FFF"/><stop offset="1" stop-color="#10A4F7"/></linearGradient><linearGradient id="aib" x1="32.739" y1="17.343" x2="32.739" y2="47.858" gradientUnits="userSpaceOnUse"><stop stop-color="#9F2FFF"/><stop offset="1" stop-color="#25A6EF"/></linearGradient></defs></symbol><symbol viewBox="0 0 40 40" id="ellipse" xmlns="http://www.w3.org/2000/svg"><circle cx="20" cy="20" r="20" fill-opacity=".19"/><defs><linearGradient id="aja" x1="40" y1="40" x2="0" gradientUnits="userSpaceOnUse"><stop stop-color="#10A4F7"/><stop offset="1" stop-color="#10A4F7" stop-opacity=".41"/></linearGradient></defs></symbol><symbol viewBox="0 0 16 14" id="envelope-footer" xmlns="http://www.w3.org/2000/svg"><path d="M1.536 4.59c.202.142.812.566 1.83 1.272 1.018.705 1.798 1.248 2.34 1.629l.379.272a9.65 9.65 0 0 0 .946.63c.182.107.353.187.514.24.16.054.31.081.446.081h.018c.137 0 .286-.027.446-.08.161-.054.332-.134.514-.241a9.43 9.43 0 0 0 .464-.29c.128-.087.289-.2.482-.34l.38-.272 4.178-2.902c.435-.303.798-.67 1.09-1.098.291-.428.437-.878.437-1.348 0-.393-.141-.73-.424-1.009a1.38 1.38 0 0 0-1.005-.42H1.43C.97.714.618.87.37 1.18.123 1.49 0 1.876 0 2.34c0 .375.164.782.491 1.22.327.437.676.78 1.045 1.03z"/><path d="M15.107 5.545a185.551 185.551 0 0 0-4.446 3.08c-.34.25-.615.445-.826.585-.212.14-.493.282-.844.428a2.57 2.57 0 0 1-.982.219h-.018a2.57 2.57 0 0 1-.982-.219 5.1 5.1 0 0 1-.844-.428c-.211-.14-.486-.335-.826-.585-.803-.59-2.282-1.616-4.437-3.08A4.73 4.73 0 0 1 0 4.768v7.089c0 .393.14.73.42 1.009.28.28.616.42 1.009.42h13.143c.392 0 .729-.14 1.008-.42.28-.28.42-.616.42-1.01V4.769a4.922 4.922 0 0 1-.893.777z"/></symbol><symbol viewBox="0 0 32 32" id="favicon" xmlns="http://www.w3.org/2000/svg"><rect width="32" height="32" rx="5"/><g clip-path="url(#ala)"><path d="M16.594 15.932a.483.483 0 0 0-.664 0 .436.436 0 0 0 0 .635c.184.175.48.175.664 0a.437.437 0 0 0 0-.635zm5.966-5.718a2.415 2.415 0 0 0-3.315 0 2.183 2.183 0 0 0 0 3.177 2.42 2.42 0 0 0 3.314 0 2.18 2.18 0 0 0 0-3.177zm-.663 2.541a1.452 1.452 0 0 1-1.99 0 1.31 1.31 0 0 1 0-1.906 1.449 1.449 0 0 1 1.99 0c.549.527.55 1.38 0 1.906z"/><path d="M27.863 5.132A.478.478 0 0 0 27.514 5c-.106.004-2.63.101-5.629 1.117-2.404.814-4.407 1.978-5.955 3.461a17.38 17.38 0 0 0-1.007 1.051c-1.53-.863-2.757-.592-3.532-.195-1.785.916-2.89 3.402-2.89 5.18a.45.45 0 0 0 .29.415.484.484 0 0 0 .51-.098c.941-.902 2.103-.845 2.482-.798l.164.158a15.356 15.356 0 0 0-.774 2.181c-.069.258-.046.531.057.78-.452.2-.887.493-1.266.856-1.207 1.157-1.452 3.975-1.462 4.094-.01.131.04.26.136.353a.48.48 0 0 0 .369.13c.124-.01 3.065-.244 4.271-1.4a4.26 4.26 0 0 0 .893-1.213c.276.104.56.117.815.054a16.997 16.997 0 0 0 2.276-.742l.164.157c.05.364.109 1.477-.833 2.379a.436.436 0 0 0-.101.49.47.47 0 0 0 .433.277c1.855 0 4.449-1.06 5.404-2.77.415-.743.698-1.918-.203-3.385.382-.309.75-.633 1.096-.965 1.548-1.483 2.763-3.403 3.612-5.707 1.06-2.875 1.162-5.293 1.166-5.395a.44.44 0 0 0-.137-.333zM9.549 14.648c.291-1.351 1.137-2.833 2.284-3.421.767-.394 1.605-.355 2.496.112a18.042 18.042 0 0 0-1.969 3.077c-.007-.004-.091-.106-.248-.14a4.165 4.165 0 0 0-2.563.372zm3.067 7.001c-.645.618-2.157.944-3.113 1.077.14-.916.48-2.365 1.124-2.983.36-.345.78-.608 1.2-.755l1.577 1.511a3.227 3.227 0 0 1-.788 1.15zm2.137-1.393a.452.452 0 0 1-.41-.128l-.918-.88-1.21-1.16c-.118-.112-.169-.263-.134-.392.15-.56.347-1.136.585-1.716l3.877 3.715c-.606.229-1.206.417-1.79.56zm6.75.237c-.614 1.1-2.16 1.91-3.57 2.19.45-.81.549-1.842.384-2.468-.038-.145-.137-.218-.142-.227a19.127 19.127 0 0 0 3.21-1.887c.488.854.528 1.657.118 2.392zm1.057-4.561c-.423.405-.878.795-1.352 1.162a18.155 18.155 0 0 1-3.737 2.22l-4.407-4.224a17.153 17.153 0 0 1 2.316-3.58c.383-.456.79-.892 1.213-1.296 1.389-1.331 3.181-2.39 5.328-3.153l3.928 3.764c-.795 2.058-1.9 3.776-3.29 5.107zm3.626-6.054l-3.276-3.14a21.887 21.887 0 0 1 4.113-.802 19.459 19.459 0 0 1-.837 3.942z"/><path d="M15.268 23.555a.483.483 0 0 0-.663 0l-1.326 1.27a.436.436 0 0 0 0 .636c.183.176.48.176.663 0l1.326-1.27a.436.436 0 0 0 0-.636zm-6.63-6.353a.483.483 0 0 0-.662 0l-1.327 1.27a.436.436 0 0 0 0 .636c.183.175.48.175.663 0l1.326-1.27a.436.436 0 0 0 0-.636zm3.315 6.988a.483.483 0 0 0-.663 0l-3.175 3.043a.436.436 0 0 0 0 .635c.183.176.48.176.662 0l3.176-3.042a.436.436 0 0 0 0-.635zm-3.75 0a.483.483 0 0 0-.663 0l-3.175 3.043a.436.436 0 0 0 0 .635c.183.176.48.176.663 0l3.175-3.042a.436.436 0 0 0 0-.635zm-.228-3.812a.483.483 0 0 0-.663 0l-3.175 3.044a.436.436 0 0 0 0 .635c.183.175.48.175.663 0l3.175-3.043a.436.436 0 0 0 0-.636zm10.607-6.352a.483.483 0 0 0-.663 0l-.663.635a.436.436 0 0 0 0 .635c.183.176.48.176.663 0l.663-.635a.436.436 0 0 0 0-.635z"/></g><defs><clipPath id="ala"><path transform="translate(4 5)" d="M0 0h24v23H0z"/></clipPath></defs></symbol><symbol viewBox="0 0 64 64" id="gears" xmlns="http://www.w3.org/2000/svg"><path d="M32.848 39.65a1.01 1.01 0 0 0-1.346-.479 16 16 0 0 1-2.556.956 1.01 1.01 0 0 0-.719.775l-1.069 5.345c-.105.528-.572.91-1.11.91H23.13a1.136 1.136 0 0 1-1.11-.91l-1.07-5.345a1.01 1.01 0 0 0-.718-.775 16.053 16.053 0 0 1-3.549-1.47 1.01 1.01 0 0 0-1.057.04l-4.535 3.023a1.136 1.136 0 0 1-1.43-.142L7.6 39.517c-.38-.38-.44-.981-.142-1.43l3.024-4.535a1.01 1.01 0 0 0 .04-1.057 16.05 16.05 0 0 1-1.47-3.549 1.01 1.01 0 0 0-.776-.718l-5.345-1.069a1.136 1.136 0 0 1-.91-1.111v-2.916c0-.538.383-1.006.91-1.111l5.345-1.07a1.01 1.01 0 0 0 .775-.718 16.052 16.052 0 0 1 1.47-3.549 1.01 1.01 0 0 0-.039-1.056L7.46 11.092a1.136 1.136 0 0 1 .141-1.43L9.662 7.6c.38-.38.982-.44 1.43-.142l4.536 3.024a1.01 1.01 0 0 0 1.056.04 16.056 16.056 0 0 1 3.55-1.47 1.01 1.01 0 0 0 .718-.776l1.069-5.345c.105-.527.572-.91 1.11-.91h2.917c.538 0 1.005.383 1.11.91l1.07 5.345c.074.373.352.673.718.775 1.237.347 2.431.841 3.55 1.47.33.188.74.172 1.056-.039l4.535-3.024a1.136 1.136 0 0 1 1.43.142l2.062 2.062c.38.38.44.982.142 1.43l-3.024 4.535a1.01 1.01 0 0 0-.04 1.057 16.057 16.057 0 0 1 1.47 3.549c.103.366.403.644.776.718l5.345 1.07c.527.105.91.572.91 1.11v2.916c0 .539-.383 1.006-.91 1.111l-5.345 1.07a1.01 1.01 0 0 0-.775.718 16.082 16.082 0 0 1-.985 2.617 1.01 1.01 0 1 0 1.822.874c.363-.757.675-1.544.93-2.347l4.749-.95a3.163 3.163 0 0 0 2.535-3.093v-2.916a3.163 3.163 0 0 0-2.536-3.093l-4.748-.95a18.083 18.083 0 0 0-1.18-2.846l2.687-4.03a3.163 3.163 0 0 0-.394-3.98l-2.062-2.061a3.163 3.163 0 0 0-3.98-.394l-4.03 2.686a18.096 18.096 0 0 0-2.846-1.18l-.95-4.748A3.162 3.162 0 0 0 26.047 0h-2.916a3.163 3.163 0 0 0-3.093 2.535l-.95 4.75c-.98.31-1.933.705-2.845 1.178l-4.03-2.686a3.163 3.163 0 0 0-3.98.394L6.171 8.233a3.163 3.163 0 0 0-.394 3.98l2.686 4.03a18.087 18.087 0 0 0-1.179 2.846l-4.749.95A3.163 3.163 0 0 0 0 23.13v2.917a3.163 3.163 0 0 0 2.535 3.093l4.75.95c.31.98.705 1.933 1.178 2.845l-2.686 4.03a3.163 3.163 0 0 0 .394 3.98l2.062 2.062a3.163 3.163 0 0 0 3.98.394l4.03-2.686c.912.473 1.865.867 2.846 1.179l.95 4.749a3.163 3.163 0 0 0 3.092 2.535h2.917a3.163 3.163 0 0 0 3.093-2.535l.95-4.75a18.121 18.121 0 0 0 2.278-.897 1.01 1.01 0 0 0 .48-1.346z"/><path d="M33.342 30.204a1.01 1.01 0 0 0 1.36-.438 11.395 11.395 0 0 0 1.247-5.176c0-6.264-5.096-11.36-11.36-11.36-2.98 0-5.795 1.146-7.928 3.226a1.01 1.01 0 0 0 1.41 1.447 9.288 9.288 0 0 1 6.518-2.651c5.15 0 9.338 4.189 9.338 9.338a9.24 9.24 0 0 1-1.023 4.255 1.01 1.01 0 0 0 .438 1.36zM15.13 20.266a1.01 1.01 0 0 0-1.284.627 11.34 11.34 0 0 0-.615 3.697c0 6.263 5.095 11.359 11.359 11.359 2.409 0 4.71-.745 6.656-2.154a1.01 1.01 0 0 0-1.186-1.637 9.27 9.27 0 0 1-5.47 1.77c-5.15 0-9.338-4.19-9.338-9.339 0-1.041.17-2.064.505-3.04a1.01 1.01 0 0 0-.627-1.283zM62.055 44.164l-2.922-.584a12.226 12.226 0 0 0-.64-1.547l1.652-2.48c.638-.956.51-2.24-.302-3.052l-1.355-1.355a2.426 2.426 0 0 0-3.052-.302l-2.48 1.653a12.21 12.21 0 0 0-1.547-.64l-.584-2.923a2.426 2.426 0 0 0-2.372-1.944h-1.917a2.426 2.426 0 0 0-2.372 1.944l-.584 2.922c-.53.178-1.047.393-1.547.641l-2.48-1.653a2.426 2.426 0 0 0-3.052.302l-1.355 1.355a2.426 2.426 0 0 0-.302 3.053l1.653 2.48a12.216 12.216 0 0 0-.825 2.147 1.01 1.01 0 0 0 1.946.544 10.2 10.2 0 0 1 .934-2.255 1.01 1.01 0 0 0-.04-1.057l-1.986-2.98a.4.4 0 0 1 .05-.503l1.354-1.355a.4.4 0 0 1 .503-.05l2.98 1.988a1.01 1.01 0 0 0 1.057.04c.71-.4 1.469-.715 2.255-.935a1.01 1.01 0 0 0 .719-.775l.702-3.512a.4.4 0 0 1 .39-.32h1.917a.4.4 0 0 1 .39.32l.703 3.512c.074.373.352.673.718.775.787.22 1.545.535 2.255.935.332.186.74.171 1.057-.04l2.98-1.987a.399.399 0 0 1 .503.05l1.355 1.355a.4.4 0 0 1 .05.502l-1.987 2.98a1.01 1.01 0 0 0-.04 1.057c.4.71.715 1.469.934 2.255.103.367.402.645.776.719l3.512.702a.4.4 0 0 1 .32.39v1.917a.4.4 0 0 1-.32.39l-3.513.703a1.01 1.01 0 0 0-.775.718c-.22.787-.534 1.546-.934 2.256a1.01 1.01 0 0 0 .04 1.056l1.987 2.98a.4.4 0 0 1-.05.503l-1.355 1.355a.4.4 0 0 1-.503.05l-2.98-1.987a1.01 1.01 0 0 0-1.057-.04c-.71.4-1.469.715-2.255.935a1.01 1.01 0 0 0-.719.775l-.702 3.512a.4.4 0 0 1-.39.32h-1.917a.4.4 0 0 1-.39-.32l-.703-3.512a1.01 1.01 0 0 0-.718-.776 10.199 10.199 0 0 1-2.255-.934 1.01 1.01 0 0 0-1.057.04l-2.98 1.987a.399.399 0 0 1-.503-.05l-1.355-1.355a.4.4 0 0 1-.05-.502l1.988-2.981a1.01 1.01 0 0 0 .04-1.056c-.4-.71-.715-1.47-.935-2.256a1.01 1.01 0 0 0-.775-.718l-3.513-.703a.399.399 0 0 1-.32-.39v-1.917a.4.4 0 0 1 .32-.39l.215-.043a1.01 1.01 0 1 0-.396-1.982l-.215.043a2.426 2.426 0 0 0-1.945 2.373v1.916c0 1.149.818 2.147 1.945 2.372l2.922.584c.178.53.393 1.047.641 1.547l-1.653 2.48c-.638.956-.51 2.24.302 3.052l1.355 1.355c.813.813 2.096.94 3.053.303l2.48-1.654c.5.249 1.016.463 1.546.641l.584 2.922A2.426 2.426 0 0 0 46.537 64h1.916a2.426 2.426 0 0 0 2.372-1.945l.584-2.922a12.22 12.22 0 0 0 1.547-.64l2.48 1.652c.956.638 2.24.51 3.052-.302l1.355-1.355c.813-.812.94-2.096.303-3.052l-1.654-2.48c.249-.5.463-1.017.641-1.547l2.922-.584A2.426 2.426 0 0 0 64 48.453v-1.917a2.425 2.425 0 0 0-1.945-2.372z"/><path d="M47.495 43.857a3.642 3.642 0 0 1 3.638 3.638 1.01 1.01 0 0 0 2.02 0 5.665 5.665 0 0 0-5.658-5.66 5.665 5.665 0 0 0-5.66 5.66 5.665 5.665 0 0 0 5.66 5.659 5.605 5.605 0 0 0 3.457-1.179 1.01 1.01 0 0 0-1.236-1.6 3.603 3.603 0 0 1-2.221.758 3.642 3.642 0 0 1-3.638-3.638 3.642 3.642 0 0 1 3.638-3.638zM30.746 24.59a6.164 6.164 0 0 0-6.156-6.157 6.164 6.164 0 0 0-6.157 6.157 6.164 6.164 0 0 0 6.157 6.156 6.164 6.164 0 0 0 6.156-6.156zm-10.292 0a4.14 4.14 0 0 1 4.136-4.136 4.14 4.14 0 0 1 4.135 4.136 4.14 4.14 0 0 1-4.136 4.135 4.14 4.14 0 0 1-4.135-4.136z"/><defs><linearGradient id="ama" x1="24.589" x2="24.589" y2="49.179" gradientUnits="userSpaceOnUse"><stop stop-color="#9F2FFF"/><stop offset="1" stop-color="#25A6EF"/></linearGradient><linearGradient id="amb" x1="26.152" y1="13.23" x2="26.152" y2="30.316" gradientUnits="userSpaceOnUse"><stop stop-color="#9F2FFF"/><stop offset="1" stop-color="#25A6EF"/></linearGradient><linearGradient id="amc" x1="22.447" y1="20.21" x2="22.447" y2="35.949" gradientUnits="userSpaceOnUse"><stop stop-color="#9F2FFF"/><stop offset="1" stop-color="#25A6EF"/></linearGradient><linearGradient id="amd" x1="47.495" y1="30.99" x2="47.495" y2="64" gradientUnits="userSpaceOnUse"><stop stop-color="#9F2FFF"/><stop offset="1" stop-color="#25A6EF"/></linearGradient><linearGradient id="ame" x1="47.495" y1="41.836" x2="47.495" y2="53.154" gradientUnits="userSpaceOnUse"><stop stop-color="#9F2FFF"/><stop offset="1" stop-color="#25A6EF"/></linearGradient><linearGradient id="amf" x1="24.59" y1="18.433" x2="24.59" y2="30.746" gradientUnits="userSpaceOnUse"><stop stop-color="#9F2FFF"/><stop offset="1" stop-color="#25A6EF"/></linearGradient></defs></symbol><symbol viewBox="0 0 36 36" id="instagram" xmlns="http://www.w3.org/2000/svg"><path d="M23.365 9.578h-10.73a3.11 3.11 0 0 0-3.106 3.106v10.73a3.11 3.11 0 0 0 3.106 3.106h10.73a3.11 3.11 0 0 0 3.106-3.107v-10.73a3.11 3.11 0 0 0-3.106-3.105zM18 23.626a5.584 5.584 0 0 1-5.577-5.577A5.583 5.583 0 0 1 18 12.472a5.583 5.583 0 0 1 5.577 5.577A5.584 5.584 0 0 1 18 23.626zm5.757-10.001c-.728 0-1.32-.592-1.32-1.32 0-.727.592-1.32 1.32-1.32.727 0 1.32.593 1.32 1.32 0 .728-.593 1.32-1.32 1.32z"/><path d="M18 14.828a3.225 3.225 0 0 0-3.22 3.22A3.225 3.225 0 0 0 18 21.27a3.224 3.224 0 0 0 3.22-3.22A3.224 3.224 0 0 0 18 14.83z"/><path d="M18 0C8.06 0 0 8.06 0 18s8.06 18 18 18 18-8.06 18-18S27.94 0 18 0zm10.828 23.413a5.468 5.468 0 0 1-5.463 5.463h-10.73a5.469 5.469 0 0 1-5.463-5.463v-10.73a5.469 5.469 0 0 1 5.463-5.462h10.73a5.469 5.469 0 0 1 5.463 5.463v10.73z"/></symbol><symbol viewBox="0 0 16 16" id="instagram-footer" xmlns="http://www.w3.org/2000/svg"><path d="M9.531 8A1.531 1.531 0 1 1 6.47 8a1.531 1.531 0 0 1 3.06 0z"/><path d="M11.581 5.29a1.414 1.414 0 0 0-.344-.527 1.422 1.422 0 0 0-.528-.344c-.162-.063-.405-.138-.853-.158-.484-.022-.63-.027-1.856-.027-1.227 0-1.372.005-1.856.027-.448.02-.691.095-.853.158-.2.074-.38.191-.528.344-.153.148-.27.328-.344.528-.063.162-.138.405-.158.853-.022.484-.027.63-.027 1.856 0 1.227.005 1.372.027 1.857.02.447.095.69.158.853.074.2.19.38.343.528.149.152.33.27.529.343.162.063.405.138.853.159.484.022.63.026 1.856.026 1.227 0 1.372-.004 1.856-.027.448-.02.691-.095.853-.158.4-.154.718-.47.872-.871.063-.162.138-.406.158-.853.022-.485.027-.63.027-1.857 0-1.226-.005-1.372-.027-1.856-.02-.448-.095-.691-.158-.853zM8 10.36a2.359 2.359 0 1 1 0-4.718 2.359 2.359 0 0 1 0 4.718zm2.452-4.26a.551.551 0 1 1 0-1.102.551.551 0 0 1 0 1.102z"/><path d="M8 0a8 8 0 1 0 .002 16.002A8 8 0 0 0 8 0zm4.566 9.894c-.022.489-.1.823-.214 1.115a2.348 2.348 0 0 1-1.343 1.343c-.292.114-.626.192-1.115.214-.49.022-.646.028-1.894.028-1.248 0-1.404-.006-1.894-.028-.489-.022-.823-.1-1.115-.214a2.25 2.25 0 0 1-.814-.53 2.25 2.25 0 0 1-.53-.813c-.113-.292-.19-.626-.213-1.115-.022-.49-.028-.646-.028-1.894 0-1.248.006-1.404.028-1.894.022-.489.1-.823.213-1.115a2.25 2.25 0 0 1 .53-.814 2.25 2.25 0 0 1 .814-.53c.292-.113.626-.19 1.115-.213.49-.022.646-.028 1.894-.028 1.248 0 1.404.006 1.894.028.489.022.823.1 1.115.213.307.116.584.297.814.53.233.23.414.507.53.814.113.292.19.626.213 1.115.022.49.028.646.028 1.894 0 1.248-.005 1.404-.028 1.894z"/></symbol><symbol viewBox="0 0 178 38" id="logo" xmlns="http://www.w3.org/2000/svg"><path d="M44.725 23.15V30h-1.55V12.625h6.375c1.817 0 3.167.417 4.05 1.25.9.817 1.35 2.117 1.35 3.9 0 2.783-1.117 4.475-3.35 5.075L55.175 30H53.45l-3.425-6.85h-5.3zm8.625-5.35c0-1.3-.308-2.258-.925-2.875S50.85 14 49.55 14h-4.825v7.775h4.825c2.533 0 3.8-1.325 3.8-3.975zm6.13 3.6c0 2.65.35 4.558 1.05 5.725.7 1.15 2.076 1.725 4.126 1.725 2.066 0 3.45-.567 4.15-1.7.7-1.133 1.05-3.025 1.05-5.675 0-2.667-.367-4.617-1.1-5.85-.734-1.233-2.1-1.85-4.1-1.85-2.067 0-3.459.667-4.175 2-.384.683-.65 1.467-.8 2.35-.133.883-.2 1.975-.2 3.275zm11.976.05c0 3.1-.492 5.342-1.475 6.725-.967 1.383-2.742 2.075-5.325 2.075-2.567 0-4.342-.708-5.325-2.125-.967-1.417-1.45-3.65-1.45-6.7 0-3.067.492-5.342 1.475-6.825.983-1.483 2.75-2.225 5.3-2.225s4.316.742 5.3 2.225c1 1.467 1.5 3.75 1.5 6.85zm14.028 8.275c-1.717.35-3.184.525-4.4.525-1.217 0-2.2-.125-2.95-.375-.734-.267-1.334-.633-1.8-1.1-.467-.467-.834-1.075-1.1-1.825-.5-1.367-.75-3.225-.75-5.575 0-3.767.6-6.258 1.8-7.475.983-1.017 2.483-1.525 4.5-1.525 1.383 0 2.95.175 4.7.525l-.075 1.35c-1.734-.317-3.125-.475-4.175-.475-1.05 0-1.867.117-2.45.35-.567.217-1.034.517-1.4.9-.35.367-.617.883-.8 1.55-.334 1.133-.5 2.55-.5 4.25 0 1.7.058 2.975.175 3.825a7.54 7.54 0 0 0 .675 2.275c.333.683.825 1.175 1.475 1.475.65.3 1.55.45 2.7.45 1.15 0 2.583-.158 4.3-.475l.075 1.35zm4.773.275h-1.55V12.625h1.55v8.2l3-.075 4.825-8.125h1.775l-5.25 8.725 5.575 8.65h-1.85l-5.05-7.85-3.025.05V30zm12.537 0V12.625h10.425v1.4h-8.875v6.45h7.375v1.375h-7.375v6.775h8.875V30h-10.425zm11.944-15.975v-1.4h12.5v1.4h-5.45V30h-1.55V14.025h-5.5zM140.722 30v-8.025h-9.425V30h-1.55V12.625h1.55V20.6h9.425v-7.975h1.525V30h-1.525zm7.32-5.1c0 2.633 1.442 3.95 4.325 3.95 1.5 0 2.625-.308 3.375-.925s1.125-1.625 1.125-3.025V12.625h1.55V24.9c0 1.883-.508 3.25-1.525 4.1-1.016.833-2.508 1.25-4.475 1.25-1.95 0-3.425-.417-4.425-1.25-.983-.85-1.475-2.217-1.475-4.1V12.625h1.525V24.9zm14.615-12.275h6.175c3.417 0 5.125 1.458 5.125 4.375 0 2.05-.766 3.4-2.3 4.05 1.917.6 2.875 1.975 2.875 4.125 0 1.75-.458 2.992-1.375 3.725-.9.733-2.216 1.1-3.95 1.1h-6.55V12.625zm6.375 9.2h-4.825v6.8h4.975c1.217 0 2.15-.258 2.8-.775.65-.517.975-1.425.975-2.725 0-2.2-1.308-3.3-3.925-3.3zm-.25-7.825h-4.575v6.475h4.8c1.167 0 2.017-.275 2.55-.825.55-.567.825-1.4.825-2.5s-.3-1.9-.9-2.4c-.583-.5-1.483-.75-2.7-.75z"/><g clip-path="url(#apa)"><path d="M20.465 17.764a.785.785 0 0 0-1.078 0 .71.71 0 0 0 0 1.032.787.787 0 0 0 1.078 0 .71.71 0 0 0 0-1.032zm9.694-9.291c-1.488-1.426-3.898-1.427-5.386 0a3.548 3.548 0 0 0 0 5.162c1.485 1.422 3.901 1.423 5.386 0a3.542 3.542 0 0 0 0-5.162zm-1.077 4.13a2.36 2.36 0 0 1-3.232 0 2.129 2.129 0 0 1 0-3.098 2.355 2.355 0 0 1 3.232 0 2.125 2.125 0 0 1 0 3.097z"/><path d="M38.777.214A.777.777 0 0 0 38.21 0c-.172.005-4.273.163-9.148 1.815-3.906 1.321-7.162 3.214-9.677 5.624a28.248 28.248 0 0 0-1.636 1.708c-2.487-1.403-4.48-.963-5.74-.317-2.9 1.488-4.696 5.527-4.696 8.416 0 .296.186.562.47.675a.79.79 0 0 0 .83-.159c1.53-1.466 3.417-1.374 4.033-1.296l.267.255a24.963 24.963 0 0 0-1.258 3.546c-.112.419-.074.862.092 1.268-.733.324-1.44.8-2.057 1.39-1.96 1.879-2.359 6.458-2.375 6.652a.713.713 0 0 0 .221.574.78.78 0 0 0 .599.211c.202-.015 4.98-.396 6.942-2.275a6.923 6.923 0 0 0 1.45-1.971c.448.169.909.19 1.324.088a27.607 27.607 0 0 0 3.698-1.206l.267.256c.081.59.177 2.399-1.353 3.865a.708.708 0 0 0-.165.795c.118.273.396.45.704.45 3.015 0 7.23-1.72 8.782-4.5.674-1.207 1.133-3.117-.33-5.5a28.585 28.585 0 0 0 1.782-1.569c2.515-2.41 4.49-5.53 5.868-9.273C38.828 4.85 38.993.92 39 .756a.714.714 0 0 0-.222-.542zM9.017 15.677c.473-2.194 1.847-4.602 3.712-5.559 1.246-.639 2.608-.576 4.056.183a29.327 29.327 0 0 0-3.2 5c-.011-.007-.148-.172-.403-.227-.105-.023-2.12-.438-4.165.603zM14 27.055c-1.047 1.004-3.504 1.533-5.057 1.75.226-1.489.778-3.843 1.825-4.847.587-.562 1.267-.988 1.95-1.228l2.564 2.456c-.25.655-.695 1.307-1.282 1.87zm3.473-2.265c-.22.054-.476-.025-.666-.207l-1.491-1.43-1.968-1.885c-.19-.182-.273-.427-.216-.637.244-.911.563-1.845.95-2.789l6.3 6.037a25.48 25.48 0 0 1-2.909.911zm10.97.386c-.999 1.787-3.512 3.104-5.802 3.558.73-1.317.892-2.993.625-4.01-.062-.235-.223-.354-.232-.368a31.081 31.081 0 0 0 5.217-3.067c.793 1.388.858 2.693.191 3.887zm1.716-7.412a27.233 27.233 0 0 1-2.196 1.889 29.5 29.5 0 0 1-6.073 3.607l-7.161-6.863a27.878 27.878 0 0 1 3.764-5.82 26.909 26.909 0 0 1 1.97-2.105c2.257-2.162 5.17-3.883 8.66-5.122l6.382 6.116c-1.293 3.344-3.089 6.135-5.346 8.298zm5.894-9.837l-5.324-5.103a35.565 35.565 0 0 1 6.684-1.303 31.616 31.616 0 0 1-1.36 6.406z"/><path d="M18.31 30.152a.785.785 0 0 0-1.077 0l-2.155 2.065a.709.709 0 0 0 0 1.032.785.785 0 0 0 1.078 0l2.154-2.065a.709.709 0 0 0 0-1.032zM7.537 19.829a.785.785 0 0 0-1.077 0l-2.155 2.064a.709.709 0 0 0 0 1.032.785.785 0 0 0 1.077 0l2.155-2.064a.709.709 0 0 0 0-1.032zm5.386 11.356a.786.786 0 0 0-1.077 0l-5.16 4.944a.709.709 0 0 0 0 1.032.785.785 0 0 0 1.077 0l5.16-4.944a.709.709 0 0 0 0-1.032zm-6.093 0a.785.785 0 0 0-1.077 0l-5.16 4.944a.709.709 0 0 0 0 1.032.785.785 0 0 0 1.077 0l5.16-4.944a.709.709 0 0 0 0-1.032zm-.37-6.195a.785.785 0 0 0-1.078 0L.223 29.935a.709.709 0 0 0 0 1.032.785.785 0 0 0 1.078 0l5.159-4.945a.709.709 0 0 0 0-1.032zm17.236-10.323a.785.785 0 0 0-1.078 0l-1.077 1.032a.709.709 0 0 0 0 1.032.785.785 0 0 0 1.078 0l1.077-1.032a.709.709 0 0 0 0-1.032z"/></g><defs><clipPath id="apa"><path d="M0 0h39v37.375H0z"/></clipPath></defs></symbol><symbol viewBox="0 0 512 512" id="loupe" xmlns="http://www.w3.org/2000/svg"><path d="M310 190c-5.52 0-10 4.48-10 10s4.48 10 10 10 10-4.48 10-10-4.48-10-10-10z"/><path d="M500.281 443.719l-133.48-133.48C388.546 277.485 400 239.555 400 200 400 89.72 310.28 0 200 0S0 89.72 0 200s89.72 200 200 200c39.556 0 77.486-11.455 110.239-33.198l36.895 36.895.016.016 96.568 96.568C451.276 507.838 461.319 512 472 512c10.681 0 20.724-4.162 28.278-11.716C507.837 492.731 512 482.687 512 472s-4.163-20.731-11.719-28.281zm-194.745-97.992l-.002.002C274.667 368.149 238.175 380 200 380c-99.252 0-180-80.748-180-180S100.748 20 200 20s180 80.748 180 180c0 38.175-11.851 74.667-34.272 105.535a180.872 180.872 0 0 1-40.192 40.192zm20.98 9.066a200.674 200.674 0 0 0 28.277-28.277l28.371 28.371a242.733 242.733 0 0 1-28.277 28.277l-28.371-28.371zm159.623 131.346c-3.78 3.78-8.801 5.861-14.139 5.861s-10.359-2.081-14.139-5.861l-88.795-88.795a262.775 262.775 0 0 0 28.277-28.277l88.798 88.798A19.846 19.846 0 0 1 492 472a19.856 19.856 0 0 1-5.861 14.139z"/><path d="M200 40c-88.225 0-160 71.775-160 160s71.775 160 160 160 160-71.775 160-160S288.225 40 200 40zm0 300c-77.196 0-140-62.804-140-140S122.804 60 200 60s140 62.804 140 140-62.804 140-140 140z"/><path d="M312.065 157.073c-8.611-22.412-23.604-41.574-43.36-55.413C248.479 87.49 224.721 80 200 80c-5.522 0-10 4.478-10 10s4.478 10 10 10c41.099 0 78.631 25.818 93.396 64.247a10.003 10.003 0 0 0 9.337 6.416 9.978 9.978 0 0 0 3.584-.668c5.155-1.981 7.729-7.766 5.748-12.922z"/></symbol><symbol viewBox="0 0 36 36" id="mail" xmlns="http://www.w3.org/2000/svg"><g clip-path="url(#ara)"><path d="M18 0C8.06 0 .002 8.059.002 18c0 9.94 8.059 18 18 18 9.94 0 18-8.06 18-18 0-9.941-8.06-18-18-18zm-.564 12.02H30.86c.092 0 .18.01.267.026l-7.518 4.322-6.355-4.33c.06-.008.12-.019.182-.019zM7.27 22.236V20.37h5.99l-.073.606-.013.112v.112c0 .362.06.71.167 1.037H7.27zm6.206-3.656h-8.23v-1.867h8.456l-.226 1.867zm.633-5.235l-.115.956H3.43v-1.867h10.846a3.313 3.313 0 0 0-.167.911zm15.817 9.317H16.503c-.402 0-.766-.163-1.03-.425a1.484 1.484 0 0 1-.175-.211l-.005-.006a1.485 1.485 0 0 1-.124-.227c-.003-.008-.008-.015-.012-.023a1.438 1.438 0 0 1-.073-.234c-.004-.014-.01-.027-.013-.041a1.473 1.473 0 0 1-.03-.296l.498-4.111.045-.376.391-3.232c0-.093.011-.182.028-.27.002-.009 0-.02.003-.029l.003.003c.042-.2.122-.385.235-.546v.706l6.93 4.696c.009.006.019.01.029.015.01.007.02.012.03.017.055.028.111.05.168.066l.018.003a.827.827 0 0 0 .19.024h.002a.82.82 0 0 0 .19-.024l.018-.003a.834.834 0 0 0 .168-.066c.01-.005.02-.01.03-.017l.03-.015 8.255-4.766c.01.068.02.135.02.206l-.933 7.72c0 .807-.655 1.462-1.463 1.462z"/></g><defs><clipPath id="ara"><path d="M0 0h36v36H0z"/></clipPath></defs></symbol><symbol viewBox="0 0 813 697" id="main-union" xmlns="http://www.w3.org/2000/svg"><path d="M654.588 139.836c31.948-13.225 60.847-33.609 84.737-59.769L812.202.264l.242-.264H813v697H0v-.849.123l.252-.123 153.401-75.136c43.394-21.255 76.186-61.225 90.119-109.846l1.819-6.348c18.535-64.678 72.512-111.471 135.682-118.769 62.511-7.222 115.702-54.023 133.158-118.295 13.48-49.636 47.938-89.747 93.191-108.48l46.966-19.441z"/><defs><linearGradient id="asa" x1="406.5" x2="406.5" y2="697" gradientUnits="userSpaceOnUse"><stop stop-color="#A852F1"/><stop offset="1" stop-color="#A63232"/></linearGradient></defs></symbol><symbol viewBox="0 0 18 32" id="mouse" xmlns="http://www.w3.org/2000/svg"><path d="M9.063 0c-2.48 0-4.61.875-6.391 2.625C.89 4.375 0 6.479 0 8.938v14.124c0 2.459.89 4.563 2.672 6.313C4.453 31.125 6.583 32 9.062 32c2.459 0 4.563-.875 6.313-2.625S18 25.521 18 23.062V8.938c0-2.458-.875-4.562-2.625-6.312S11.521 0 9.062 0zM16 23.063c0 1.916-.677 3.552-2.031 4.906C12.615 29.323 10.979 30 9.063 30c-1.938 0-3.6-.682-4.985-2.047C2.693 26.59 2 24.958 2 23.063V8.938c0-1.896.693-3.527 2.078-4.891C5.464 2.682 7.125 2 9.062 2c1.917 0 3.553.677 4.907 2.031S16 7.021 16 8.938v14.124zM9.016 6a.979.979 0 0 0-.72.297A.961.961 0 0 0 8 7v5c0 .27.099.505.297.703a.979.979 0 0 0 .719.297.928.928 0 0 0 .703-.297A.988.988 0 0 0 10 12V7a.988.988 0 0 0-.281-.703A.928.928 0 0 0 9.016 6z"/><defs><linearGradient id="ata" x1="9" x2="9" y2="32" gradientUnits="userSpaceOnUse"><stop stop-color="#BD47AA"/><stop offset="1" stop-color="#00B2FF"/></linearGradient></defs></symbol><symbol viewBox="0 0 512.001 512.001" id="online-support" xmlns="http://www.w3.org/2000/svg"><path d="M503.467 67.168a7.562 7.562 0 0 0-12.405-2.638l-35.73 35.73a2.592 2.592 0 0 1-3.66 0l-23.203-23.204a2.591 2.591 0 0 1 0-3.66l35.73-35.73a7.563 7.563 0 0 0-2.638-12.405c-26.862-10.302-57.353-3.825-77.679 16.501-18.895 18.895-25.839 46.718-18.373 72.138l-26.461 24.197a119.626 119.626 0 0 0-12.341-5.675l1.078-14.129c.563-7.36-4.504-13.832-11.784-15.055l-18.646-3.131c-7.283-1.222-14.182 3.24-16.055 10.378l-3.597 13.707c-3.963.162-7.919.521-11.842 1.075l-3.554-7.572v-17.191c0-.109-.01-.196-.013-.295-.005-.126-.006-.253-.017-.379-.004-.048-.012-.089-.018-.135a7.512 7.512 0 0 0-1.191-3.339 7.562 7.562 0 0 0-10.468-2.173c-8.046 5.28-27.211 8.523-37.409 8.523-24.983 0-49.047-8.926-69.477-25.223L119.87 51.782c4.561-6.826 9.71-12.71 15.363-17.52 23.68-20.15 51.514-19.141 51.772-19.125 17.593.908 34.274 8.877 49.582 23.682 13.639 13.193 23.823 31.989 30.269 55.865a7.557 7.557 0 0 0 9.269 5.328 7.56 7.56 0 0 0 5.328-9.269c-7.167-26.549-18.726-47.675-34.355-62.793C229.09 10.53 209.134 1.138 187.786.035c-1.369-.069-33.948-1.46-62.35 22.71-8.156 6.94-15.374 15.655-21.462 25.902l-.009.013-.03.051-.063.102-.012.024A90.662 90.662 0 0 0 92.053 78.34a90.772 90.772 0 0 0-1.348 28.37 7.567 7.567 0 0 0 3.185 5.374 7.553 7.553 0 0 0 6.14 1.143 95.318 95.318 0 0 0 5.615-1.57v46.707c0 26.335 13.077 49.66 33.065 63.867v12.471c0 6.148-3.293 11.784-8.71 15.738-.258.154-.51.323-.751.509-3.149 2.136-6.937 3.738-11.19 4.569l-34.903 6.834c-32.353 6.335-54.95 30.58-54.95 58.959V427.15c0 18.661 7.145 36.325 20.119 49.736l19.339 19.992h-56.4a7.56 7.56 0 0 0 0 15.12h344.574a7.56 7.56 0 0 0 0-15.12h-49.713l18.601-22.797c11.427-14.006 17.721-31.674 17.721-49.749v-75.624a121.49 121.49 0 0 0 12.676-8.341l11.5 8.319a14.154 14.154 0 0 0 8.32 2.713c3.957 0 7.871-1.67 10.673-4.889l12.417-14.258a14.1 14.1 0 0 0-.454-19.113l-9.799-10.227a119.733 119.733 0 0 0 6.874-14.563l14.13 1.079c7.369.553 13.832-4.505 15.054-11.784l3.131-18.647a14.102 14.102 0 0 0-10.378-16.054l-13.707-3.597a119.962 119.962 0 0 0-1.074-11.842l12.82-6.019a14.102 14.102 0 0 0 7.297-17.67l-6.459-17.769a14.082 14.082 0 0 0-14.683-9.257l12.62-13.991a72.84 72.84 0 0 0 73.563-17.954c20.324-20.323 26.801-50.814 16.499-77.676zm-241.162 91.194v-17.216c.192-.021.381-.023.573-.06a104.79 104.79 0 0 1 20.616-1.871h.067a7.56 7.56 0 0 0 7.312-5.641l4.832-18.414 16.938 2.845-1.449 18.983a7.562 7.562 0 0 0 5.131 7.742 104.52 104.52 0 0 1 10.765 4.303l-14.284 13.063a88.062 88.062 0 0 0-14.738-3.809 87.431 87.431 0 0 0-35.795 1.418c.005-.45.032-.893.032-1.343zm-2.042 17.697a72.213 72.213 0 0 1 39.488-2.03L232.01 235.98c-.031-.424-.069-.848-.069-1.278v-14.479c13.986-10.869 24.194-26.359 28.322-44.164zM111.454 93.156a7.5 7.5 0 0 0-2.643 1.204 76.736 76.736 0 0 1-3.526 1.436 75.7 75.7 0 0 1 1.57-14.383 75.465 75.465 0 0 1 4.678-14.696c4.869 5.967 10.064 11.464 15.544 16.458-5.554 4.469-10.293 7.222-12.454 8.384a75.681 75.681 0 0 1-3.169 1.597zm9.31 65.207v-52.959c.339-.176.682-.346 1.018-.526 2.891-1.553 9.644-5.488 17.214-11.95 22.044 16.124 47.617 24.899 74.193 24.899 8.156 0 22.653-1.71 33.943-5.299l.054 45.836c0 34.855-28.356 63.211-63.21 63.211s-63.212-28.357-63.212-63.212zm206.564 265.971h-.002a63.745 63.745 0 0 1-14.316 40.19l-11.878 14.558V358.997c0-11.968-8.686-21.939-20.085-23.956a15.975 15.975 0 0 1 5.9-10.659l7.984-6.409a7.559 7.559 0 0 0 1.163-10.627 7.558 7.558 0 0 0-10.627-1.163l-7.984 6.409c-6.839 5.49-10.965 13.426-11.582 22.07H146.259a7.56 7.56 0 0 0 0 15.12h130.538c5.082 0 9.217 4.135 9.217 9.216v131.788a6.1 6.1 0 0 1-6.093 6.093H90.731a6.048 6.048 0 0 1-2.607-.595l-2.986-3.087a6.068 6.068 0 0 1-.501-2.413V358.998c0-5.082 4.135-9.216 9.216-9.216h22.521a7.56 7.56 0 0 0 0-15.12h-14.999c-.617-8.645-4.744-16.581-11.582-22.07l-7.984-6.409a7.557 7.557 0 0 0-10.627 1.163 7.558 7.558 0 0 0 1.163 10.627l7.984 6.41c3.554 2.852 5.67 6.99 5.962 11.487-9.727 3.188-16.774 12.348-16.774 23.128V477.05l-10.326-10.675c-10.231-10.577-15.867-24.507-15.867-39.224V321.313c0-21.051 17.574-39.194 42.735-44.122l34.903-6.834c4.418-.865 8.528-2.302 12.246-4.202a85.851 85.851 0 0 0 14.472 8.954 7.56 7.56 0 0 0 10.112-3.473 7.559 7.559 0 0 0-3.473-10.111 70.71 70.71 0 0 1-8.699-5.06c5.202-6.107 8.209-13.652 8.209-21.763v-4.048a77.903 77.903 0 0 0 30.146 6.041 77.845 77.845 0 0 0 32.847-7.246v5.254c0 8.107 3.003 15.648 8.201 21.755a70.664 70.664 0 0 1-39.698 12.211c-2.89 0-5.799-.175-8.648-.522a7.557 7.557 0 0 0-8.418 6.591 7.559 7.559 0 0 0 6.591 8.418c3.451.42 6.975.633 10.474.633a85.774 85.774 0 0 0 52.096-17.643c3.725 1.905 7.84 3.347 12.267 4.213l34.903 6.834c4.954.97 9.609 2.46 13.899 4.376a7.58 7.58 0 0 0 1.011.461c16.921 7.936 27.825 22.706 27.825 39.284v103.02zM314.143 272.85l39.978-44.323a72.266 72.266 0 0 1 .775 27.956 72.154 72.154 0 0 1-19.473 38.425c-4.908-8.704-12.199-16.272-21.28-22.058zm87.409-80.822l5.868 16.142-17.22 8.083a7.559 7.559 0 0 0-4.211 8.271 104.637 104.637 0 0 1 1.87 20.616 7.56 7.56 0 0 0 5.641 7.379l18.414 4.832-2.845 16.939-18.983-1.449a7.563 7.563 0 0 0-7.742 5.131 104.514 104.514 0 0 1-10.401 22.035 7.558 7.558 0 0 0 .955 9.233l13.163 13.737-11.28 12.952-15.436-11.166a7.56 7.56 0 0 0-9.273.319 105.581 105.581 0 0 1-7.628 5.784v-9.553c0-3.785-.414-7.494-1.187-11.099a87.247 87.247 0 0 0 28.548-51.226 87.21 87.21 0 0 0-3.798-43.64l16.529-18.326c.2-.037.398-.075.597-.127l18.419-4.867zm74.723-57.872a57.746 57.746 0 0 1-62.295 12.804 7.562 7.562 0 0 0-8.416 1.958l-53.584 59.408c-.22.217-.427.445-.618.684l-51.302 56.878a80.765 80.765 0 0 0-12.564-3.534l-34.903-6.834c-4.252-.833-8.041-2.433-11.189-4.569a7.497 7.497 0 0 0-.753-.511 24.96 24.96 0 0 1-1.1-.866L379.329 121.75a7.562 7.562 0 0 0 1.982-8.22c-7.891-21.156-2.685-45.131 13.261-61.077 13.168-13.169 31.719-19.001 49.688-16.233l-26.482 26.483a17.59 17.59 0 0 0-5.187 12.521c0 4.731 1.842 9.177 5.187 12.521l23.203 23.204c6.905 6.905 18.139 6.905 25.043 0l26.482-26.482c2.77 17.967-3.064 36.521-16.231 49.689z"/><path d="M183.52 189.164c8.454 0 16.402-3.292 22.379-9.271a7.56 7.56 0 0 0-10.691-10.691 16.423 16.423 0 0 1-11.689 4.841 16.425 16.425 0 0 1-11.689-4.841 7.56 7.56 0 0 0-10.691 10.691c5.978 5.979 13.927 9.271 22.381 9.271z"/><circle cx="155.909" cy="128.118" r="7.844"/><circle cx="209.253" cy="128.118" r="7.844"/><path d="M185.325 397.395c-14.302 0-25.937 11.635-25.937 25.937 0 14.302 11.635 25.937 25.937 25.937s25.937-11.635 25.937-25.937c0-14.302-11.635-25.937-25.937-25.937zm0 36.752c-5.964 0-10.817-4.853-10.817-10.817s4.853-10.817 10.817-10.817 10.817 4.853 10.817 10.817c0 5.965-4.853 10.817-10.817 10.817z"/></symbol><symbol viewBox="0 0 238 190" id="portfolio-bg" xmlns="http://www.w3.org/2000/svg"><rect width="68.718" height="10.723" rx="5.362" transform="matrix(-.74732 -.66446 .67378 -.73893 53 56)"/><path d="M137.702 104.661c.905-2.75 4.795-2.75 5.7 0l4.229 12.852a3 3 0 0 0 2.85 2.063h13.604c2.916 0 4.118 3.738 1.749 5.437l-10.941 7.85a3 3 0 0 0-1.101 3.375l4.195 12.747c.907 2.758-2.24 5.068-4.599 3.376l-11.087-7.955a3 3 0 0 0-3.498 0l-11.087 7.955c-2.358 1.692-5.506-.618-4.598-3.376l4.194-12.747a2.999 2.999 0 0 0-1.101-3.375l-10.941-7.85c-2.369-1.699-1.166-5.437 1.749-5.437h13.605a3 3 0 0 0 2.849-2.063l4.229-12.852z"/><rect width="43.993" height="43.993" rx="9" transform="matrix(.71155 -.70264 .71155 .70264 0 130)"/><ellipse cx="140.515" cy="28.258" rx="20.515" ry="20.258"/></symbol><symbol viewBox="0 0 512 512" id="profits" xmlns="http://www.w3.org/2000/svg"><path d="M416 326c5.52 0 10-4.48 10-10s-4.48-10-10-10-10 4.48-10 10 4.48 10 10 10zm0 0"/><path d="M502 492h-16V216c0-5.523-4.477-10-10-10h-60c-5.523 0-10 4.477-10 10v60c0 5.523 4.477 10 10 10s10-4.477 10-10v-50h40v266h-40V356c0-5.523-4.477-10-10-10s-10 4.477-10 10v136h-40V296c0-5.523-4.477-10-10-10h-60c-5.523 0-10 4.477-10 10v196h-40V356c0-5.523-4.477-10-10-10h-60c-5.523 0-10 4.477-10 10v136h-40v-96c0-5.523-4.477-10-10-10H56c-5.523 0-10 4.477-10 10v96H20V10c0-5.523-4.477-10-10-10S0 4.477 0 10v492c0 5.523 4.477 10 10 10h492c5.523 0 10-4.477 10-10s-4.477-10-10-10zm-396 0H66v-86h40zm120 0h-40V366h40zm120 0h-40V306h40zm0 0"/><path d="M93.926 315.785a10.003 10.003 0 0 0-7.707 11.86c1.14 5.39 6.441 8.855 11.855 7.707 129.672-27.48 238.992-105.715 307.969-210.997l16.59 11.618c6.082 4.254 14.539.625 15.629-6.727l9.84-66.351a9.993 9.993 0 0 0-4.157-9.657 9.996 9.996 0 0 0-10.496-.601l-58.988 31.937c-6.527 3.531-7.063 12.727-.977 16.988l16.164 11.317C321.86 216.48 214.602 290.215 93.926 315.785zM425.383 79.746l-4.531 30.563-22.637-15.852zm0 0"/></symbol><symbol viewBox="0 0 87 87" id="rectangle" xmlns="http://www.w3.org/2000/svg"><rect y="58.538" width="65" height="65" rx="17" transform="rotate(-64.235 0 58.538)" fill-opacity=".19"/><defs><linearGradient id="axa" x1="59.724" y1="63.868" x2="6.337" y2="117.255" gradientUnits="userSpaceOnUse"><stop stop-color="red"/><stop offset=".456" stop-color="#8900FF"/><stop offset="1" stop-color="#00B2FF"/></linearGradient></defs></symbol><symbol viewBox="0 0 512 512" id="research" xmlns="http://www.w3.org/2000/svg"><path d="M394.668 0H32.001c-17.673 0-32 14.327-32 32v256c0 17.673 14.327 32 32 32h138.667v-21.333H32.001c-5.891 0-10.667-4.776-10.667-10.667V32c0-5.891 4.776-10.667 10.667-10.667h362.667c5.891 0 10.667 4.776 10.667 10.667v192h21.333V32c0-17.673-14.327-32-32-32z"/><path d="M128.001 309.333h21.333v64h-21.333zM74.668 256c-5.891 0-10.667-4.776-10.667-10.667V224H42.668v21.333c0 17.673 14.327 32 32 32h21.333V256H74.668zm-32-74.667h21.333v21.333H42.668zm347.168 44.608a115.894 115.894 0 0 0-81.961-33.952c-64.006.003-115.891 51.892-115.889 115.898.003 64.006 51.892 115.891 115.898 115.889a115.89 115.89 0 0 0 81.937-33.937c45.263-45.255 45.27-118.634.015-163.898zM307.82 402.453c-52.224-.018-94.546-42.368-94.528-94.592.018-52.224 42.368-94.546 94.592-94.528a93.87 93.87 0 0 1 66.869 27.733 94.564 94.564 0 0 1 27.659 66.859c-.018 52.224-42.368 94.546-94.592 94.528zM508.876 464l-66.955-66.933c-2-2-4.713-3.125-7.541-3.125a10.67 10.67 0 0 0-7.541 3.125l-29.76 29.76c-4.164 4.165-4.164 10.917 0 15.083l66.955 66.965c2 2.001 4.713 3.125 7.541 3.125a10.666 10.666 0 0 0 7.541-3.157l29.76-29.76c4.164-4.166 4.164-10.918 0-15.083zm-37.302 22.251l-51.872-51.883 14.677-14.677 51.872 51.883-14.677 14.677z"/><path d="M374.75 389.828l15.085-15.085 37.199 37.2-15.085 15.084zm-65.416-155.161V256c29.441.035 53.298 23.893 53.333 53.333H384c-.046-41.217-33.448-74.619-74.666-74.666zm-202.666 128h85.333V384h-85.333zm53.333-320c-17.673 0-32 14.327-32 32 0 17.673 14.327 32 32 32s32-14.327 32-32c0-17.673-14.327-32-32-32zm0 42.666c-5.891 0-10.667-4.776-10.667-10.667s4.776-10.667 10.667-10.667 10.667 4.776 10.667 10.667c0 5.892-4.776 10.667-10.667 10.667zm74.667 32c-17.673 0-32 14.327-32 32 0 17.673 14.327 32 32 32 17.673 0 32-14.327 32-32 0-17.673-14.327-32-32-32zm0 42.667c-5.891 0-10.667-4.776-10.667-10.667s4.776-10.667 10.667-10.667 10.667 4.776 10.667 10.667c-.001 5.891-4.776 10.667-10.667 10.667z"/><path d="M88.458 131.127l53.332-53.333 15.085 15.085-53.332 53.332zm74.621-38.221l15.084-15.084 53.333 53.332-15.085 15.085zm146.255-50.239c-17.673 0-32 14.327-32 32 0 17.673 14.327 32 32 32 17.673 0 32-14.327 32-32 .001-17.673-14.326-32-32-32zm0 42.666c-5.891 0-10.667-4.776-10.667-10.667s4.776-10.667 10.667-10.667 10.667 4.776 10.667 10.667c0 5.892-4.776 10.667-10.667 10.667z"/><path d="M237.786 131.164l53.332-53.332 15.085 15.084-53.333 53.333z"/></symbol><symbol viewBox="0 0 480 480" id="responsive" xmlns="http://www.w3.org/2000/svg"><path d="M456 232V56c0-22.056-17.944-40-40-40H64c-22.056 0-40 17.944-40 40v120c-13.232 0-24 10.768-24 24v240c0 13.232 10.768 24 24 24h176c13.232 0 24-10.768 24-24h67.048c7.544 0 14.496-3.44 19.072-9.432s6.064-13.608 4.08-20.88L298.472 352H344v88c0 13.232 10.768 24 24 24h88c13.232 0 24-10.768 24-24V256c0-13.232-10.768-24-24-24zM208 440c0 4.408-3.592 8-8 8H24c-4.408 0-8-3.592-8-8v-16h192v16zm0-32H16V232h192v176zm0-192H16v-16c0-4.408 3.592-8 8-8h176c4.408 0 8 3.592 8 8v16zm90.768 197.896c.664 2.424.168 4.96-1.36 6.96s-3.84 3.144-6.36 3.144H224v-16h73.16l1.608 5.896zM224 392v-40h57.888l10.912 40H224zm120-56H224v-48h120v48zm0-80v16H224v-72c0-13.232-10.768-24-24-24H40V56c0-13.232 10.768-24 24-24h352c13.232 0 24 10.768 24 24v176h-72c-13.232 0-24 10.768-24 24zm120 184c0 4.408-3.592 8-8 8h-88c-4.408 0-8-3.592-8-8v-16h104v16zm0-32H360V288h104v120zm0-136H360v-16c0-4.408 3.592-8 8-8h88c4.408 0 8 3.592 8 8v16z"/><path d="M42.34 346.335l32-32 11.314 11.313-32 32zm31.997 24.002l96.001-96 11.314 11.313-96.001 96zm15.999-71.991l47.997-47.997 11.314 11.313-47.998 47.998zm287.99 48.002l39.993-39.993 11.314 11.314-39.993 39.992zm15.997 32.034l39.993-39.993 11.314 11.314-39.993 39.993zM210.334 154.345l47.997-47.998 11.313 11.314-47.997 47.997zm72.004-16l47.997-47.998 11.314 11.314-47.997 47.997zm-48.006 48.009l32-32 11.314 11.313-32 32zm39.954-95.908l32.08-32.08L317.68 69.68l-32.08 32.08zM56 48h16v16H56zm32 0h16v16H88zm32 0h16v16h-16z"/></symbol><symbol viewBox="0 0 64 64" id="security" xmlns="http://www.w3.org/2000/svg"><g clip-path="url(#baa)"><path d="M56.235 12.958L32.181.141a1.195 1.195 0 0 0-1.139.007L7.654 12.965c-.384.21-.622.613-.622 1.05v16.743a34.666 34.666 0 0 0 20.779 31.728l3.246 1.414c.303.133.649.133.953.002l3.658-1.58A34.598 34.598 0 0 0 56.87 30.426v-16.41a1.2 1.2 0 0 0-.634-1.058zm-1.76 17.468A32.209 32.209 0 0 1 34.73 60.119l-.008.004-3.185 1.375-2.768-1.208A32.269 32.269 0 0 1 9.427 30.758V14.724L31.626 2.558l22.848 12.175v15.693z"/><path d="M22.79 29.981a1.198 1.198 0 0 0-1.82 1.555l6.325 7.408a1.197 1.197 0 0 0 1.666.152L43.693 27.11a1.197 1.197 0 1 0-1.511-1.858L28.357 36.5l-5.566-6.518z"/></g><defs><linearGradient id="bab" x1="31.951" x2="31.951" y2="64" gradientUnits="userSpaceOnUse"><stop stop-color="#9F2FFF"/><stop offset="1" stop-color="#25A6EF"/></linearGradient><linearGradient id="bac" x1="32.409" y1="24.983" x2="32.409" y2="39.364" gradientUnits="userSpaceOnUse"><stop stop-color="#9F2FFF"/><stop offset="1" stop-color="#25A6EF"/></linearGradient><clipPath id="baa"><path d="M0 0h64v64H0z"/></clipPath></defs></symbol><symbol viewBox="0 0 512 512" id="settings" xmlns="http://www.w3.org/2000/svg"><path d="M438.973 411.718c-14.598 0-26.475 11.876-26.475 26.475 0 14.598 11.876 26.474 26.475 26.474 14.598 0 26.474-11.876 26.474-26.474s-11.876-26.475-26.474-26.475zm-.001 37.259c-5.946 0-10.784-4.838-10.784-10.784 0-5.946 4.838-10.784 10.784-10.784 5.946 0 10.784 4.838 10.784 10.784s-4.838 10.784-10.784 10.784z"/><path d="M510.303 436.82c-.5-19.383-8.704-37.211-23.102-50.198L329.249 244.157l139.658-139.658a14.816 14.816 0 0 0 2.7-1.077L501.85 87.46c4.178-2.206 6.98-6.152 7.685-10.823.706-4.672-.805-9.268-4.146-12.612l-34.052-34.051c-3.342-3.341-7.935-4.852-12.611-4.146-4.671.705-8.616 3.507-10.823 7.686L431.94 63.755a14.882 14.882 0 0 0-1.099 2.723l-65.92 65.92a7.846 7.846 0 0 0 11.096 11.096l60.492-60.493 15.853 15.853-154.7 154.7-15.853-15.853 67.525-67.524a7.846 7.846 0 0 0-11.096-11.096l-48.994 48.994-53.322-48.094a120.384 120.384 0 0 0-28.625-124.725C173.706 1.665 123.314-9.04 78.916 7.987a7.844 7.844 0 0 0-2.738 12.873l61.592 61.593a9.586 9.586 0 0 1 2.827 6.822c0 2.577-1.004 5-2.827 6.823l-39.999 39.999a9.582 9.582 0 0 1-6.822 2.827c-2.577 0-5-1.003-6.823-2.827L22.533 74.504A7.847 7.847 0 0 0 9.66 77.242c-17.027 44.396-6.322 94.788 27.27 128.381 31.991 31.99 79.468 43.253 122.299 29.414l41.227 45.083a42.275 42.275 0 0 1-7.734 10.658c-11.884 11.884-29.695 15.628-45.38 9.54a7.842 7.842 0 0 0-8.388 1.765l-96.059 96.059c-26.004 26.005-26.004 68.317 0 94.32C55.494 505.063 72.243 512 90.058 512c17.814 0 34.564-6.937 47.161-19.534l96.059-96.058a7.847 7.847 0 0 0 1.765-8.388c-6.089-15.684-2.345-33.497 9.538-45.381 11.886-11.884 29.698-15.628 45.382-9.54a7.844 7.844 0 0 0 8.388-1.765l18.12-18.12c5.456-5.456 8.46-12.711 8.46-20.426 0-7.715-3.004-14.97-8.46-20.426l-7.713-7.713 9.383-9.383 158.552 143.007c11.172 10.077 17.539 23.911 17.926 38.951.387 15.04-5.259 29.183-15.898 39.821-10.588 10.59-24.695 16.226-39.636 15.903-14.971-.334-28.781-6.604-38.886-17.655L282.31 346.378a7.846 7.846 0 0 0-11.579 10.589l117.888 128.915c13.024 14.241 30.822 22.321 50.115 22.752.54.012 1.079.018 1.618.018 18.688 0 36.199-7.249 49.464-20.512 13.71-13.711 20.985-31.937 20.487-51.32zM446.149 70.45l15.019-28.454 32.199 32.199-28.454 15.019-18.764-18.764zM167.324 220.639a7.847 7.847 0 0 0-8.532-2.056c-38.363 14.31-81.845 4.868-110.768-24.052-26.262-26.263-36.438-64.337-27.471-99.815l52.477 52.477c4.787 4.786 11.15 7.421 17.918 7.421s13.131-2.635 17.917-7.421l39.999-39.999c4.786-4.787 7.421-11.15 7.421-17.918s-2.635-13.131-7.421-17.917L96.388 18.88c35.475-8.971 73.553 1.208 99.814 27.471 29.659 29.657 38.773 74.003 23.222 112.978a7.843 7.843 0 0 0 2.032 8.733l56.679 51.122-7.422 7.422-7.713-7.713c-5.456-5.456-12.711-8.46-20.426-8.46-7.715 0-14.97 3.004-20.426 8.46l-18.12 18.12a7.847 7.847 0 0 0-1.765 8.388c2.087 5.375 2.992 10.997 2.837 16.548l-37.776-41.31zm138.05 81.48l-14.682 14.683c-20.192-5.821-42.164-.299-57.205 14.741h-.001c-15.04 15.041-20.563 37.01-14.74 57.206l-92.622 92.62c-9.634 9.634-22.442 14.94-36.065 14.94s-26.433-5.306-36.065-14.94c-19.887-19.886-19.887-52.244 0-72.131l92.621-92.621c20.194 5.824 42.163.298 57.205-14.742 15.04-15.041 20.564-37.01 14.741-57.205l14.683-14.682c5.144-5.146 13.517-5.146 18.661 0l13.261 13.261 26.947 26.947 13.261 13.261c5.146 5.146 5.146 13.518 0 18.662z"/><path d="M162.326 346.249a7.848 7.848 0 0 0-11.096 0l-74.318 74.318a7.846 7.846 0 0 0 11.096 11.096l74.318-74.318a7.848 7.848 0 0 0 0-11.096zm27.459 27.459a7.848 7.848 0 0 0-11.096 0l-74.318 74.317a7.846 7.846 0 0 0 11.096 11.096l74.318-74.317a7.846 7.846 0 0 0 0-11.096z"/></symbol><symbol viewBox="0 0 58 58" id="software" xmlns="http://www.w3.org/2000/svg"><path d="M55.384 9.516H43.5a.85.85 0 1 0 0 1.699h11.884c.506 0 .917.41.917.917v32.717a.918.918 0 0 1-.917.917H2.616a.918.918 0 0 1-.917-.917V12.132c0-.506.411-.917.917-.917h18.667v1.7H4.248a.85.85 0 0 0-.85.849v22.448a.85.85 0 1 0 1.7 0V14.613h16.185v4.558l-3.638 1.738a.856.856 0 0 0-.483.767V35.53a.85.85 0 0 0 .483.767l10.989 5.25a.861.861 0 0 0 .732 0l6.178-2.951a.85.85 0 1 0-.733-1.534l-4.961 2.37v-11.97l9.289-4.438v11.973l-1.262.603a.85.85 0 0 0 .732 1.533l1.746-.834a.85.85 0 0 0 .483-.767V21.676a.855.855 0 0 0-.483-.767l-3.638-1.738v-4.558h16.185v27.754H5.098v-2.53a.85.85 0 1 0-1.7 0v3.38c0 .47.38.85.85.85h49.504c.47 0 .85-.38.85-.85V13.764a.85.85 0 0 0-.85-.85H36.717v-1.7h3.158a.85.85 0 1 0 0-1.698h-3.158v-1.7h7.618c.47 0 .85-.38.85-.85V4.953a2.553 2.553 0 0 0 1.7-2.403A2.552 2.552 0 0 0 44.334 0a2.552 2.552 0 0 0-2.548 2.549c0 1.107.71 2.052 1.699 2.403v1.165h-7.618a.85.85 0 0 0-.85.85v2.549H29.85V4.952a2.553 2.553 0 0 0 1.699-2.403A2.552 2.552 0 0 0 29 0a2.552 2.552 0 0 0-2.549 2.549c0 1.107.71 2.052 1.7 2.403v4.564h-5.17v-2.55a.85.85 0 0 0-.849-.849h-7.618V4.952a2.553 2.553 0 0 0 1.7-2.403A2.552 2.552 0 0 0 13.663 0a2.552 2.552 0 0 0-2.548 2.549c0 1.107.71 2.052 1.699 2.403v2.015c0 .47.38.85.85.85h7.618v1.699H2.616A2.619 2.619 0 0 0 0 12.132v32.717a2.619 2.619 0 0 0 2.616 2.616h18.42c-.329 3.116-2.39 4.936-3.04 5.437h-3.61a2.552 2.552 0 0 0-2.548 2.55A2.552 2.552 0 0 0 14.387 58h29.226a2.552 2.552 0 0 0 2.55-2.549 2.552 2.552 0 0 0-2.55-2.549h-3.608c-.64-.499-2.709-2.335-3.04-5.437h18.419A2.619 2.619 0 0 0 58 44.849V12.132a2.619 2.619 0 0 0-2.616-2.616zM44.335 1.699a.85.85 0 1 1-.001 1.701.85.85 0 0 1 .001-1.7zM29 1.7a.85.85 0 1 1-.002 1.701A.85.85 0 0 1 29 1.7zm-15.335 0a.85.85 0 1 1-.002 1.701.85.85 0 0 1 .002-1.7zm9.317 12.914h5.168v1.277l-5.168 2.47v-3.747zm15.035 7.063L29 25.983l-9.017-4.307L29 17.367l9.017 4.309zm-19.156 1.347l9.29 4.438v11.973l-9.29-4.438V23.023zm16.157-4.663l-5.168-2.47v-1.277h5.168v3.747zm0-7.145v1.7H29.85v-1.7h5.168zm-6.868 0v1.7h-5.168v-1.7h5.168zM44.463 55.45a.85.85 0 0 1-.85.85H14.387a.85.85 0 0 1 0-1.7h29.226a.85.85 0 0 1 .85.85zm-6.894-2.549H20.43c.996-1.163 2.101-2.976 2.313-5.437h12.512c.212 2.461 1.317 4.274 2.313 5.437z"/><defs><linearGradient id="bca" x1="29" x2="29" y2="58" gradientUnits="userSpaceOnUse"><stop stop-color="#9F2FFF"/><stop offset="1" stop-color="#25A6EF"/></linearGradient></defs></symbol><symbol viewBox="0 0 81 77" id="star" xmlns="http://www.w3.org/2000/svg"><path d="M31.426 5.24c4.37-6.376 13.778-6.376 18.148 0l6.172 9.006a11 11 0 0 0 5.963 4.332l10.473 3.087c7.413 2.186 10.32 11.134 5.608 17.26l-6.658 8.653a11 11 0 0 0-2.278 7.01l.3 10.914c.213 7.726-7.4 13.256-14.681 10.667L44.185 72.51a11 11 0 0 0-7.37 0l-10.288 3.658c-7.282 2.59-14.894-2.941-14.681-10.667l.3-10.914a11 11 0 0 0-2.278-7.01L3.21 38.924C-1.503 32.8 1.405 23.851 8.818 21.665l10.473-3.087a11 11 0 0 0 5.963-4.332l6.172-9.007z"/><defs><linearGradient id="bda" x1="40.5" y1="-8" x2="40.5" y2="91" gradientUnits="userSpaceOnUse"><stop stop-color="#FFB700" stop-opacity=".65"/><stop offset="1" stop-color="#FF6262" stop-opacity=".67"/></linearGradient></defs></symbol><symbol viewBox="0 0 65 64" id="startup" xmlns="http://www.w3.org/2000/svg"><g clip-path="url(#bea)"><path d="M34.107 30.419a1.284 1.284 0 0 0-1.796 0 1.237 1.237 0 0 0 0 1.767c.496.488 1.3.488 1.796 0a1.237 1.237 0 0 0 0-1.767zM50.265 14.509c-2.48-2.443-6.497-2.443-8.977 0a6.19 6.19 0 0 0 0 8.839c2.475 2.435 6.502 2.436 8.977 0a6.18 6.18 0 0 0 0-8.84zm-1.796 7.07a3.856 3.856 0 0 1-5.386.001 3.714 3.714 0 0 1 0-5.303 3.849 3.849 0 0 1 5.386 0 3.708 3.708 0 0 1 0 5.303z"/><path d="M64.628.366a1.276 1.276 0 0 0-.943-.365c-.287.01-7.122.28-15.246 3.108-6.51 2.263-11.937 5.504-16.129 9.631a47.866 47.866 0 0 0-2.728 2.925c-4.144-2.403-7.466-1.65-9.565-.543-4.835 2.547-7.827 9.464-7.827 14.412 0 .505.31.961.784 1.155a1.285 1.285 0 0 0 1.383-.271c2.55-2.51 5.695-2.354 6.722-2.22l.445.437a43.505 43.505 0 0 0-2.097 6.071 3.487 3.487 0 0 0 .154 2.171 12.026 12.026 0 0 0-3.429 2.38c-3.268 3.218-3.931 11.06-3.958 11.392-.03.365.105.724.368.982a1.28 1.28 0 0 0 .998.363c.337-.026 8.301-.68 11.57-3.898 1.026-1.01 1.853-2.171 2.416-3.374a3.64 3.64 0 0 0 2.206.15 45.149 45.149 0 0 0 6.165-2.064l.445.438c.135 1.011.294 4.107-2.255 6.618a1.236 1.236 0 0 0-.275 1.362c.196.467.66.771 1.173.771 5.024 0 12.05-2.946 14.637-7.706 1.123-2.067 1.888-5.337-.551-9.419a48.05 48.05 0 0 0 2.97-2.685c4.192-4.128 7.483-9.47 9.781-15.88 2.872-8 3.147-14.73 3.157-15.012a1.24 1.24 0 0 0-.371-.929zm-49.6 26.48c.789-3.759 3.08-7.882 6.187-9.52 2.077-1.094 4.347-.987 6.76.314a50.407 50.407 0 0 0-5.333 8.56c-.02-.01-.248-.294-.672-.388-.175-.039-3.534-.75-6.942 1.033zm8.306 19.483c-1.746 1.718-5.84 2.625-8.429 2.995.376-2.548 1.297-6.58 3.043-8.299.977-.962 2.11-1.692 3.25-2.103l4.272 4.206c-.417 1.122-1.158 2.238-2.136 3.2zm5.788-3.879c-.368.093-.793-.043-1.11-.354l-2.486-2.448-3.279-3.229c-.316-.312-.454-.73-.36-1.092.406-1.56.938-3.159 1.584-4.774L33.97 40.89a41.641 41.641 0 0 1-4.848 1.56zm18.281.661c-1.663 3.06-5.85 5.316-9.667 6.092 1.217-2.255 1.485-5.125 1.04-6.865-.103-.404-.37-.608-.386-.631a51.507 51.507 0 0 0 8.695-5.252c1.32 2.376 1.43 4.612.318 6.656zm2.863-12.692a45.84 45.84 0 0 1-3.662 3.234 48.906 48.906 0 0 1-10.12 6.177L24.548 28.078a47.9 47.9 0 0 1 6.273-9.965 45.606 45.606 0 0 1 3.285-3.605c3.761-3.703 8.615-6.65 14.431-8.772L59.175 16.21c-2.155 5.726-5.148 10.505-8.91 14.209zm9.822-16.846l-8.873-8.737c4.834-1.478 9.04-2.032 11.14-2.23-.203 2.067-.765 6.208-2.267 10.967z"/><path d="M30.516 51.631a1.284 1.284 0 0 0-1.796 0l-3.59 3.536a1.237 1.237 0 0 0 0 1.768c.496.488 1.3.488 1.796 0l3.59-3.536a1.237 1.237 0 0 0 0-1.768zM12.563 33.954a1.284 1.284 0 0 0-1.796 0l-3.591 3.535a1.236 1.236 0 0 0 0 1.767 1.282 1.282 0 0 0 1.795 0l3.591-3.534a1.236 1.236 0 0 0 0-1.768zM21.54 53.4a1.284 1.284 0 0 0-1.796 0l-8.6 8.466a1.237 1.237 0 0 0 0 1.768c.495.488 1.3.488 1.795 0l8.6-8.466a1.236 1.236 0 0 0 0-1.768zM11.383 53.4a1.284 1.284 0 0 0-1.795 0l-8.6 8.466a1.236 1.236 0 0 0 0 1.768c.495.488 1.3.488 1.795 0l8.6-8.466a1.236 1.236 0 0 0 0-1.768zM10.766 42.792a1.284 1.284 0 0 0-1.796 0L.372 51.26a1.237 1.237 0 0 0 0 1.768c.496.488 1.3.488 1.795 0l8.599-8.468a1.237 1.237 0 0 0 0-1.768zM39.493 25.115a1.284 1.284 0 0 0-1.796 0l-1.795 1.767a1.237 1.237 0 0 0 0 1.768c.496.488 1.3.488 1.796 0l1.795-1.767a1.237 1.237 0 0 0 0-1.768z"/></g><defs><linearGradient id="beb" x1="33.209" y1="30.052" x2="33.209" y2="32.552" gradientUnits="userSpaceOnUse"><stop stop-color="#9F2FFF"/><stop offset="1" stop-color="#10A4F7"/></linearGradient><linearGradient id="bec" x1="45.779" y1="12.677" x2="45.779" y2="25.175" gradientUnits="userSpaceOnUse"><stop stop-color="#9F2FFF"/><stop offset="1" stop-color="#10A4F7"/></linearGradient><linearGradient id="bed" x1="38.595" x2="38.595" y2="51.998" gradientUnits="userSpaceOnUse"><stop stop-color="#9F2FFF"/><stop offset="1" stop-color="#10A4F7"/></linearGradient><linearGradient id="bee" x1="27.823" y1="51.265" x2="27.823" y2="57.301" gradientUnits="userSpaceOnUse"><stop stop-color="#9F2FFF"/><stop offset="1" stop-color="#10A4F7"/></linearGradient><linearGradient id="bef" x1="9.869" y1="33.588" x2="9.869" y2="39.623" gradientUnits="userSpaceOnUse"><stop stop-color="#9F2FFF"/><stop offset="1" stop-color="#10A4F7"/></linearGradient><linearGradient id="beg" x1="16.342" y1="53.034" x2="16.342" y2="64" gradientUnits="userSpaceOnUse"><stop stop-color="#9F2FFF"/><stop offset="1" stop-color="#10A4F7"/></linearGradient><linearGradient id="beh" x1="6.185" y1="53.034" x2="6.185" y2="64" gradientUnits="userSpaceOnUse"><stop stop-color="#9F2FFF"/><stop offset="1" stop-color="#10A4F7"/></linearGradient><linearGradient id="bei" x1="5.569" y1="42.426" x2="5.569" y2="53.394" gradientUnits="userSpaceOnUse"><stop stop-color="#9F2FFF"/><stop offset="1" stop-color="#10A4F7"/></linearGradient><linearGradient id="bej" x1="37.698" y1="24.749" x2="37.698" y2="29.016" gradientUnits="userSpaceOnUse"><stop stop-color="#9F2FFF"/><stop offset="1" stop-color="#10A4F7"/></linearGradient><clipPath id="bea"><path d="M0 0h65v64H0z"/></clipPath></defs></symbol><symbol viewBox="0 0 511.999 511.999" id="startup(1)" xmlns="http://www.w3.org/2000/svg"><circle cx="10.06" cy="500.446" r="10.06"/><circle cx="267.005" cy="245.308" r="10.04"/><path d="M398.479 118.032c-8.071-8.072-18.802-12.516-30.216-12.516-11.414 0-22.146 4.446-30.216 12.516-16.661 16.662-16.661 43.772 0 60.433 8.332 8.331 19.272 12.495 30.216 12.495 10.941 0 21.886-4.166 30.216-12.495 16.661-16.662 16.661-43.772 0-60.433zm-14.197 46.234c-8.833 8.832-23.206 8.832-32.037 0-8.833-8.832-8.833-23.204 0-32.037a22.503 22.503 0 0 1 16.018-6.635 22.503 22.503 0 0 1 16.018 6.635c8.833 8.833 8.833 23.205.001 32.037zM125.409 411.45c-4.964-2.472-10.99-.451-13.462 4.512l-11.958 24.015c-5.2 10.441-15.658 17.423-27.296 18.219l-13.908.952c-2.351.157-3.897-1.014-4.612-1.729s-1.889-2.264-1.729-4.613l.952-13.907c.797-11.637 7.779-22.096 18.219-27.296l24.014-11.958c4.964-2.472 6.984-8.499 4.512-13.462-2.471-4.963-8.498-6.984-13.462-4.512l-24.014 11.958c-16.792 8.362-28.02 25.182-29.302 43.898l-.952 13.907a26.021 26.021 0 0 0 7.562 20.183 26.024 26.024 0 0 0 20.183 7.563l13.908-.952c18.716-1.281 35.536-12.508 43.898-29.302l11.958-24.014c2.472-4.964.452-10.99-4.511-13.462z"/><path d="M505.07 8.18a23.246 23.246 0 0 0-17.793-6.639l-9.348.596c-83.819 5.351-162.262 45.81-215.215 111.004L240.71 140.23l-57.583-1.691a9.65 9.65 0 0 0-.294-.004c-45.668 0-88.603 17.784-120.896 50.076L2.959 247.59a10.04 10.04 0 0 0 6.584 17.125l124.844 6.414-5.09 6.267a10.039 10.039 0 0 0-1.026 11.127 233.734 233.734 0 0 0 6.144 10.617l-29.606 35.147a10.045 10.045 0 0 0-1.397 10.763c6.467 13.665 15.05 25.943 25.514 36.493 10.718 10.808 23.251 19.646 37.249 26.271a10.042 10.042 0 0 0 10.62-1.278c6.378-5.174 13.731-11.311 20.843-17.245 5.069-4.23 10.255-8.557 15.102-12.547a232.586 232.586 0 0 0 8.795 5.046 10.026 10.026 0 0 0 4.796 1.221c2.186 0 4.358-.712 6.156-2.108l6.843-5.31 6.442 125.37a10.041 10.041 0 0 0 10.023 9.526c2.615 0 5.183-1.023 7.101-2.942l58.979-58.979c32.293-32.293 50.076-75.227 50.076-120.896v-54.995l23.267-18.055c69.729-54.11 112.196-135.704 116.512-223.862l.239-4.886A23.262 23.262 0 0 0 505.07 8.18zM33.123 245.822l43.012-43.012c28.465-28.465 66.303-44.157 106.553-44.196l42.085 1.236-74.71 91.98-116.94-6.008zm151.651 128.052c-5.241 4.372-10.614 8.856-15.6 12.957-9.644-5.223-18.368-11.74-25.992-19.428-7.384-7.445-13.669-15.922-18.737-25.26l21.676-25.733a232.758 232.758 0 0 0 21.478 24.925l.018.017.006.007.009.008a232.765 232.765 0 0 0 27.641 23.761c-3.462 2.874-7.009 5.834-10.499 8.746zm167.101-46.202c0 40.305-15.695 78.197-44.196 106.698l-43.012 43.012-6.002-116.792 93.209-72.33v39.412zM491.678 29.779c-4.029 82.297-43.673 158.467-108.767 208.98l-157.46 122.189c-13.058-7.63-25.229-16.639-36.368-26.846l53.086-53.086c3.92-3.92 3.92-10.278 0-14.199-3.921-3.921-10.278-3.921-14.199 0l-53.036 53.036c-9.751-10.795-18.387-22.541-25.74-35.104L278.3 125.8c49.432-60.859 122.66-98.629 200.907-103.623l9.348-.596a3.151 3.151 0 0 1 2.423.904c.377.371 1 1.178.94 2.409l-.24 4.885z"/></symbol><symbol viewBox="0 0 59 58" id="success" xmlns="http://www.w3.org/2000/svg"><g clip-path="url(#bga)"><path d="M29.304 0l-.03.001h.002-.011a.896.896 0 0 0-.07.006c-3.934.057-7.143 3.177-7.352 7.074-.94.314-1.856.686-2.748 1.117a7.466 7.466 0 0 0-4.908-1.858c-4.12 0-7.482 3.361-7.482 7.481v.001A7.467 7.467 0 0 0 8.5 18.653a23.13 23.13 0 0 0-1.184 2.814C3.272 21.556 0 24.875 0 28.94c0 4.055 3.258 7.368 7.289 7.471.349 1.029.769 2.03 1.258 3a7.465 7.465 0 0 0-1.842 4.89c0 4.12 3.361 7.48 7.481 7.481h.002a7.466 7.466 0 0 0 4.997-1.942 23.07 23.07 0 0 0 2.783 1.12c.23 3.915 3.487 7.04 7.458 7.04 4.031 0 7.327-3.22 7.468-7.217.89-.314 1.758-.681 2.603-1.101a7.466 7.466 0 0 0 5.168 2.1h.002c4.12 0 7.48-3.36 7.48-7.48V44.3a7.465 7.465 0 0 0-2.154-5.227c.402-.825.755-1.672 1.056-2.54 4.044-.089 7.316-3.407 7.316-7.472 0-4.055-3.257-7.368-7.288-7.471a23.148 23.148 0 0 0-1.116-2.724c1.836-2.159 2.285-4.753 1.307-7.379a.899.899 0 0 0-1.607-.16c-.118.19-.158.336-.183.413a.9.9 0 0 0-.006.541c.394 1.298.52 2.304.343 3.145-.177.841-.641 1.602-1.701 2.478l.004-.003c-.37.303-.48.84-.257 1.263v.001a21.112 21.112 0 0 1 1.53 3.75v.001c.137.456.586.762 1.06.723h.002a5.427 5.427 0 0 1 5.874 5.422 5.427 5.427 0 0 1-5.439 5.442 5.482 5.482 0 0 1-.446-.022 1.028 1.028 0 0 0-1.068.714v-.001a21.133 21.133 0 0 1-1.512 3.637l-.001.002a1.03 1.03 0 0 0 .257 1.265 5.44 5.44 0 0 1 1.99 4.204 5.427 5.427 0 0 1-5.44 5.441 5.44 5.44 0 0 1-4.166-1.948l-.001-.001a1.028 1.028 0 0 0-1.264-.24 21.128 21.128 0 0 1-3.672 1.555l-.003.001c-.444.142-.74.58-.706 1.045v-.003a5.426 5.426 0 0 1-5.43 5.809 5.426 5.426 0 0 1-5.442-5.434c.002-.068.006-.138.012-.212a1.028 1.028 0 0 0-.73-1.053h-.001c-1.32-.387-2.6-.902-3.82-1.537l-.002-.001a1.027 1.027 0 0 0-1.227.224 5.44 5.44 0 0 1-4.03 1.795 5.427 5.427 0 0 1-5.442-5.441V44.3a5.44 5.44 0 0 1 1.72-3.966c.333-.314.414-.824.196-1.226l-.001-.003a21.124 21.124 0 0 1-1.685-4.021 1.028 1.028 0 0 0-1.061-.723H7.91a5.426 5.426 0 0 1-5.873-5.423 5.427 5.427 0 0 1 5.44-5.442c.147.001.296.009.445.022.475.044.927-.259 1.068-.714v-.001a21.13 21.13 0 0 1 1.614-3.848 1.027 1.027 0 0 0-.189-1.22 5.442 5.442 0 0 1-1.672-3.916 5.426 5.426 0 0 1 5.44-5.441 5.44 5.44 0 0 1 3.969 1.722l-.003-.003a1.027 1.027 0 0 0 1.22.21 21.124 21.124 0 0 1 3.77-1.53c.452-.133.76-.57.731-1.04a5.488 5.488 0 0 1-.01-.26 5.427 5.427 0 0 1 5.443-5.44 5.428 5.428 0 0 1 5.442 5.438c-.002.1-.007.2-.015.299-.036.47.265.914.715 1.054h-.002c1.315.408 2.586.944 3.796 1.6.42.228.957.127 1.265-.238l-.087.09c1.565-1.404 2.029-1.68 3.665-2.036a.9.9 0 0 0 .708-.879v-.24a.898.898 0 0 0-1.073-.882c-1.787.351-3.097 1.042-4.187 2.072a23.137 23.137 0 0 0-2.76-1.165C36.593 3.184 33.312 0 29.304 0zm17.193 6.583a.9.9 0 0 0-.21 1.774c.891.215 1.245.388 1.427.533.181.144.323.378.67.9a.899.899 0 0 0 1.597-.796c-.405-1.16-1.553-2.224-3.395-2.407a.898.898 0 0 0-.09-.004z"/><path d="M40.315 20.48a1.02 1.02 0 0 0-.7.309l-13.85 13.849-7.014-7.014a1.018 1.018 0 0 0-1.747.719 1.02 1.02 0 0 0 .306.723l8.455 8.454 15.29-15.29a1.02 1.02 0 0 0-.74-1.75z"/></g><defs><linearGradient id="bgb" x1="29.183" x2="29.183" y2="58" gradientUnits="userSpaceOnUse"><stop stop-color="#9F2FFF"/><stop offset="1" stop-color="#10A4F7"/></linearGradient><linearGradient id="bgc" x1="29.184" y1="20.479" x2="29.184" y2="37.52" gradientUnits="userSpaceOnUse"><stop stop-color="#9F2FFF"/><stop offset="1" stop-color="#10A4F7"/></linearGradient><clipPath id="bga"><path d="M0 0h58.365v58H0z"/></clipPath></defs></symbol><symbol viewBox="0 0 512 512" id="support" xmlns="http://www.w3.org/2000/svg"><path d="M90.05 395.95c-7.167 0-14.058 1.788-20.171 5.148C37.676 359.816 20 308.535 20 256 20 125.867 125.867 20 256 20c15.82 0 31.633 1.574 47 4.68 5.406 1.093 10.688-2.407 11.781-7.82s-2.406-10.688-7.82-11.786C290.293 1.707 273.148 0 256 0 187.621 0 123.332 26.629 74.98 74.98 26.63 123.332 0 187.621 0 256c0 57.52 19.531 113.652 55.09 158.652-4.578 6.84-7.04 14.88-7.04 23.297 0 11.219 4.372 21.766 12.305 29.696 7.93 7.933 18.477 12.304 29.696 12.304s21.765-4.37 29.699-12.304c7.934-7.93 12.3-18.48 12.3-29.7 0-11.215-4.366-21.765-12.3-29.695-7.934-7.934-18.48-12.3-29.7-12.3zm15.555 57.554c-4.152 4.156-9.68 6.445-15.554 6.445s-11.399-2.289-15.555-6.445-6.445-9.68-6.445-15.555a21.855 21.855 0 0 1 6.445-15.558c4.152-4.157 9.68-6.442 15.555-6.442s11.398 2.29 15.554 6.442a21.856 21.856 0 0 1 6.446 15.558c0 5.875-2.29 11.399-6.446 15.555zM456.902 97.336c10.871-16.309 9.125-38.606-5.254-52.984-7.933-7.93-18.48-12.301-29.699-12.301s-21.765 4.37-29.699 12.3c-7.934 7.934-12.3 18.481-12.3 29.7s4.366 21.765 12.3 29.699 18.48 12.3 29.7 12.3c7.167 0 14.058-1.788 20.171-5.148C474.324 152.187 492 203.465 492 256c0 130.133-105.867 236-236 236-15.664 0-31.328-1.543-46.55-4.59-5.415-1.082-10.684 2.43-11.77 7.844-1.082 5.418 2.43 10.683 7.843 11.77A258.08 258.08 0 0 0 256 512c68.379 0 132.668-26.629 181.02-74.98C485.37 388.668 512 324.379 512 256c0-57.523-19.535-113.66-55.098-158.664zm-50.507-7.727a21.856 21.856 0 0 1-6.446-15.558c0-5.875 2.29-11.399 6.446-15.555 4.152-4.156 9.68-6.445 15.554-6.445s11.403 2.289 15.559 6.445c8.574 8.578 8.574 22.535 0 31.113a21.875 21.875 0 0 1-15.559 6.442 21.853 21.853 0 0 1-15.554-6.442zm0 0"/><path d="M214.734 428c0 5.523 4.48 10 10 10h62.528c5.523 0 10-4.477 10-10v-19.387a156.596 156.596 0 0 0 37.531-15.554l13.687 13.687a9.994 9.994 0 0 0 14.145-.004l44.195-44.226c3.903-3.907 3.903-10.239 0-14.141l-13.672-13.672a156.596 156.596 0 0 0 15.555-37.531h19.313c5.523 0 10-4.477 10-10v-62.527c0-5.524-4.477-10-10-10h-19.317a156.623 156.623 0 0 0-15.55-37.528l13.597-13.597a10.009 10.009 0 0 0 2.93-7.075 10.029 10.029 0 0 0-2.934-7.074l-44.23-44.195c-3.903-3.903-10.235-3.903-14.14.004l-13.579 13.582a156.596 156.596 0 0 0-37.531-15.555V84c0-5.523-4.477-10-10-10h-62.528c-5.52 0-10 4.477-10 10v19.21a156.464 156.464 0 0 0-37.527 15.552l-13.582-13.582c-3.902-3.903-10.234-3.907-14.14-.004l-44.227 44.199a9.987 9.987 0 0 0-2.934 7.07c0 2.653 1.055 5.2 2.93 7.075l13.598 13.597a156.568 156.568 0 0 0-15.555 37.528H84.02c-5.524 0-10 4.476-10 9.996l-.036 62.527c-.004 2.652 1.051 5.2 2.926 7.074s4.418 2.93 7.074 2.93h19.313a156.596 156.596 0 0 0 15.555 37.531l-13.672 13.672c-3.903 3.902-3.907 10.234 0 14.14l44.195 44.227a10.003 10.003 0 0 0 7.07 2.934h.004a10 10 0 0 0 7.07-2.93l13.684-13.687a156.728 156.728 0 0 0 37.531 15.554zm-33.609-55.973a10.003 10.003 0 0 0-12.5 1.328l-12.176 12.176-30.058-30.082 12.164-12.168a9.997 9.997 0 0 0 1.328-12.496c-9.067-14.031-15.442-29.41-18.942-45.715a10.003 10.003 0 0 0-9.777-7.898H93.988l.024-42.527h17.152a9.999 9.999 0 0 0 9.777-7.899c3.5-16.3 9.875-31.68 18.942-45.71a9.997 9.997 0 0 0-1.328-12.497l-12.086-12.09 30.082-30.058 12.074 12.078a10.007 10.007 0 0 0 12.5 1.328 136.809 136.809 0 0 1 45.71-18.942 10.006 10.006 0 0 0 7.9-9.777V94h42.527v17.074a9.996 9.996 0 0 0 7.898 9.778 136.936 136.936 0 0 1 45.711 18.941 9.992 9.992 0 0 0 12.496-1.328l12.078-12.074 30.082 30.058-12.086 12.086a9.998 9.998 0 0 0-1.328 12.5 136.97 136.97 0 0 1 18.942 45.711 9.996 9.996 0 0 0 9.777 7.899h17.184v42.527h-17.184a10.003 10.003 0 0 0-9.777 7.898 136.855 136.855 0 0 1-18.942 45.711 10.002 10.002 0 0 0 1.328 12.5l12.164 12.164-30.058 30.082-12.176-12.172a9.998 9.998 0 0 0-12.5-1.328 136.97 136.97 0 0 1-45.71 18.942 9.999 9.999 0 0 0-7.9 9.777V418h-42.527v-17.254c0-4.71-3.293-8.785-7.898-9.777-16.3-3.5-31.68-9.875-45.711-18.942zm0 0"/><path d="M338.629 256c0-45.563-37.067-82.629-82.629-82.629S173.371 210.437 173.371 256s37.066 82.629 82.629 82.629 82.629-37.066 82.629-82.629zm-145.258 0c0-34.535 28.094-62.629 62.629-62.629S318.629 221.47 318.629 256 290.535 318.629 256 318.629 193.371 290.535 193.371 256zM348.078 37.82c2.633 0 5.211-1.07 7.07-2.93a10.121 10.121 0 0 0 2.93-7.081c0-2.618-1.066-5.2-2.93-7.07a10.073 10.073 0 0 0-7.07-2.93 10.05 10.05 0 0 0-7.066 2.93 10.087 10.087 0 0 0-2.934 7.07c0 2.64 1.07 5.21 2.934 7.082a10.05 10.05 0 0 0 7.066 2.93zM164.36 474.36a10.08 10.08 0 0 0-7.07 2.93 10.08 10.08 0 0 0-2.93 7.07c0 2.64 1.07 5.21 2.93 7.07 1.858 1.86 4.44 2.93 7.07 2.93s5.21-1.07 7.07-2.93c1.86-1.86 2.93-4.442 2.93-7.07s-1.07-5.212-2.93-7.07a10.08 10.08 0 0 0-7.07-2.93zm0 0"/></symbol><symbol viewBox="0 0 36 36" id="telegram" xmlns="http://www.w3.org/2000/svg"><path d="M18 36c9.941 0 18-8.059 18-18S27.941 0 18 0 0 8.059 0 18s8.059 18 18 18z"/><path d="M8.237 17.61l17.355-6.691c.805-.291 1.509.196 1.248 1.414l.001-.001-2.955 13.921c-.219.987-.805 1.227-1.626.762l-4.5-3.316-2.17 2.09c-.24.24-.443.443-.908.443l.32-4.58 8.34-7.534c.363-.32-.081-.5-.56-.181l-10.306 6.489-4.443-1.386c-.965-.306-.986-.965.204-1.43z"/></symbol><symbol viewBox="0 0 16 16" id="telegram-footer" xmlns="http://www.w3.org/2000/svg"><path d="M8 16c4.42 0 8-3.58 8-8s-3.58-8-8-8-8 3.58-8 8 3.58 8 8 8zM3.66 7.827l7.714-2.974c.358-.13.67.087.555.628l-1.313 6.187c-.097.439-.358.545-.723.339l-2-1.474-.964.929c-.107.107-.197.197-.404.197l.142-2.036 3.707-3.348c.161-.142-.036-.222-.249-.081l-4.58 2.884-1.975-.616c-.429-.136-.438-.429.09-.635z"/></symbol><symbol viewBox="0 0 84 84" id="triangle" xmlns="http://www.w3.org/2000/svg"><path d="M50.571 19.396c14.541-3.8 26.5 11.754 19.09 24.83L57.647 65.421c-5.024 8.866-16.667 11.35-24.872 5.306L14.682 57.4c-11.512-8.48-8.05-26.52 5.783-30.135l30.106-7.869z"/></symbol><symbol viewBox="0 0 36 36" id="vk" xmlns="http://www.w3.org/2000/svg"><path d="M18 36c9.941 0 18-8.059 18-18S27.941 0 18 0 0 8.059 0 18s8.059 18 18 18z"/><path fill-rule="evenodd" clip-rule="evenodd" d="M17.32 25.895h1.413s.427-.047.645-.282c.2-.216.194-.62.194-.62s-.028-1.896.852-2.175c.867-.275 1.98 1.832 3.161 2.642.893.613 1.571.479 1.571.479l3.157-.044s1.65-.102.868-1.4c-.064-.106-.456-.96-2.347-2.716-1.979-1.837-1.714-1.54.67-4.717 1.452-1.935 2.032-3.117 1.851-3.623-.173-.482-1.24-.354-1.24-.354l-3.554.022s-.264-.036-.46.08c-.19.115-.313.382-.313.382s-.563 1.498-1.313 2.771c-1.582 2.688-2.215 2.83-2.474 2.663-.601-.39-.451-1.563-.451-2.396 0-2.605.395-3.69-.77-3.971-.386-.094-.67-.155-1.658-.165-1.268-.014-2.341.003-2.949.301-.404.198-.716.64-.526.665.235.031.767.143 1.049.527.364.496.351 1.608.351 1.608s.21 3.066-.489 3.447c-.479.261-1.136-.272-2.547-2.71a22.654 22.654 0 0 1-1.268-2.63s-.106-.257-.293-.395a1.473 1.473 0 0 0-.546-.22l-3.378.021s-.507.014-.693.235c-.165.196-.013.602-.013.602s2.644 6.185 5.638 9.302c2.745 2.858 5.862 2.67 5.862 2.67z"/></symbol><symbol viewBox="0 0 16 16" id="vk-footer" xmlns="http://www.w3.org/2000/svg"><path d="M8 0a8 8 0 1 0 0 16A8 8 0 0 0 8 0zm4.058 8.865c.373.364.767.707 1.102 1.109.148.178.288.362.395.568.152.295.014.618-.25.636h-1.639c-.423.035-.76-.136-1.044-.426-.226-.23-.437-.477-.655-.715a1.533 1.533 0 0 0-.295-.263c-.224-.145-.418-.1-.546.133-.13.238-.16.5-.172.765-.018.387-.135.488-.523.506-.828.038-1.614-.087-2.345-.505-.645-.368-1.143-.888-1.578-1.477C3.66 8.048 3.013 6.788 2.43 5.493c-.13-.292-.035-.448.287-.455a45.59 45.59 0 0 1 1.605 0c.218.003.362.128.445.333.29.712.644 1.388 1.088 2.016.118.167.239.334.41.452.19.13.336.087.425-.125.057-.135.082-.279.094-.423a6.317 6.317 0 0 0-.026-1.482c-.045-.308-.219-.507-.526-.565-.156-.03-.134-.088-.057-.177.132-.155.255-.25.503-.25H8.53c.291.057.357.188.396.482l.002 2.058c-.003.113.057.45.261.525.164.054.272-.077.37-.18.444-.472.76-1.028 1.044-1.604.125-.254.233-.517.338-.78.077-.194.199-.29.418-.287l1.783.002c.053 0 .106 0 .158.01.3.051.383.18.29.474-.146.46-.43.844-.708 1.229-.298.411-.616.809-.91 1.222-.272.379-.25.569.086.897z"/></symbol><symbol viewBox="0 0 58 58" id="web-programming" xmlns="http://www.w3.org/2000/svg"><path d="M22.884 40.646a.954.954 0 0 1-.62-.23l-6.196-5.275a.957.957 0 0 1 0-1.459l6.196-5.276a.957.957 0 1 1 1.241 1.458l-5.34 4.547 5.34 4.548a.958.958 0 0 1-.621 1.687zM35.116 40.646a.958.958 0 0 1-.621-1.687l5.34-4.548-5.34-4.547a.958.958 0 0 1 1.24-1.458l6.197 5.276a.957.957 0 0 1 0 1.459l-6.196 5.276a.954.954 0 0 1-.62.229zM26.806 44.603a.958.958 0 0 1-.938-1.155l3.862-18.335a.958.958 0 0 1 1.874.395l-3.862 18.335a.958.958 0 0 1-.936.76z"/><path d="M51.57 54.592H6.43A6.437 6.437 0 0 1 0 48.162V9.85a6.437 6.437 0 0 1 6.43-6.43h45.14A6.437 6.437 0 0 1 58 9.85v38.314a6.437 6.437 0 0 1-6.43 6.43zM6.43 5.335a4.52 4.52 0 0 0-4.515 4.514v38.314a4.52 4.52 0 0 0 4.514 4.514h45.142a4.52 4.52 0 0 0 4.514-4.514V9.849a4.52 4.52 0 0 0-4.514-4.514H6.429z"/><path d="M57.042 18.753H.958a.957.957 0 1 1 0-1.915h56.084a.958.958 0 0 1 0 1.915zM16.36 14.17a3.034 3.034 0 0 1-3.03-3.03c0-1.67 1.36-3.03 3.03-3.03 1.672 0 3.03 1.36 3.03 3.03a3.032 3.032 0 0 1-3.03 3.03zm0-4.145a1.117 1.117 0 0 0 0 2.23 1.116 1.116 0 0 0 0-2.23zM7.05 14.141a3.034 3.034 0 0 1-3.03-3.03c0-1.67 1.36-3.03 3.03-3.03 1.671 0 3.03 1.36 3.03 3.03a3.033 3.033 0 0 1-3.03 3.03zm0-4.145a1.116 1.116 0 0 0 0 2.23 1.116 1.116 0 0 0 0-2.23zM25.671 14.2c-1.67 0-3.03-1.36-3.03-3.03 0-1.671 1.36-3.03 3.03-3.03 1.67 0 3.03 1.359 3.03 3.03 0 1.67-1.36 3.03-3.03 3.03zm0-4.146a1.116 1.116 0 0 0 0 2.23 1.116 1.116 0 0 0 0-2.23z"/><defs><linearGradient id="bna" x1="19.787" y1="28.178" x2="19.787" y2="40.646" gradientUnits="userSpaceOnUse"><stop stop-color="#9F2FFF"/><stop offset="1" stop-color="#25A6EF"/></linearGradient><linearGradient id="bnb" x1="38.214" y1="28.178" x2="38.214" y2="40.646" gradientUnits="userSpaceOnUse"><stop stop-color="#9F2FFF"/><stop offset="1" stop-color="#25A6EF"/></linearGradient><linearGradient id="bnc" x1="28.736" y1="24.352" x2="28.736" y2="44.603" gradientUnits="userSpaceOnUse"><stop stop-color="#9F2FFF"/><stop offset="1" stop-color="#25A6EF"/></linearGradient><linearGradient id="bnd" x1="29" y1="3.42" x2="29" y2="54.592" gradientUnits="userSpaceOnUse"><stop stop-color="#9F2FFF"/><stop offset="1" stop-color="#25A6EF"/></linearGradient><linearGradient id="bne" x1="29" y1="16.838" x2="29" y2="18.753" gradientUnits="userSpaceOnUse"><stop stop-color="#9F2FFF"/><stop offset="1" stop-color="#25A6EF"/></linearGradient><linearGradient id="bnf" x1="16.361" y1="8.11" x2="16.361" y2="14.171" gradientUnits="userSpaceOnUse"><stop stop-color="#9F2FFF"/><stop offset="1" stop-color="#25A6EF"/></linearGradient><linearGradient id="bng" x1="7.05" y1="8.081" x2="7.05" y2="14.141" gradientUnits="userSpaceOnUse"><stop stop-color="#9F2FFF"/><stop offset="1" stop-color="#25A6EF"/></linearGradient><linearGradient id="bnh" x1="25.671" y1="8.14" x2="25.671" y2="14.2" gradientUnits="userSpaceOnUse"><stop stop-color="#9F2FFF"/><stop offset="1" stop-color="#25A6EF"/></linearGradient></defs></symbol></svg>