<svg width="58" height="58" fill="none" xmlns="http://www.w3.org/2000/svg"><g clip-path="url(#clip0)"><path d="M15.635 34.918l2 1.108a.85.85 0 01-.824 1.487l-2-1.108a.85.85 0 01.824-1.487z" fill="url(#paint0_linear)"/><path d="M15.635 32.508l2 1.107a.85.85 0 11-.823 1.487l-2-1.108a.85.85 0 01.823-1.486z" fill="url(#paint1_linear)"/><path d="M1.536 42.686a.86.86 0 01-.127-.445v-7.474a.85.85 0 011.7 0v6.165l8.17-3.644V21.501l-8.17-4.527v14.093a.85.85 0 11-1.7 0V15.532c0-.303.173-.596.438-.743L28.557-.008a.86.86 0 01.823 0l26.71 14.797a.86.86 0 01.437.753v26.7a.862.862 0 01-.438.742l-11.768 6.52a.85.85 0 01-.823-1.486l10.278-5.695-7.926-3.535-16.032 8.882v7.926l10.31-5.711a.85.85 0 11.824 1.486l-11.572 6.41a.86.86 0 01-.823 0L16.42 51.059a.85.85 0 11.823-1.486l10.875 6.024V47.67l-16.032-8.882-7.926 3.535 9.716 5.383a.85.85 0 11-.824 1.487L1.848 42.984a.862.862 0 01-.31-.298zM28.97 12.642L13.882 21l15.087 8.358L44.055 21l-15.086-8.358zm-16.84 7.387l15.99-8.86V2.178L4.013 15.532l8.116 4.497zm17.69-8.86l15.99 8.86 8.116-4.497L29.818 2.177v8.993zm25.01 5.805L46.66 21.5v15.788l8.17 3.644V16.974zm-9.87 5.468l-6.17 3.418-8.973 4.971v14.897l15.14-8.388V22.442zM28.12 30.83l-15.14-8.388V37.34l15.14 8.388V30.83z" fill="url(#paint2_linear)"/></g><defs><linearGradient id="paint0_linear" x1="16.223" y1="34.812" x2="16.223" y2="37.619" gradientUnits="userSpaceOnUse"><stop stop-color="#9F2FFF"/><stop offset="1" stop-color="#25A6EF"/></linearGradient><linearGradient id="paint1_linear" x1="16.223" y1="32.401" x2="16.223" y2="35.208" gradientUnits="userSpaceOnUse"><stop stop-color="#9F2FFF"/><stop offset="1" stop-color="#25A6EF"/></linearGradient><linearGradient id="paint2_linear" x1="28.968" y1="-.113" x2="28.968" y2="57.887" gradientUnits="userSpaceOnUse"><stop stop-color="#9F2FFF"/><stop offset="1" stop-color="#25A6EF"/></linearGradient><clipPath id="clip0"><path fill="#fff" transform="matrix(-1 0 0 1 58 0)" d="M0 0h58v58H0z"/></clipPath></defs></svg>