<svg width="41" height="41" fill="none" xmlns="http://www.w3.org/2000/svg"><path d="M36.626 27.574h-.002c-1.208 0-1.89-.582-2.28-1.944-.4-1.393-.413-3.414-.427-5.553-.017-2.592-.036-5.529-.73-8.156-.082-.31-.42-.5-.754-.425-.334.077-.54.39-.457.7.659 2.496.677 5.36.694 7.888.015 2.215.028 4.307.468 5.843.191.668.466 1.217.82 1.647H7.966c.354-.43.629-.979.82-1.647.44-1.536.454-3.628.468-5.843.022-3.381.048-7.214 1.538-10.147 1.677-3.302 5.004-4.907 10.17-4.907 2.838 0 5.16.495 6.901 1.472 1.51.846 2.619 2.05 3.39 3.68.138.292.506.425.822.296.315-.128.458-.47.32-.763-.866-1.83-2.173-3.244-3.887-4.205-1.094-.614-2.378-1.056-3.842-1.326C24.52 2.406 22.915 1 20.962 1c-1.952 0-3.557 1.406-3.703 3.185-1.396.257-2.63.67-3.69 1.24-1.703.917-3.018 2.27-3.906 4.018-1.607 3.164-1.634 7.133-1.656 10.634-.014 2.14-.028 4.16-.427 5.553-.39 1.362-1.072 1.944-2.28 1.944h-.002c-2.017 0-3.657 1.524-3.657 3.397 0 1.872 1.64 3.396 3.657 3.396h3.948c.344 0 .624-.26.624-.58 0-.32-.28-.579-.624-.579H5.298c-1.329 0-2.41-1.004-2.41-2.237 0-1.234 1.08-2.238 2.41-2.238h31.328c1.329 0 2.41 1.004 2.41 2.238 0 1.233-1.082 2.237-2.41 2.237H11.74c-.344 0-.623.26-.623.58 0 .319.279.579.623.579h2.56C14.618 37.522 17.484 40 20.963 40s6.345-2.478 6.66-5.633h9.004c2.017 0 3.657-1.524 3.657-3.396 0-1.873-1.64-3.397-3.657-3.397zM20.962 2.158c1.195 0 2.194.793 2.42 1.841a22.223 22.223 0 00-2.42-.128c-.848 0-1.654.044-2.42.128.227-1.049 1.226-1.84 2.42-1.84zm0 36.684c-2.79 0-5.096-1.96-5.406-4.475h10.812c-.31 2.514-2.616 4.475-5.406 4.475z" fill="url(#paint0_linear)"/><path d="M30.978 4.635c.01.006 1.121.594 2.214 1.962 1.464 1.83 2.206 4.118 2.206 6.799 0 .32.28.58.624.58s.623-.26.623-.58c0-3.69-1.357-6.14-2.495-7.544-1.251-1.544-2.514-2.203-2.567-2.23a.65.65 0 00-.846.226c-.167.278-.059.63.24.787z" fill="url(#paint1_linear)"/><path d="M35.684 4.848c.1.06 2.458 1.53 2.458 5.228 0 .32.28.579.624.579.345 0 .624-.26.624-.58 0-4.36-2.91-6.13-3.034-6.203a.651.651 0 00-.857.176.556.556 0 00.185.8z" fill="url(#paint2_linear)"/><path d="M5.902 13.975c.345 0 .624-.26.624-.58 0-2.68.742-4.967 2.206-6.798 1.086-1.359 2.19-1.949 2.214-1.962.3-.155.409-.507.243-.786a.65.65 0 00-.848-.227c-.053.027-1.316.686-2.567 2.23-1.138 1.404-2.495 3.854-2.495 7.544 0 .32.279.58.623.58z" fill="url(#paint3_linear)"/><path d="M3.158 10.654c.344 0 .623-.259.623-.579 0-3.694 2.355-5.164 2.459-5.227a.555.555 0 00.188-.798.653.653 0 00-.86-.178c-.125.073-3.034 1.843-3.034 6.203 0 .32.28.58.624.58z" fill="url(#paint4_linear)"/><defs><linearGradient id="paint0_linear" x1="20.962" y1="1" x2="20.962" y2="40" gradientUnits="userSpaceOnUse"><stop stop-color="#9F2FFF"/><stop offset="1" stop-color="#25A6EF"/></linearGradient><linearGradient id="paint1_linear" x1="33.652" y1="3.55" x2="33.652" y2="13.975" gradientUnits="userSpaceOnUse"><stop stop-color="#9F2FFF"/><stop offset="1" stop-color="#25A6EF"/></linearGradient><linearGradient id="paint2_linear" x1="37.395" y1="3.782" x2="37.395" y2="10.655" gradientUnits="userSpaceOnUse"><stop stop-color="#9F2FFF"/><stop offset="1" stop-color="#25A6EF"/></linearGradient><linearGradient id="paint3_linear" x1="8.273" y1="3.55" x2="8.273" y2="13.975" gradientUnits="userSpaceOnUse"><stop stop-color="#9F2FFF"/><stop offset="1" stop-color="#25A6EF"/></linearGradient><linearGradient id="paint4_linear" x1="4.53" y1="3.782" x2="4.53" y2="10.654" gradientUnits="userSpaceOnUse"><stop stop-color="#9F2FFF"/><stop offset="1" stop-color="#25A6EF"/></linearGradient></defs></svg>