<svg width="64" height="64" fill="none" xmlns="http://www.w3.org/2000/svg"><path d="M10.667 27.163h13.866a1.066 1.066 0 100-2.134H10.667a1.066 1.066 0 100 2.134z" fill="url(#paint0_linear)"/><path d="M38.4 31.43H10.667a1.066 1.066 0 100 2.133H38.4a1.066 1.066 0 100-2.134z" fill="url(#paint1_linear)"/><path d="M38.4 37.83H10.667a1.066 1.066 0 100 2.133H38.4a1.066 1.066 0 100-2.133z" fill="url(#paint2_linear)"/><path d="M57.677 2.704L21.259 2.63a6.332 6.332 0 00-6.326 6.326v5.465l-8.608.018A6.332 6.332 0 000 20.764v22.55a6.331 6.331 0 006.325 6.325H12.8v10.666a1.067 1.067 0 001.856.718l10.35-11.387 17.735-.072a6.332 6.332 0 006.326-6.325v-.12l5.61 6.172a1.069 1.069 0 001.856-.718V37.906h1.142A6.332 6.332 0 0064 31.582V9.029a6.332 6.332 0 00-6.323-6.325zM46.933 43.24c0 2.31-1.88 4.19-4.196 4.19l-18.208.075a1.067 1.067 0 00-.785.349l-8.81 9.693V48.57c0-.59-.477-1.067-1.067-1.067H6.325a4.197 4.197 0 01-4.192-4.19V20.762a4.197 4.197 0 014.194-4.192L16 16.55h.002l26.74-.056a4.197 4.197 0 014.191 4.192v22.553zm14.934-11.66a4.196 4.196 0 01-4.192 4.192h-2.208c-.59 0-1.067.478-1.067 1.066v8.975l-5.333-5.866V20.688a6.333 6.333 0 00-6.328-6.325l-25.672.052V8.954a4.196 4.196 0 014.19-4.192l36.417.074h.002a4.197 4.197 0 014.192 4.192V31.58h-.001z" fill="url(#paint3_linear)"/><defs><linearGradient id="paint0_linear" x1="17.6" y1="25.029" x2="17.6" y2="27.163" gradientUnits="userSpaceOnUse"><stop stop-color="#9F2FFF"/><stop offset="1" stop-color="#25A6EF"/></linearGradient><linearGradient id="paint1_linear" x1="24.533" y1="31.429" x2="24.533" y2="33.563" gradientUnits="userSpaceOnUse"><stop stop-color="#9F2FFF"/><stop offset="1" stop-color="#25A6EF"/></linearGradient><linearGradient id="paint2_linear" x1="24.533" y1="37.83" x2="24.533" y2="39.963" gradientUnits="userSpaceOnUse"><stop stop-color="#9F2FFF"/><stop offset="1" stop-color="#25A6EF"/></linearGradient><linearGradient id="paint3_linear" x1="32" y1="2.629" x2="32" y2="61.372" gradientUnits="userSpaceOnUse"><stop stop-color="#9F2FFF"/><stop offset="1" stop-color="#25A6EF"/></linearGradient></defs></svg>