<svg width="64" height="64" fill="none" xmlns="http://www.w3.org/2000/svg"><g clip-path="url(#clip0)"><path d="M34.133 50.133a2.133 2.133 0 11-4.267 0 2.133 2.133 0 014.267 0z" fill="url(#paint0_linear)"/><path d="M56.267 10.667h-8.534V12.8h8.534c.589 0 1.066.478 1.066 1.067v29.866h-51.2V13.867c0-.59.478-1.067 1.067-1.067h8.533v-2.133H7.2a3.204 3.204 0 00-3.2 3.2v39.466a3.203 3.203 0 003.2 3.2h19.2v5.334h-4.267V64h19.2v-2.133h-4.266v-5.334h19.2a3.204 3.204 0 003.2-3.2V13.867a3.204 3.204 0 00-3.2-3.2zm-21.334 51.2h-6.4v-5.334h6.4v5.334zm22.4-8.534c0 .59-.477 1.066-1.066 1.067H7.2c-.59 0-1.066-.478-1.067-1.067v-7.466h51.2v7.466z" fill="url(#paint1_linear)"/><path d="M21.2 0A3.203 3.203 0 0018 3.2v35.2a3.203 3.203 0 003.2 3.2h21.333a3.203 3.203 0 003.2-3.2V3.2a3.203 3.203 0 00-3.2-3.2H21.2zm22.4 38.4c0 .59-.478 1.066-1.067 1.067H21.2c-.59 0-1.066-.478-1.067-1.067v-7.467H43.6V38.4zm0-35.2v25.6H20.133V3.2c0-.59.478-1.066 1.067-1.067h21.333c.59 0 1.066.478 1.067 1.067z" fill="url(#paint2_linear)"/><path d="M34.267 35.2a2.133 2.133 0 11-4.267 0 2.133 2.133 0 014.267 0z" fill="url(#paint3_linear)"/><path d="M30 4.267h4.267V6.4H30V4.267z" fill="url(#paint4_linear)"/></g><defs><linearGradient id="paint0_linear" x1="32" y1="48" x2="32" y2="52.267" gradientUnits="userSpaceOnUse"><stop stop-color="#9F2FFF"/><stop offset="1" stop-color="#10A4F7"/></linearGradient><linearGradient id="paint1_linear" x1="31.733" y1="10.667" x2="31.733" y2="64" gradientUnits="userSpaceOnUse"><stop stop-color="#9F2FFF"/><stop offset="1" stop-color="#10A4F7"/></linearGradient><linearGradient id="paint2_linear" x1="31.867" y1="0" x2="31.867" y2="41.6" gradientUnits="userSpaceOnUse"><stop stop-color="#9F2FFF"/><stop offset="1" stop-color="#10A4F7"/></linearGradient><linearGradient id="paint3_linear" x1="32.133" y1="33.067" x2="32.133" y2="37.333" gradientUnits="userSpaceOnUse"><stop stop-color="#9F2FFF"/><stop offset="1" stop-color="#10A4F7"/></linearGradient><linearGradient id="paint4_linear" x1="32.133" y1="4.267" x2="32.133" y2="6.4" gradientUnits="userSpaceOnUse"><stop stop-color="#9F2FFF"/><stop offset="1" stop-color="#10A4F7"/></linearGradient><clipPath id="clip0"><path fill="#fff" d="M0 0h64v64H0z"/></clipPath></defs></svg>