<svg width="64" height="64" fill="none" xmlns="http://www.w3.org/2000/svg"><path fill-rule="evenodd" clip-rule="evenodd" d="M11.865 7.645A32.314 32.314 0 009.7 9.613a31.757 31.757 0 00-4.952 6.468.93.93 0 00-.083.094c-.017.03-.017.064-.032.095A31.644 31.644 0 002.91 44.347a31.828 31.828 0 001.723 3.412c.015.03.015.064.032.095.036.054.077.106.122.154a30.925 30.925 0 0011.384 11.36c.035.024.056.061.093.083.044.02.088.039.133.055a31.65 31.65 0 0028.04 1.706 31.56 31.56 0 003.378-1.706 2.07 2.07 0 00.13-.052.968.968 0 00.092-.083 30.93 30.93 0 0011.386-11.36c.044-.048.084-.1.121-.154.017-.03.017-.065.032-.096a31.22 31.22 0 000-31.492c-.015-.03-.015-.065-.032-.095a1.142 1.142 0 00-.082-.093A30.962 30.962 0 0048.041 4.66c-.035-.024-.056-.06-.094-.083-.038-.021-.064-.017-.095-.03a31.643 31.643 0 00-28.08-1.724 31.778 31.778 0 00-3.412 1.723c-.031.014-.065.014-.096.031a1.068 1.068 0 00-.092.083c-.5.292-1.005.581-1.488.9l-2.819 2.085zm19.02-4.846c-3.497.135-6.94.903-10.164 2.265v.003a28.83 28.83 0 00-2.168 1.042l2.415 4.197a1.218 1.218 0 11-2.11 1.219l-2.416-4.182a28.413 28.413 0 00-9.017 9.017l4.182 2.415a1.22 1.22 0 11-1.218 2.11l-4.194-2.42a28.97 28.97 0 00-1.042 2.17 29.003 29.003 0 00-2.266 10.162h7.282a1.219 1.219 0 110 2.438H2.887c.136 3.496.904 6.94 2.268 10.163.31.742.676 1.46 1.042 2.168l4.197-2.415a1.218 1.218 0 111.218 2.111L7.43 47.677a28.41 28.41 0 009.018 9.017l2.414-4.181a1.22 1.22 0 012.111 1.218l-2.42 4.192c.707.371 1.427.73 2.169 1.043a28.995 28.995 0 0010.163 2.267V53.95a1.218 1.218 0 112.437 0v7.282a28.988 28.988 0 0010.164-2.267c.742-.311 1.459-.676 2.168-1.042l-2.42-4.192a1.219 1.219 0 112.11-1.218l2.42 4.176a28.412 28.412 0 009.018-9.017L52.6 45.257a1.22 1.22 0 111.218-2.11l4.193 2.42c.371-.707.729-1.427 1.042-2.17a28.99 28.99 0 002.267-10.162h-7.283a1.218 1.218 0 010-2.438h7.283a28.985 28.985 0 00-2.268-10.164c-.31-.74-.676-1.458-1.042-2.168l-4.191 2.42a1.218 1.218 0 11-1.22-2.11l4.178-2.42a28.41 28.41 0 00-9.017-9.018l-2.416 4.183a1.218 1.218 0 11-2.11-1.219l2.42-4.193a28.765 28.765 0 00-2.17-1.042A29.014 29.014 0 0033.323 2.8v7.283a1.219 1.219 0 11-2.437 0V2.799z" fill="url(#paint0_linear)"/><path d="M16.472 31.008a4.873 4.873 0 000 6.892l8.53 8.53a4.836 4.836 0 003.446 1.428h.233a4.876 4.876 0 003.533-1.77l17.06-20.716a4.874 4.874 0 10-7.523-6.197L28.103 35.748l-4.735-4.734a4.987 4.987 0 00-6.896-.006zm10.852 7.405c.24.249.576.38.92.356.344-.016.664-.177.882-.442l14.501-17.608a2.437 2.437 0 113.762 3.1L30.33 44.534a2.438 2.438 0 01-1.779.885l-.102.001a2.42 2.42 0 01-1.723-.714l-8.53-8.53a2.438 2.438 0 113.445-3.446l5.684 5.684z" fill="url(#paint1_linear)"/><defs><linearGradient id="paint0_linear" x1="32.129" y1=".333" x2="32.129" y2="63.7" gradientUnits="userSpaceOnUse"><stop stop-color="#9F2FFF"/><stop offset="1" stop-color="#10A4F7"/></linearGradient><linearGradient id="paint1_linear" x1="32.739" y1="17.343" x2="32.739" y2="47.858" gradientUnits="userSpaceOnUse"><stop stop-color="#9F2FFF"/><stop offset="1" stop-color="#25A6EF"/></linearGradient></defs></svg>