<svg width="32" height="32" fill="none" xmlns="http://www.w3.org/2000/svg"><rect width="32" height="32" rx="5" fill="#0038FF"/><g clip-path="url(#clip0)" fill="#fff"><path d="M16.594 15.932a.483.483 0 00-.664 0 .436.436 0 000 .635c.184.175.48.175.664 0a.437.437 0 000-.635zm5.966-5.718a2.415 2.415 0 00-3.315 0 2.183 2.183 0 000 3.177 2.42 2.42 0 003.314 0 2.18 2.18 0 000-3.177zm-.663 2.541a1.452 1.452 0 01-1.99 0 1.31 1.31 0 010-1.906 1.449 1.449 0 011.99 0c.549.527.55 1.38 0 1.906z"/><path d="M27.863 5.132A.478.478 0 0027.514 5c-.106.004-2.63.101-5.629 1.117-2.404.814-4.407 1.978-5.955 3.461a17.38 17.38 0 00-1.007 1.051c-1.53-.863-2.757-.592-3.532-.195-1.785.916-2.89 3.402-2.89 5.18a.45.45 0 00.29.415.484.484 0 00.51-.098c.941-.902 2.103-.845 2.482-.798l.164.158a15.356 15.356 0 00-.774 2.181c-.069.258-.046.531.057.78-.452.2-.887.493-1.266.856-1.207 1.157-1.452 3.975-1.462 4.094-.01.131.04.26.136.353a.48.48 0 00.369.13c.124-.01 3.065-.244 4.271-1.4a4.26 4.26 0 00.893-1.213c.276.104.56.117.815.054a16.997 16.997 0 002.276-.742l.164.157c.05.364.109 1.477-.833 2.379a.436.436 0 00-.101.49.47.47 0 00.433.277c1.855 0 4.449-1.06 5.404-2.77.415-.743.698-1.918-.203-3.385.382-.309.75-.633 1.096-.965 1.548-1.483 2.763-3.403 3.612-5.707 1.06-2.875 1.162-5.293 1.166-5.395a.44.44 0 00-.137-.333zM9.549 14.648c.291-1.351 1.137-2.833 2.284-3.421.767-.394 1.605-.355 2.496.112a18.042 18.042 0 00-1.969 3.077c-.007-.004-.091-.106-.248-.14a4.165 4.165 0 00-2.563.372zm3.067 7.001c-.645.618-2.157.944-3.113 1.077.14-.916.48-2.365 1.124-2.983.36-.345.78-.608 1.2-.755l1.577 1.511a3.227 3.227 0 01-.788 1.15zm2.137-1.393a.452.452 0 01-.41-.128l-.918-.88-1.21-1.16c-.118-.112-.169-.263-.134-.392.15-.56.347-1.136.585-1.716l3.877 3.715c-.606.229-1.206.417-1.79.56zm6.75.237c-.614 1.1-2.16 1.91-3.57 2.19.45-.81.549-1.842.384-2.468-.038-.145-.137-.218-.142-.227a19.127 19.127 0 003.21-1.887c.488.854.528 1.657.118 2.392zm1.057-4.561c-.423.405-.878.795-1.352 1.162a18.155 18.155 0 01-3.737 2.22l-4.407-4.224a17.153 17.153 0 012.316-3.58c.383-.456.79-.892 1.213-1.296 1.389-1.331 3.181-2.39 5.328-3.153l3.928 3.764c-.795 2.058-1.9 3.776-3.29 5.107zm3.626-6.054l-3.276-3.14a21.887 21.887 0 014.113-.802 19.459 19.459 0 01-.837 3.942z"/><path d="M15.268 23.555a.483.483 0 00-.663 0l-1.326 1.27a.436.436 0 000 .636c.183.176.48.176.663 0l1.326-1.27a.436.436 0 000-.636zm-6.63-6.353a.483.483 0 00-.662 0l-1.327 1.27a.436.436 0 000 .636c.183.175.48.175.663 0l1.326-1.27a.436.436 0 000-.636zm3.315 6.988a.483.483 0 00-.663 0l-3.175 3.043a.436.436 0 000 .635c.183.176.48.176.662 0l3.176-3.042a.436.436 0 000-.635zm-3.75 0a.483.483 0 00-.663 0l-3.175 3.043a.436.436 0 000 .635c.183.176.48.176.663 0l3.175-3.042a.436.436 0 000-.635zm-.228-3.812a.483.483 0 00-.663 0l-3.175 3.044a.436.436 0 000 .635c.183.175.48.175.663 0l3.175-3.043a.436.436 0 000-.636zm10.607-6.352a.483.483 0 00-.663 0l-.663.635a.436.436 0 000 .635c.183.176.48.176.663 0l.663-.635a.436.436 0 000-.635z"/></g><defs><clipPath id="clip0"><path fill="#fff" transform="translate(4 5)" d="M0 0h24v23H0z"/></clipPath></defs></svg>