<svg width="64" height="64" fill="none" xmlns="http://www.w3.org/2000/svg"><path d="M32.848 39.65a1.01 1.01 0 00-1.346-.479 16 16 0 01-2.556.956 1.01 1.01 0 00-.719.775l-1.069 5.345c-.105.528-.572.91-1.11.91H23.13a1.136 1.136 0 01-1.11-.91l-1.07-5.345a1.01 1.01 0 00-.718-.775 16.053 16.053 0 01-3.549-1.47 1.01 1.01 0 00-1.057.04l-4.535 3.023a1.136 1.136 0 01-1.43-.142L7.6 39.517c-.38-.38-.44-.981-.142-1.43l3.024-4.535a1.01 1.01 0 00.04-1.057 16.05 16.05 0 01-1.47-3.549 1.01 1.01 0 00-.776-.718l-5.345-1.069a1.136 1.136 0 01-.91-1.111v-2.916c0-.538.383-1.006.91-1.111l5.345-1.07a1.01 1.01 0 00.775-.718 16.052 16.052 0 011.47-3.549 1.01 1.01 0 00-.039-1.056L7.46 11.092a1.136 1.136 0 01.141-1.43L9.662 7.6c.38-.38.982-.44 1.43-.142l4.536 3.024a1.01 1.01 0 001.056.04 16.056 16.056 0 013.55-1.47 1.01 1.01 0 00.718-.776l1.069-5.345c.105-.527.572-.91 1.11-.91h2.917c.538 0 1.005.383 1.11.91l1.07 5.345c.074.373.352.673.718.775 1.237.347 2.431.841 3.55 1.47.33.188.74.172 1.056-.039l4.535-3.024a1.136 1.136 0 011.43.142l2.062 2.062c.38.38.44.982.142 1.43l-3.024 4.535a1.01 1.01 0 00-.04 1.057 16.057 16.057 0 011.47 3.549c.103.366.403.644.776.718l5.345 1.07c.527.105.91.572.91 1.11v2.916c0 .539-.383 1.006-.91 1.111l-5.345 1.07a1.01 1.01 0 00-.775.718 16.082 16.082 0 01-.985 2.617 1.01 1.01 0 101.822.874c.363-.757.675-1.544.93-2.347l4.749-.95a3.163 3.163 0 002.535-3.093v-2.916a3.163 3.163 0 00-2.536-3.093l-4.748-.95a18.083 18.083 0 00-1.18-2.846l2.687-4.03a3.163 3.163 0 00-.394-3.98l-2.062-2.061a3.163 3.163 0 00-3.98-.394l-4.03 2.686a18.096 18.096 0 00-2.846-1.18l-.95-4.748A3.162 3.162 0 0026.047 0h-2.916a3.163 3.163 0 00-3.093 2.535l-.95 4.75c-.98.31-1.933.705-2.845 1.178l-4.03-2.686a3.163 3.163 0 00-3.98.394L6.171 8.233a3.163 3.163 0 00-.394 3.98l2.686 4.03a18.087 18.087 0 00-1.179 2.846l-4.749.95A3.163 3.163 0 000 23.13v2.917a3.163 3.163 0 002.535 3.093l4.75.95c.31.98.705 1.933 1.178 2.845l-2.686 4.03a3.163 3.163 0 00.394 3.98l2.062 2.062a3.163 3.163 0 003.98.394l4.03-2.686c.912.473 1.865.867 2.846 1.179l.95 4.749a3.163 3.163 0 003.092 2.535h2.917a3.163 3.163 0 003.093-2.535l.95-4.75a18.121 18.121 0 002.278-.897 1.01 1.01 0 00.48-1.346z" fill="url(#paint0_linear)"/><path d="M33.342 30.204a1.01 1.01 0 001.36-.438 11.395 11.395 0 001.247-5.176c0-6.264-5.096-11.36-11.36-11.36-2.98 0-5.795 1.146-7.928 3.226a1.01 1.01 0 001.41 1.447 9.288 9.288 0 016.518-2.651c5.15 0 9.338 4.189 9.338 9.338a9.24 9.24 0 01-1.023 4.255 1.01 1.01 0 00.438 1.36z" fill="url(#paint1_linear)"/><path d="M15.13 20.266a1.01 1.01 0 00-1.284.627 11.34 11.34 0 00-.615 3.697c0 6.263 5.095 11.359 11.359 11.359 2.409 0 4.71-.745 6.656-2.154a1.01 1.01 0 00-1.186-1.637 9.27 9.27 0 01-5.47 1.77c-5.15 0-9.338-4.19-9.338-9.339 0-1.041.17-2.064.505-3.04a1.01 1.01 0 00-.627-1.283z" fill="url(#paint2_linear)"/><path d="M62.055 44.164l-2.922-.584a12.226 12.226 0 00-.64-1.547l1.652-2.48c.638-.956.51-2.24-.302-3.052l-1.355-1.355a2.426 2.426 0 00-3.052-.302l-2.48 1.653a12.21 12.21 0 00-1.547-.64l-.584-2.923a2.426 2.426 0 00-2.372-1.944h-1.917a2.426 2.426 0 00-2.372 1.944l-.584 2.922c-.53.178-1.047.393-1.547.641l-2.48-1.653a2.426 2.426 0 00-3.052.302l-1.355 1.355a2.426 2.426 0 00-.302 3.053l1.653 2.48a12.216 12.216 0 00-.825 2.147 1.01 1.01 0 001.946.544 10.2 10.2 0 01.934-2.255 1.01 1.01 0 00-.04-1.057l-1.986-2.98a.4.4 0 01.05-.503l1.354-1.355a.4.4 0 01.503-.05l2.98 1.988a1.01 1.01 0 001.057.04c.71-.4 1.469-.715 2.255-.935a1.01 1.01 0 00.719-.775l.702-3.512a.4.4 0 01.39-.32h1.917a.4.4 0 01.39.32l.703 3.512c.074.373.352.673.718.775.787.22 1.545.535 2.255.935.332.186.74.171 1.057-.04l2.98-1.987a.399.399 0 01.503.05l1.355 1.355a.4.4 0 01.05.502l-1.987 2.98a1.01 1.01 0 00-.04 1.057c.4.71.715 1.469.934 2.255.103.367.402.645.776.719l3.512.702a.4.4 0 01.32.39v1.917a.4.4 0 01-.32.39l-3.513.703a1.01 1.01 0 00-.775.718c-.22.787-.534 1.546-.934 2.256a1.01 1.01 0 00.04 1.056l1.987 2.98a.4.4 0 01-.05.503l-1.355 1.355a.4.4 0 01-.503.05l-2.98-1.987a1.01 1.01 0 00-1.057-.04c-.71.4-1.469.715-2.255.935a1.01 1.01 0 00-.719.775l-.702 3.512a.4.4 0 01-.39.32h-1.917a.4.4 0 01-.39-.32l-.703-3.512a1.01 1.01 0 00-.718-.776 10.199 10.199 0 01-2.255-.934 1.01 1.01 0 00-1.057.04l-2.98 1.987a.399.399 0 01-.503-.05l-1.355-1.355a.4.4 0 01-.05-.502l1.988-2.981a1.01 1.01 0 00.04-1.056c-.4-.71-.715-1.47-.935-2.256a1.01 1.01 0 00-.775-.718l-3.513-.703a.399.399 0 01-.32-.39v-1.917a.4.4 0 01.32-.39l.215-.043a1.01 1.01 0 10-.396-1.982l-.215.043a2.426 2.426 0 00-1.945 2.373v1.916c0 1.149.818 2.147 1.945 2.372l2.922.584c.178.53.393 1.047.641 1.547l-1.653 2.48c-.638.956-.51 2.24.302 3.052l1.355 1.355c.813.813 2.096.94 3.053.303l2.48-1.654c.5.249 1.016.463 1.546.641l.584 2.922A2.426 2.426 0 0046.537 64h1.916a2.426 2.426 0 002.372-1.945l.584-2.922a12.22 12.22 0 001.547-.64l2.48 1.652c.956.638 2.24.51 3.052-.302l1.355-1.355c.813-.812.94-2.096.303-3.052l-1.654-2.48c.249-.5.463-1.017.641-1.547l2.922-.584A2.426 2.426 0 0064 48.453v-1.917a2.425 2.425 0 00-1.945-2.372z" fill="url(#paint3_linear)"/><path d="M47.495 43.857a3.642 3.642 0 013.638 3.638 1.01 1.01 0 002.02 0 5.665 5.665 0 00-5.658-5.66 5.665 5.665 0 00-5.66 5.66 5.665 5.665 0 005.66 5.659 5.605 5.605 0 003.457-1.179 1.01 1.01 0 00-1.236-1.6 3.603 3.603 0 01-2.221.758 3.642 3.642 0 01-3.638-3.638 3.642 3.642 0 013.638-3.638z" fill="url(#paint4_linear)"/><path d="M30.746 24.59a6.164 6.164 0 00-6.156-6.157 6.164 6.164 0 00-6.157 6.157 6.164 6.164 0 006.157 6.156 6.164 6.164 0 006.156-6.156zm-10.292 0a4.14 4.14 0 014.136-4.136 4.14 4.14 0 014.135 4.136 4.14 4.14 0 01-4.136 4.135 4.14 4.14 0 01-4.135-4.136z" fill="url(#paint5_linear)"/><defs><linearGradient id="paint0_linear" x1="24.589" y1="0" x2="24.589" y2="49.179" gradientUnits="userSpaceOnUse"><stop stop-color="#9F2FFF"/><stop offset="1" stop-color="#25A6EF"/></linearGradient><linearGradient id="paint1_linear" x1="26.152" y1="13.23" x2="26.152" y2="30.316" gradientUnits="userSpaceOnUse"><stop stop-color="#9F2FFF"/><stop offset="1" stop-color="#25A6EF"/></linearGradient><linearGradient id="paint2_linear" x1="22.447" y1="20.21" x2="22.447" y2="35.949" gradientUnits="userSpaceOnUse"><stop stop-color="#9F2FFF"/><stop offset="1" stop-color="#25A6EF"/></linearGradient><linearGradient id="paint3_linear" x1="47.495" y1="30.99" x2="47.495" y2="64" gradientUnits="userSpaceOnUse"><stop stop-color="#9F2FFF"/><stop offset="1" stop-color="#25A6EF"/></linearGradient><linearGradient id="paint4_linear" x1="47.495" y1="41.836" x2="47.495" y2="53.154" gradientUnits="userSpaceOnUse"><stop stop-color="#9F2FFF"/><stop offset="1" stop-color="#25A6EF"/></linearGradient><linearGradient id="paint5_linear" x1="24.59" y1="18.433" x2="24.59" y2="30.746" gradientUnits="userSpaceOnUse"><stop stop-color="#9F2FFF"/><stop offset="1" stop-color="#25A6EF"/></linearGradient></defs></svg>