<svg width="36" height="36" fill="none" xmlns="http://www.w3.org/2000/svg"><path d="M23.365 9.578h-10.73a3.11 3.11 0 00-3.106 3.106v10.73a3.11 3.11 0 003.106 3.106h10.73a3.11 3.11 0 003.106-3.107v-10.73a3.11 3.11 0 00-3.106-3.105zM18 23.626a5.584 5.584 0 01-5.577-5.577A5.583 5.583 0 0118 12.472a5.583 5.583 0 015.577 5.577A5.584 5.584 0 0118 23.626zm5.757-10.001c-.728 0-1.32-.592-1.32-1.32 0-.727.592-1.32 1.32-1.32.727 0 1.32.593 1.32 1.32 0 .728-.593 1.32-1.32 1.32z" fill="#6A453B"/><path d="M18 14.828a3.225 3.225 0 00-3.22 3.22A3.225 3.225 0 0018 21.27a3.224 3.224 0 003.22-3.22A3.224 3.224 0 0018 14.83z" fill="#6A453B"/><path d="M18 0C8.06 0 0 8.06 0 18s8.06 18 18 18 18-8.06 18-18S27.94 0 18 0zm10.828 23.413a5.468 5.468 0 01-5.463 5.463h-10.73a5.469 5.469 0 01-5.463-5.463v-10.73a5.469 5.469 0 015.463-5.462h10.73a5.469 5.469 0 015.463 5.463v10.73z" fill="#6A453B"/></svg>