<svg width="178" height="38" fill="none" xmlns="http://www.w3.org/2000/svg"><path d="M44.725 23.15V30h-1.55V12.625h6.375c1.817 0 3.167.417 4.05 1.25.9.817 1.35 2.117 1.35 3.9 0 2.783-1.117 4.475-3.35 5.075L55.175 30H53.45l-3.425-6.85h-5.3zm8.625-5.35c0-1.3-.308-2.258-.925-2.875S50.85 14 49.55 14h-4.825v7.775h4.825c2.533 0 3.8-1.325 3.8-3.975zm6.13 3.6c0 2.65.35 4.558 1.05 5.725.7 1.15 2.076 1.725 4.126 1.725 2.066 0 3.45-.567 4.15-1.7.7-1.133 1.05-3.025 1.05-5.675 0-2.667-.367-4.617-1.1-5.85-.734-1.233-2.1-1.85-4.1-1.85-2.067 0-3.459.667-4.175 2-.384.683-.65 1.467-.8 2.35-.133.883-.2 1.975-.2 3.275zm11.976.05c0 3.1-.492 5.342-1.475 6.725-.967 1.383-2.742 2.075-5.325 2.075-2.567 0-4.342-.708-5.325-2.125-.967-1.417-1.45-3.65-1.45-6.7 0-3.067.492-5.342 1.475-6.825.983-1.483 2.75-2.225 5.3-2.225s4.316.742 5.3 2.225c1 1.467 1.5 3.75 1.5 6.85zm14.028 8.275c-1.717.35-3.184.525-4.4.525-1.217 0-2.2-.125-2.95-.375-.734-.267-1.334-.633-1.8-1.1-.467-.467-.834-1.075-1.1-1.825-.5-1.367-.75-3.225-.75-5.575 0-3.767.6-6.258 1.8-7.475.983-1.017 2.483-1.525 4.5-1.525 1.383 0 2.95.175 4.7.525l-.075 1.35c-1.734-.317-3.125-.475-4.175-.475-1.05 0-1.867.117-2.45.35-.567.217-1.034.517-1.4.9-.35.367-.617.883-.8 1.55-.334 1.133-.5 2.55-.5 4.25 0 1.7.058 2.975.175 3.825a7.54 7.54 0 00.675 2.275c.333.683.825 1.175 1.475 1.475.65.3 1.55.45 2.7.45 1.15 0 2.583-.158 4.3-.475l.075 1.35zm4.773.275h-1.55V12.625h1.55v8.2l3-.075 4.825-8.125h1.775l-5.25 8.725 5.575 8.65h-1.85l-5.05-7.85-3.025.05V30zm12.537 0V12.625h10.425v1.4h-8.875v6.45h7.375v1.375h-7.375v6.775h8.875V30h-10.425zm11.944-15.975v-1.4h12.5v1.4h-5.45V30h-1.55V14.025h-5.5zM140.722 30v-8.025h-9.425V30h-1.55V12.625h1.55V20.6h9.425v-7.975h1.525V30h-1.525zm7.32-5.1c0 2.633 1.442 3.95 4.325 3.95 1.5 0 2.625-.308 3.375-.925s1.125-1.625 1.125-3.025V12.625h1.55V24.9c0 1.883-.508 3.25-1.525 4.1-1.016.833-2.508 1.25-4.475 1.25-1.95 0-3.425-.417-4.425-1.25-.983-.85-1.475-2.217-1.475-4.1V12.625h1.525V24.9zm14.615-12.275h6.175c3.417 0 5.125 1.458 5.125 4.375 0 2.05-.766 3.4-2.3 4.05 1.917.6 2.875 1.975 2.875 4.125 0 1.75-.458 2.992-1.375 3.725-.9.733-2.216 1.1-3.95 1.1h-6.55V12.625zm6.375 9.2h-4.825v6.8h4.975c1.217 0 2.15-.258 2.8-.775.65-.517.975-1.425.975-2.725 0-2.2-1.308-3.3-3.925-3.3zm-.25-7.825h-4.575v6.475h4.8c1.167 0 2.017-.275 2.55-.825.55-.567.825-1.4.825-2.5s-.3-1.9-.9-2.4c-.583-.5-1.483-.75-2.7-.75z" fill="#0038FF"/><g clip-path="url(#clip0)" fill="#0038FF"><path d="M20.465 17.764a.785.785 0 00-1.078 0 .71.71 0 000 1.032.787.787 0 001.078 0 .71.71 0 000-1.032zm9.694-9.291c-1.488-1.426-3.898-1.427-5.386 0a3.548 3.548 0 000 5.162c1.485 1.422 3.901 1.423 5.386 0a3.542 3.542 0 000-5.162zm-1.077 4.13a2.36 2.36 0 01-3.232 0 2.129 2.129 0 010-3.098 2.355 2.355 0 013.232 0 2.125 2.125 0 010 3.097z"/><path d="M38.777.214A.777.777 0 0038.21 0c-.172.005-4.273.163-9.148 1.815-3.906 1.321-7.162 3.214-9.677 5.624a28.248 28.248 0 00-1.636 1.708c-2.487-1.403-4.48-.963-5.74-.317-2.9 1.488-4.696 5.527-4.696 8.416 0 .296.186.562.47.675a.79.79 0 00.83-.159c1.53-1.466 3.417-1.374 4.033-1.296l.267.255a24.963 24.963 0 00-1.258 3.546c-.112.419-.074.862.092 1.268-.733.324-1.44.8-2.057 1.39-1.96 1.879-2.359 6.458-2.375 6.652a.713.713 0 00.221.574.78.78 0 00.599.211c.202-.015 4.98-.396 6.942-2.275a6.923 6.923 0 001.45-1.971c.448.169.909.19 1.324.088a27.607 27.607 0 003.698-1.206l.267.256c.081.59.177 2.399-1.353 3.865a.708.708 0 00-.165.795c.118.273.396.45.704.45 3.015 0 7.23-1.72 8.782-4.5.674-1.207 1.133-3.117-.33-5.5a28.585 28.585 0 001.782-1.569c2.515-2.41 4.49-5.53 5.868-9.273C38.828 4.85 38.993.92 39 .756a.714.714 0 00-.222-.542zM9.017 15.677c.473-2.194 1.847-4.602 3.712-5.559 1.246-.639 2.608-.576 4.056.183a29.327 29.327 0 00-3.2 5c-.011-.007-.148-.172-.403-.227-.105-.023-2.12-.438-4.165.603zM14 27.055c-1.047 1.004-3.504 1.533-5.057 1.75.226-1.489.778-3.843 1.825-4.847.587-.562 1.267-.988 1.95-1.228l2.564 2.456c-.25.655-.695 1.307-1.282 1.87zm3.473-2.265c-.22.054-.476-.025-.666-.207l-1.491-1.43-1.968-1.885c-.19-.182-.273-.427-.216-.637.244-.911.563-1.845.95-2.789l6.3 6.037a25.48 25.48 0 01-2.909.911zm10.97.386c-.999 1.787-3.512 3.104-5.802 3.558.73-1.317.892-2.993.625-4.01-.062-.235-.223-.354-.232-.368a31.081 31.081 0 005.217-3.067c.793 1.388.858 2.693.191 3.887zm1.716-7.412a27.233 27.233 0 01-2.196 1.889 29.5 29.5 0 01-6.073 3.607l-7.161-6.863a27.878 27.878 0 013.764-5.82 26.909 26.909 0 011.97-2.105c2.257-2.162 5.17-3.883 8.66-5.122l6.382 6.116c-1.293 3.344-3.089 6.135-5.346 8.298zm5.894-9.837l-5.324-5.103a35.565 35.565 0 016.684-1.303 31.616 31.616 0 01-1.36 6.406z"/><path d="M18.31 30.152a.785.785 0 00-1.077 0l-2.155 2.065a.709.709 0 000 1.032.785.785 0 001.078 0l2.154-2.065a.709.709 0 000-1.032zM7.537 19.829a.785.785 0 00-1.077 0l-2.155 2.064a.709.709 0 000 1.032.785.785 0 001.077 0l2.155-2.064a.709.709 0 000-1.032zm5.386 11.356a.786.786 0 00-1.077 0l-5.16 4.944a.709.709 0 000 1.032.785.785 0 001.077 0l5.16-4.944a.709.709 0 000-1.032zm-6.093 0a.785.785 0 00-1.077 0l-5.16 4.944a.709.709 0 000 1.032.785.785 0 001.077 0l5.16-4.944a.709.709 0 000-1.032zm-.37-6.195a.785.785 0 00-1.078 0L.223 29.935a.709.709 0 000 1.032.785.785 0 001.078 0l5.159-4.945a.709.709 0 000-1.032zm17.236-10.323a.785.785 0 00-1.078 0l-1.077 1.032a.709.709 0 000 1.032.785.785 0 001.078 0l1.077-1.032a.709.709 0 000-1.032z"/></g><defs><clipPath id="clip0"><path fill="#fff" d="M0 0h39v37.375H0z"/></clipPath></defs></svg>