<svg width="36" height="36" fill="none" xmlns="http://www.w3.org/2000/svg"><g clip-path="url(#clip0)"><path d="M18 0C8.06 0 .002 8.059.002 18c0 9.94 8.059 18 18 18 9.94 0 18-8.06 18-18 0-9.941-8.06-18-18-18zm-.564 12.02H30.86c.092 0 .18.01.267.026l-7.518 4.322-6.355-4.33c.06-.008.12-.019.182-.019zM7.27 22.236V20.37h5.99l-.073.606-.013.112v.112c0 .362.06.71.167 1.037H7.27zm6.206-3.656h-8.23v-1.867h8.456l-.226 1.867zm.633-5.235l-.115.956H3.43v-1.867h10.846a3.313 3.313 0 00-.167.911zm15.817 9.317H16.503c-.402 0-.766-.163-1.03-.425a1.484 1.484 0 01-.175-.211l-.005-.006a1.485 1.485 0 01-.124-.227c-.003-.008-.008-.015-.012-.023a1.438 1.438 0 01-.073-.234c-.004-.014-.01-.027-.013-.041a1.473 1.473 0 01-.03-.296l.498-4.111.045-.376.391-3.232c0-.093.011-.182.028-.27.002-.009 0-.02.003-.029l.003.003c.042-.2.122-.385.235-.546v.706l6.93 4.696c.009.006.019.01.029.015.01.007.02.012.03.017.055.028.111.05.168.066l.018.003a.827.827 0 00.19.024h.002a.82.82 0 00.19-.024l.018-.003a.834.834 0 00.168-.066c.01-.005.02-.01.03-.017l.03-.015 8.255-4.766c.01.068.02.135.02.206l-.933 7.72c0 .807-.655 1.462-1.463 1.462z" fill="#002C93"/></g><defs><clipPath id="clip0"><path fill="#fff" d="M0 0h36v36H0z"/></clipPath></defs></svg>