<svg xmlns="http://www.w3.org/2000/svg" viewBox="0 0 512.001 512.001"><path d="M503.467 67.168a7.562 7.562 0 00-12.405-2.638l-35.73 35.73a2.592 2.592 0 01-3.66 0l-23.203-23.204a2.591 2.591 0 010-3.66l35.73-35.73a7.563 7.563 0 00-2.638-12.405c-26.862-10.302-57.353-3.825-77.679 16.501-18.895 18.895-25.839 46.718-18.373 72.138l-26.461 24.197a119.626 119.626 0 00-12.341-5.675l1.078-14.129c.563-7.36-4.504-13.832-11.784-15.055l-18.646-3.131c-7.283-1.222-14.182 3.24-16.055 10.378l-3.597 13.707c-3.963.162-7.919.521-11.842 1.075l-3.554-7.572v-17.191c0-.109-.01-.196-.013-.295-.005-.126-.006-.253-.017-.379-.004-.048-.012-.089-.018-.135a7.512 7.512 0 00-1.191-3.339 7.562 7.562 0 00-10.468-2.173c-8.046 5.28-27.211 8.523-37.409 8.523-24.983 0-49.047-8.926-69.477-25.223L119.87 51.782c4.561-6.826 9.71-12.71 15.363-17.52 23.68-20.15 51.514-19.141 51.772-19.125 17.593.908 34.274 8.877 49.582 23.682 13.639 13.193 23.823 31.989 30.269 55.865a7.557 7.557 0 009.269 5.328 7.56 7.56 0 005.328-9.269c-7.167-26.549-18.726-47.675-34.355-62.793C229.09 10.53 209.134 1.138 187.786.035c-1.369-.069-33.948-1.46-62.35 22.71-8.156 6.94-15.374 15.655-21.462 25.902l-.009.013-.03.051-.063.102-.012.024A90.662 90.662 0 0092.053 78.34a90.772 90.772 0 00-1.348 28.37 7.567 7.567 0 003.185 5.374 7.553 7.553 0 006.14 1.143 95.318 95.318 0 005.615-1.57v46.707c0 26.335 13.077 49.66 33.065 63.867v12.471c0 6.148-3.293 11.784-8.71 15.738-.258.154-.51.323-.751.509-3.149 2.136-6.937 3.738-11.19 4.569l-34.903 6.834c-32.353 6.335-54.95 30.58-54.95 58.959V427.15c0 18.661 7.145 36.325 20.119 49.736l19.339 19.992h-56.4a7.56 7.56 0 000 15.12h344.574a7.56 7.56 0 000-15.12h-49.713l18.601-22.797c11.427-14.006 17.721-31.674 17.721-49.749v-75.624a121.49 121.49 0 0012.676-8.341l11.5 8.319a14.154 14.154 0 008.32 2.713c3.957 0 7.871-1.67 10.673-4.889l12.417-14.258a14.1 14.1 0 00-.454-19.113l-9.799-10.227a119.733 119.733 0 006.874-14.563l14.13 1.079c7.369.553 13.832-4.505 15.054-11.784l3.131-18.647a14.102 14.102 0 00-10.378-16.054l-13.707-3.597a119.962 119.962 0 00-1.074-11.842l12.82-6.019a14.102 14.102 0 007.297-17.67l-6.459-17.769a14.082 14.082 0 00-14.683-9.257l12.62-13.991a72.84 72.84 0 0073.563-17.954c20.324-20.323 26.801-50.814 16.499-77.676zm-241.162 91.194v-17.216c.192-.021.381-.023.573-.06a104.79 104.79 0 0120.616-1.871h.067a7.56 7.56 0 007.312-5.641l4.832-18.414 16.938 2.845-1.449 18.983a7.562 7.562 0 005.131 7.742 104.52 104.52 0 0110.765 4.303l-14.284 13.063a88.062 88.062 0 00-14.738-3.809 87.431 87.431 0 00-35.795 1.418c.005-.45.032-.893.032-1.343zm-2.042 17.697a72.213 72.213 0 0139.488-2.03L232.01 235.98c-.031-.424-.069-.848-.069-1.278v-14.479c13.986-10.869 24.194-26.359 28.322-44.164zM111.454 93.156a7.5 7.5 0 00-2.643 1.204 76.736 76.736 0 01-3.526 1.436 75.7 75.7 0 011.57-14.383 75.465 75.465 0 014.678-14.696c4.869 5.967 10.064 11.464 15.544 16.458-5.554 4.469-10.293 7.222-12.454 8.384a75.681 75.681 0 01-3.169 1.597zm9.31 65.207v-52.959c.339-.176.682-.346 1.018-.526 2.891-1.553 9.644-5.488 17.214-11.95 22.044 16.124 47.617 24.899 74.193 24.899 8.156 0 22.653-1.71 33.943-5.299l.054 45.836c0 34.855-28.356 63.211-63.21 63.211s-63.212-28.357-63.212-63.212zm206.564 265.971h-.002a63.745 63.745 0 01-14.316 40.19l-11.878 14.558V358.997c0-11.968-8.686-21.939-20.085-23.956a15.975 15.975 0 015.9-10.659l7.984-6.409a7.559 7.559 0 001.163-10.627 7.558 7.558 0 00-10.627-1.163l-7.984 6.409c-6.839 5.49-10.965 13.426-11.582 22.07H146.259a7.56 7.56 0 000 15.12h130.538c5.082 0 9.217 4.135 9.217 9.216v131.788a6.1 6.1 0 01-6.093 6.093H90.731a6.048 6.048 0 01-2.607-.595l-2.986-3.087a6.068 6.068 0 01-.501-2.413V358.998c0-5.082 4.135-9.216 9.216-9.216h22.521a7.56 7.56 0 000-15.12h-14.999c-.617-8.645-4.744-16.581-11.582-22.07l-7.984-6.409a7.557 7.557 0 00-10.627 1.163 7.558 7.558 0 001.163 10.627l7.984 6.41c3.554 2.852 5.67 6.99 5.962 11.487-9.727 3.188-16.774 12.348-16.774 23.128V477.05l-10.326-10.675c-10.231-10.577-15.867-24.507-15.867-39.224V321.313c0-21.051 17.574-39.194 42.735-44.122l34.903-6.834c4.418-.865 8.528-2.302 12.246-4.202a85.851 85.851 0 0014.472 8.954 7.56 7.56 0 0010.112-3.473 7.559 7.559 0 00-3.473-10.111 70.71 70.71 0 01-8.699-5.06c5.202-6.107 8.209-13.652 8.209-21.763v-4.048a77.903 77.903 0 0030.146 6.041 77.845 77.845 0 0032.847-7.246v5.254c0 8.107 3.003 15.648 8.201 21.755a70.664 70.664 0 01-39.698 12.211c-2.89 0-5.799-.175-8.648-.522a7.557 7.557 0 00-8.418 6.591 7.559 7.559 0 006.591 8.418c3.451.42 6.975.633 10.474.633a85.774 85.774 0 0052.096-17.643c3.725 1.905 7.84 3.347 12.267 4.213l34.903 6.834c4.954.97 9.609 2.46 13.899 4.376a7.58 7.58 0 001.011.461c16.921 7.936 27.825 22.706 27.825 39.284v103.02zM314.143 272.85l39.978-44.323a72.266 72.266 0 01.775 27.956 72.154 72.154 0 01-19.473 38.425c-4.908-8.704-12.199-16.272-21.28-22.058zm87.409-80.822l5.868 16.142-17.22 8.083a7.559 7.559 0 00-4.211 8.271 104.637 104.637 0 011.87 20.616 7.56 7.56 0 005.641 7.379l18.414 4.832-2.845 16.939-18.983-1.449a7.563 7.563 0 00-7.742 5.131 104.514 104.514 0 01-10.401 22.035 7.558 7.558 0 00.955 9.233l13.163 13.737-11.28 12.952-15.436-11.166a7.56 7.56 0 00-9.273.319 105.581 105.581 0 01-7.628 5.784v-9.553c0-3.785-.414-7.494-1.187-11.099a87.247 87.247 0 0028.548-51.226 87.21 87.21 0 00-3.798-43.64l16.529-18.326c.2-.037.398-.075.597-.127l18.419-4.867zm74.723-57.872a57.746 57.746 0 01-62.295 12.804 7.562 7.562 0 00-8.416 1.958l-53.584 59.408c-.22.217-.427.445-.618.684l-51.302 56.878a80.765 80.765 0 00-12.564-3.534l-34.903-6.834c-4.252-.833-8.041-2.433-11.189-4.569a7.497 7.497 0 00-.753-.511 24.96 24.96 0 01-1.1-.866L379.329 121.75a7.562 7.562 0 001.982-8.22c-7.891-21.156-2.685-45.131 13.261-61.077 13.168-13.169 31.719-19.001 49.688-16.233l-26.482 26.483a17.59 17.59 0 00-5.187 12.521c0 4.731 1.842 9.177 5.187 12.521l23.203 23.204c6.905 6.905 18.139 6.905 25.043 0l26.482-26.482c2.77 17.967-3.064 36.521-16.231 49.689z"/><path d="M183.52 189.164c8.454 0 16.402-3.292 22.379-9.271a7.56 7.56 0 00-10.691-10.691 16.423 16.423 0 01-11.689 4.841 16.425 16.425 0 01-11.689-4.841 7.56 7.56 0 00-10.691 10.691c5.978 5.979 13.927 9.271 22.381 9.271z"/><circle cx="155.909" cy="128.118" r="7.844"/><circle cx="209.253" cy="128.118" r="7.844"/><path d="M185.325 397.395c-14.302 0-25.937 11.635-25.937 25.937 0 14.302 11.635 25.937 25.937 25.937s25.937-11.635 25.937-25.937c0-14.302-11.635-25.937-25.937-25.937zm0 36.752c-5.964 0-10.817-4.853-10.817-10.817s4.853-10.817 10.817-10.817 10.817 4.853 10.817 10.817c0 5.965-4.853 10.817-10.817 10.817z"/></svg>