<svg width="238" height="190" fill="none" xmlns="http://www.w3.org/2000/svg"><rect width="68.718" height="10.723" rx="5.362" transform="matrix(-.74732 -.66446 .67378 -.73893 53 56)" fill="#EBEBEB"/><path d="M137.702 104.661c.905-2.75 4.795-2.75 5.7 0l4.229 12.852a3 3 0 002.85 2.063h13.604c2.916 0 4.118 3.738 1.749 5.437l-10.941 7.85a3 3 0 00-1.101 3.375l4.195 12.747c.907 2.758-2.24 5.068-4.599 3.376l-11.087-7.955a3 3 0 00-3.498 0l-11.087 7.955c-2.358 1.692-5.506-.618-4.598-3.376l4.194-12.747a2.999 2.999 0 00-1.101-3.375l-10.941-7.85c-2.369-1.699-1.166-5.437 1.749-5.437h13.605a3 3 0 002.849-2.063l4.229-12.852z" fill="#EBEBEB"/><rect width="43.993" height="43.993" rx="9" transform="matrix(.71155 -.70264 .71155 .70264 0 130)" fill="#EBEBEB"/><ellipse cx="140.515" cy="28.258" rx="20.515" ry="20.258" fill="#EBEBEB"/></svg>