<svg height="512pt" viewBox="0 0 512 512" width="512pt" xmlns="http://www.w3.org/2000/svg"><path d="M416 326c5.52 0 10-4.48 10-10s-4.48-10-10-10-10 4.48-10 10 4.48 10 10 10zm0 0"/><path d="M502 492h-16V216c0-5.523-4.477-10-10-10h-60c-5.523 0-10 4.477-10 10v60c0 5.523 4.477 10 10 10s10-4.477 10-10v-50h40v266h-40V356c0-5.523-4.477-10-10-10s-10 4.477-10 10v136h-40V296c0-5.523-4.477-10-10-10h-60c-5.523 0-10 4.477-10 10v196h-40V356c0-5.523-4.477-10-10-10h-60c-5.523 0-10 4.477-10 10v136h-40v-96c0-5.523-4.477-10-10-10H56c-5.523 0-10 4.477-10 10v96H20V10c0-5.523-4.477-10-10-10S0 4.477 0 10v492c0 5.523 4.477 10 10 10h492c5.523 0 10-4.477 10-10s-4.477-10-10-10zm-396 0H66v-86h40zm120 0h-40V366h40zm120 0h-40V306h40zm0 0"/><path d="M93.926 315.785a10.003 10.003 0 00-7.707 11.86c1.14 5.39 6.441 8.855 11.855 7.707 129.672-27.48 238.992-105.715 307.969-210.997l16.59 11.618c6.082 4.254 14.539.625 15.629-6.727l9.84-66.351a9.993 9.993 0 00-4.157-9.657 9.996 9.996 0 00-10.496-.601l-58.988 31.937c-6.527 3.531-7.063 12.727-.977 16.988l16.164 11.317C321.86 216.48 214.602 290.215 93.926 315.785zM425.383 79.746l-4.531 30.563-22.637-15.852zm0 0"/></svg>