<svg width="64" height="64" fill="none" xmlns="http://www.w3.org/2000/svg"><g clip-path="url(#clip0)"><path d="M56.235 12.958L32.181.141a1.195 1.195 0 00-1.139.007L7.654 12.965c-.384.21-.622.613-.622 1.05v16.743a34.666 34.666 0 0020.779 31.728l3.246 1.414c.303.133.649.133.953.002l3.658-1.58A34.598 34.598 0 0056.87 30.426v-16.41a1.2 1.2 0 00-.634-1.058zm-1.76 17.468A32.209 32.209 0 0134.73 60.119l-.008.004-3.185 1.375-2.768-1.208A32.269 32.269 0 019.427 30.758V14.724L31.626 2.558l22.848 12.175v15.693z" fill="url(#paint0_linear)"/><path d="M22.79 29.981a1.198 1.198 0 00-1.82 1.555l6.325 7.408a1.197 1.197 0 001.666.152L43.693 27.11a1.197 1.197 0 10-1.511-1.858L28.357 36.5l-5.566-6.518z" fill="url(#paint1_linear)"/></g><defs><linearGradient id="paint0_linear" x1="31.951" y1="0" x2="31.951" y2="64" gradientUnits="userSpaceOnUse"><stop stop-color="#9F2FFF"/><stop offset="1" stop-color="#25A6EF"/></linearGradient><linearGradient id="paint1_linear" x1="32.409" y1="24.983" x2="32.409" y2="39.364" gradientUnits="userSpaceOnUse"><stop stop-color="#9F2FFF"/><stop offset="1" stop-color="#25A6EF"/></linearGradient><clipPath id="clip0"><path fill="#fff" d="M0 0h64v64H0z"/></clipPath></defs></svg>