<svg width="58" height="58" fill="none" xmlns="http://www.w3.org/2000/svg"><path d="M55.384 9.516H43.5a.85.85 0 100 1.699h11.884c.506 0 .917.41.917.917v32.717a.918.918 0 01-.917.917H2.616a.918.918 0 01-.917-.917V12.132c0-.506.411-.917.917-.917h18.667v1.7H4.248a.85.85 0 00-.85.849v22.448a.85.85 0 101.7 0V14.613h16.185v4.558l-3.638 1.738a.856.856 0 00-.483.767V35.53a.85.85 0 00.483.767l10.989 5.25a.861.861 0 00.732 0l6.178-2.951a.85.85 0 10-.733-1.534l-4.961 2.37v-11.97l9.289-4.438v11.973l-1.262.603a.85.85 0 00.732 1.533l1.746-.834a.85.85 0 00.483-.767V21.676a.855.855 0 00-.483-.767l-3.638-1.738v-4.558h16.185v27.754H5.098v-2.53a.85.85 0 10-1.7 0v3.38c0 .47.38.85.85.85h49.504c.47 0 .85-.38.85-.85V13.764a.85.85 0 00-.85-.85H36.717v-1.7h3.158a.85.85 0 100-1.698h-3.158v-1.7h7.618c.47 0 .85-.38.85-.85V4.953a2.553 2.553 0 001.7-2.403A2.552 2.552 0 0044.334 0a2.552 2.552 0 00-2.548 2.549c0 1.107.71 2.052 1.699 2.403v1.165h-7.618a.85.85 0 00-.85.85v2.549H29.85V4.952a2.553 2.553 0 001.699-2.403A2.552 2.552 0 0029 0a2.552 2.552 0 00-2.549 2.549c0 1.107.71 2.052 1.7 2.403v4.564h-5.17v-2.55a.85.85 0 00-.849-.849h-7.618V4.952a2.553 2.553 0 001.7-2.403A2.552 2.552 0 0013.663 0a2.552 2.552 0 00-2.548 2.549c0 1.107.71 2.052 1.699 2.403v2.015c0 .47.38.85.85.85h7.618v1.699H2.616A2.619 2.619 0 000 12.132v32.717a2.619 2.619 0 002.616 2.616h18.42c-.329 3.116-2.39 4.936-3.04 5.437h-3.61a2.552 2.552 0 00-2.548 2.55A2.552 2.552 0 0014.387 58h29.226a2.552 2.552 0 002.55-2.549 2.552 2.552 0 00-2.55-2.549h-3.608c-.64-.499-2.709-2.335-3.04-5.437h18.419A2.619 2.619 0 0058 44.849V12.132a2.619 2.619 0 00-2.616-2.616zM44.335 1.699a.85.85 0 11-.001 1.701.85.85 0 01.001-1.7zM29 1.7a.85.85 0 11-.002 1.701A.85.85 0 0129 1.7zm-15.335 0a.85.85 0 11-.002 1.701.85.85 0 01.002-1.7zm9.317 12.914h5.168v1.277l-5.168 2.47v-3.747zm15.035 7.063L29 25.983l-9.017-4.307L29 17.367l9.017 4.309zm-19.156 1.347l9.29 4.438v11.973l-9.29-4.438V23.023zm16.157-4.663l-5.168-2.47v-1.277h5.168v3.747zm0-7.145v1.7H29.85v-1.7h5.168zm-6.868 0v1.7h-5.168v-1.7h5.168zM44.463 55.45a.85.85 0 01-.85.85H14.387a.85.85 0 010-1.7h29.226a.85.85 0 01.85.85zm-6.894-2.549H20.43c.996-1.163 2.101-2.976 2.313-5.437h12.512c.212 2.461 1.317 4.274 2.313 5.437z" fill="url(#paint0_linear)"/><defs><linearGradient id="paint0_linear" x1="29" y1="0" x2="29" y2="58" gradientUnits="userSpaceOnUse"><stop stop-color="#9F2FFF"/><stop offset="1" stop-color="#25A6EF"/></linearGradient></defs></svg>