<svg width="81" height="77" fill="none" xmlns="http://www.w3.org/2000/svg"><path d="M31.426 5.24c4.37-6.376 13.778-6.376 18.148 0l6.172 9.006a11 11 0 005.963 4.332l10.473 3.087c7.413 2.186 10.32 11.134 5.608 17.26l-6.658 8.653a11 11 0 00-2.278 7.01l.3 10.914c.213 7.726-7.4 13.256-14.681 10.667L44.185 72.51a11 11 0 00-7.37 0l-10.288 3.658c-7.282 2.59-14.894-2.941-14.681-10.667l.3-10.914a11 11 0 00-2.278-7.01L3.21 38.924C-1.503 32.8 1.405 23.851 8.818 21.665l10.473-3.087a11 11 0 005.963-4.332l6.172-9.007z" fill="url(#paint0_linear)"/><defs><linearGradient id="paint0_linear" x1="40.5" y1="-8" x2="40.5" y2="91" gradientUnits="userSpaceOnUse"><stop stop-color="#FFB700" stop-opacity=".65"/><stop offset="1" stop-color="#FF6262" stop-opacity=".67"/></linearGradient></defs></svg>