<svg width="65" height="64" fill="none" xmlns="http://www.w3.org/2000/svg"><g clip-path="url(#clip0)"><path d="M34.107 30.419a1.284 1.284 0 00-1.796 0 1.237 1.237 0 000 1.767c.496.488 1.3.488 1.796 0a1.237 1.237 0 000-1.767z" fill="url(#paint0_linear)"/><path d="M50.265 14.509c-2.48-2.443-6.497-2.443-8.977 0a6.19 6.19 0 000 8.839c2.475 2.435 6.502 2.436 8.977 0a6.18 6.18 0 000-8.84zm-1.796 7.07a3.856 3.856 0 01-5.386.001 3.714 3.714 0 010-5.303 3.849 3.849 0 015.386 0 3.708 3.708 0 010 5.303z" fill="url(#paint1_linear)"/><path d="M64.628.366a1.276 1.276 0 00-.943-.365c-.287.01-7.122.28-15.246 3.108-6.51 2.263-11.937 5.504-16.129 9.631a47.866 47.866 0 00-2.728 2.925c-4.144-2.403-7.466-1.65-9.565-.543-4.835 2.547-7.827 9.464-7.827 14.412 0 .505.31.961.784 1.155a1.285 1.285 0 001.383-.271c2.55-2.51 5.695-2.354 6.722-2.22l.445.437a43.505 43.505 0 00-2.097 6.071 3.487 3.487 0 00.154 2.171 12.026 12.026 0 00-3.429 2.38c-3.268 3.218-3.931 11.06-3.958 11.392-.03.365.105.724.368.982a1.28 1.28 0 00.998.363c.337-.026 8.301-.68 11.57-3.898 1.026-1.01 1.853-2.171 2.416-3.374a3.64 3.64 0 002.206.15 45.149 45.149 0 006.165-2.064l.445.438c.135 1.011.294 4.107-2.255 6.618a1.236 1.236 0 00-.275 1.362c.196.467.66.771 1.173.771 5.024 0 12.05-2.946 14.637-7.706 1.123-2.067 1.888-5.337-.551-9.419a48.05 48.05 0 002.97-2.685c4.192-4.128 7.483-9.47 9.781-15.88 2.872-8 3.147-14.73 3.157-15.012a1.24 1.24 0 00-.371-.929zm-49.6 26.48c.789-3.759 3.08-7.882 6.187-9.52 2.077-1.094 4.347-.987 6.76.314a50.407 50.407 0 00-5.333 8.56c-.02-.01-.248-.294-.672-.388-.175-.039-3.534-.75-6.942 1.033zm8.306 19.483c-1.746 1.718-5.84 2.625-8.429 2.995.376-2.548 1.297-6.58 3.043-8.299.977-.962 2.11-1.692 3.25-2.103l4.272 4.206c-.417 1.122-1.158 2.238-2.136 3.2zm5.788-3.879c-.368.093-.793-.043-1.11-.354l-2.486-2.448-3.279-3.229c-.316-.312-.454-.73-.36-1.092.406-1.56.938-3.159 1.584-4.774L33.97 40.89a41.641 41.641 0 01-4.848 1.56zm18.281.661c-1.663 3.06-5.85 5.316-9.667 6.092 1.217-2.255 1.485-5.125 1.04-6.865-.103-.404-.37-.608-.386-.631a51.507 51.507 0 008.695-5.252c1.32 2.376 1.43 4.612.318 6.656zm2.863-12.692a45.84 45.84 0 01-3.662 3.234 48.906 48.906 0 01-10.12 6.177L24.548 28.078a47.9 47.9 0 016.273-9.965 45.606 45.606 0 013.285-3.605c3.761-3.703 8.615-6.65 14.431-8.772L59.175 16.21c-2.155 5.726-5.148 10.505-8.91 14.209zm9.822-16.846l-8.873-8.737c4.834-1.478 9.04-2.032 11.14-2.23-.203 2.067-.765 6.208-2.267 10.967z" fill="url(#paint2_linear)"/><path d="M30.516 51.631a1.284 1.284 0 00-1.796 0l-3.59 3.536a1.237 1.237 0 000 1.768c.496.488 1.3.488 1.796 0l3.59-3.536a1.237 1.237 0 000-1.768z" fill="url(#paint3_linear)"/><path d="M12.563 33.954a1.284 1.284 0 00-1.796 0l-3.591 3.535a1.236 1.236 0 000 1.767 1.282 1.282 0 001.795 0l3.591-3.534a1.236 1.236 0 000-1.768z" fill="url(#paint4_linear)"/><path d="M21.54 53.4a1.284 1.284 0 00-1.796 0l-8.6 8.466a1.237 1.237 0 000 1.768c.495.488 1.3.488 1.795 0l8.6-8.466a1.236 1.236 0 000-1.768z" fill="url(#paint5_linear)"/><path d="M11.383 53.4a1.284 1.284 0 00-1.795 0l-8.6 8.466a1.236 1.236 0 000 1.768c.495.488 1.3.488 1.795 0l8.6-8.466a1.236 1.236 0 000-1.768z" fill="url(#paint6_linear)"/><path d="M10.766 42.792a1.284 1.284 0 00-1.796 0L.372 51.26a1.237 1.237 0 000 1.768c.496.488 1.3.488 1.795 0l8.599-8.468a1.237 1.237 0 000-1.768z" fill="url(#paint7_linear)"/><path d="M39.493 25.115a1.284 1.284 0 00-1.796 0l-1.795 1.767a1.237 1.237 0 000 1.768c.496.488 1.3.488 1.796 0l1.795-1.767a1.237 1.237 0 000-1.768z" fill="url(#paint8_linear)"/></g><defs><linearGradient id="paint0_linear" x1="33.209" y1="30.052" x2="33.209" y2="32.552" gradientUnits="userSpaceOnUse"><stop stop-color="#9F2FFF"/><stop offset="1" stop-color="#10A4F7"/></linearGradient><linearGradient id="paint1_linear" x1="45.779" y1="12.677" x2="45.779" y2="25.175" gradientUnits="userSpaceOnUse"><stop stop-color="#9F2FFF"/><stop offset="1" stop-color="#10A4F7"/></linearGradient><linearGradient id="paint2_linear" x1="38.595" y1="0" x2="38.595" y2="51.998" gradientUnits="userSpaceOnUse"><stop stop-color="#9F2FFF"/><stop offset="1" stop-color="#10A4F7"/></linearGradient><linearGradient id="paint3_linear" x1="27.823" y1="51.265" x2="27.823" y2="57.301" gradientUnits="userSpaceOnUse"><stop stop-color="#9F2FFF"/><stop offset="1" stop-color="#10A4F7"/></linearGradient><linearGradient id="paint4_linear" x1="9.869" y1="33.588" x2="9.869" y2="39.623" gradientUnits="userSpaceOnUse"><stop stop-color="#9F2FFF"/><stop offset="1" stop-color="#10A4F7"/></linearGradient><linearGradient id="paint5_linear" x1="16.342" y1="53.034" x2="16.342" y2="64" gradientUnits="userSpaceOnUse"><stop stop-color="#9F2FFF"/><stop offset="1" stop-color="#10A4F7"/></linearGradient><linearGradient id="paint6_linear" x1="6.185" y1="53.034" x2="6.185" y2="64" gradientUnits="userSpaceOnUse"><stop stop-color="#9F2FFF"/><stop offset="1" stop-color="#10A4F7"/></linearGradient><linearGradient id="paint7_linear" x1="5.569" y1="42.426" x2="5.569" y2="53.394" gradientUnits="userSpaceOnUse"><stop stop-color="#9F2FFF"/><stop offset="1" stop-color="#10A4F7"/></linearGradient><linearGradient id="paint8_linear" x1="37.698" y1="24.749" x2="37.698" y2="29.016" gradientUnits="userSpaceOnUse"><stop stop-color="#9F2FFF"/><stop offset="1" stop-color="#10A4F7"/></linearGradient><clipPath id="clip0"><path fill="#fff" d="M0 0h65v64H0z"/></clipPath></defs></svg>