<svg width="59" height="58" fill="none" xmlns="http://www.w3.org/2000/svg"><g clip-path="url(#clip0)"><path d="M29.304 0l-.03.001h.002-.011a.896.896 0 00-.07.006c-3.934.057-7.143 3.177-7.352 7.074-.94.314-1.856.686-2.748 1.117a7.466 7.466 0 00-4.908-1.858c-4.12 0-7.482 3.361-7.482 7.481v.001A7.467 7.467 0 008.5 18.653a23.13 23.13 0 00-1.184 2.814C3.272 21.556 0 24.875 0 28.94c0 4.055 3.258 7.368 7.289 7.471.349 1.029.769 2.03 1.258 3a7.465 7.465 0 00-1.842 4.89c0 4.12 3.361 7.48 7.481 7.481h.002a7.466 7.466 0 004.997-1.942 23.07 23.07 0 002.783 1.12c.23 3.915 3.487 7.04 7.458 7.04 4.031 0 7.327-3.22 7.468-7.217.89-.314 1.758-.681 2.603-1.101a7.466 7.466 0 005.168 2.1h.002c4.12 0 7.48-3.36 7.48-7.48V44.3a7.465 7.465 0 00-2.154-5.227c.402-.825.755-1.672 1.056-2.54 4.044-.089 7.316-3.407 7.316-7.472 0-4.055-3.257-7.368-7.288-7.471a23.148 23.148 0 00-1.116-2.724c1.836-2.159 2.285-4.753 1.307-7.379a.899.899 0 00-1.607-.16c-.118.19-.158.336-.183.413a.9.9 0 00-.006.541c.394 1.298.52 2.304.343 3.145-.177.841-.641 1.602-1.701 2.478l.004-.003c-.37.303-.48.84-.257 1.263v.001a21.112 21.112 0 011.53 3.75v.001c.137.456.586.762 1.06.723h.002a5.427 5.427 0 015.874 5.422 5.427 5.427 0 01-5.439 5.442 5.482 5.482 0 01-.446-.022 1.028 1.028 0 00-1.068.714v-.001a21.133 21.133 0 01-1.512 3.637l-.001.002a1.03 1.03 0 00.257 1.265 5.44 5.44 0 011.99 4.204 5.427 5.427 0 01-5.44 5.441 5.44 5.44 0 01-4.166-1.948l-.001-.001a1.028 1.028 0 00-1.264-.24 21.128 21.128 0 01-3.672 1.555l-.003.001c-.444.142-.74.58-.706 1.045v-.003a5.426 5.426 0 01-5.43 5.809 5.426 5.426 0 01-5.442-5.434c.002-.068.006-.138.012-.212a1.028 1.028 0 00-.73-1.053h-.001c-1.32-.387-2.6-.902-3.82-1.537l-.002-.001a1.027 1.027 0 00-1.227.224 5.44 5.44 0 01-4.03 1.795 5.427 5.427 0 01-5.442-5.441V44.3a5.44 5.44 0 011.72-3.966c.333-.314.414-.824.196-1.226l-.001-.003a21.124 21.124 0 01-1.685-4.021 1.028 1.028 0 00-1.061-.723H7.91a5.426 5.426 0 01-5.873-5.423 5.427 5.427 0 015.44-5.442c.147.001.296.009.445.022.475.044.927-.259 1.068-.714v-.001a21.13 21.13 0 011.614-3.848 1.027 1.027 0 00-.189-1.22 5.442 5.442 0 01-1.672-3.916 5.426 5.426 0 015.44-5.441 5.44 5.44 0 013.969 1.722l-.003-.003a1.027 1.027 0 001.22.21 21.124 21.124 0 013.77-1.53c.452-.133.76-.57.731-1.04a5.488 5.488 0 01-.01-.26 5.427 5.427 0 015.443-5.44 5.428 5.428 0 015.442 5.438c-.002.1-.007.2-.015.299-.036.47.265.914.715 1.054h-.002c1.315.408 2.586.944 3.796 1.6.42.228.957.127 1.265-.238l-.087.09c1.565-1.404 2.029-1.68 3.665-2.036a.9.9 0 00.708-.879v-.24a.898.898 0 00-1.073-.882c-1.787.351-3.097 1.042-4.187 2.072a23.137 23.137 0 00-2.76-1.165C36.593 3.184 33.312 0 29.304 0zm17.193 6.583a.9.9 0 00-.21 1.774c.891.215 1.245.388 1.427.533.181.144.323.378.67.9a.899.899 0 001.597-.796c-.405-1.16-1.553-2.224-3.395-2.407a.898.898 0 00-.09-.004z" fill="url(#paint0_linear)"/><path d="M40.315 20.48a1.02 1.02 0 00-.7.309l-13.85 13.849-7.014-7.014a1.018 1.018 0 00-1.747.719 1.02 1.02 0 00.306.723l8.455 8.454 15.29-15.29a1.02 1.02 0 00-.74-1.75z" fill="url(#paint1_linear)"/></g><defs><linearGradient id="paint0_linear" x1="29.183" y1="0" x2="29.183" y2="58" gradientUnits="userSpaceOnUse"><stop stop-color="#9F2FFF"/><stop offset="1" stop-color="#10A4F7"/></linearGradient><linearGradient id="paint1_linear" x1="29.184" y1="20.479" x2="29.184" y2="37.52" gradientUnits="userSpaceOnUse"><stop stop-color="#9F2FFF"/><stop offset="1" stop-color="#10A4F7"/></linearGradient><clipPath id="clip0"><path fill="#fff" d="M0 0h58.365v58H0z"/></clipPath></defs></svg>