<svg width="36" height="36" fill="none" xmlns="http://www.w3.org/2000/svg"><path d="M18 36c9.941 0 18-8.059 18-18S27.941 0 18 0 0 8.059 0 18s8.059 18 18 18z" fill="#4D76A1"/><path fill-rule="evenodd" clip-rule="evenodd" d="M17.32 25.895h1.413s.427-.047.645-.282c.2-.216.194-.62.194-.62s-.028-1.896.852-2.175c.867-.275 1.98 1.832 3.161 2.642.893.613 1.571.479 1.571.479l3.157-.044s1.65-.102.868-1.4c-.064-.106-.456-.96-2.347-2.716-1.979-1.837-1.714-1.54.67-4.717 1.452-1.935 2.032-3.117 1.851-3.623-.173-.482-1.24-.354-1.24-.354l-3.554.022s-.264-.036-.46.08c-.19.115-.313.382-.313.382s-.563 1.498-1.313 2.771c-1.582 2.688-2.215 2.83-2.474 2.663-.601-.39-.451-1.563-.451-2.396 0-2.605.395-3.69-.77-3.971-.386-.094-.67-.155-1.658-.165-1.268-.014-2.341.003-2.949.301-.404.198-.716.64-.526.665.235.031.767.143 1.049.527.364.496.351 1.608.351 1.608s.21 3.066-.489 3.447c-.479.261-1.136-.272-2.547-2.71a22.654 22.654 0 01-1.268-2.63s-.106-.257-.293-.395a1.473 1.473 0 00-.546-.22l-3.378.021s-.507.014-.693.235c-.165.196-.013.602-.013.602s2.644 6.185 5.638 9.302c2.745 2.858 5.862 2.67 5.862 2.67z" fill="#fff"/></svg>