<svg width="58" height="58" fill="none" xmlns="http://www.w3.org/2000/svg"><path d="M22.884 40.646a.954.954 0 01-.62-.23l-6.196-5.275a.957.957 0 010-1.459l6.196-5.276a.957.957 0 111.241 1.458l-5.34 4.547 5.34 4.548a.958.958 0 01-.621 1.687z" fill="url(#paint0_linear)"/><path d="M35.116 40.646a.958.958 0 01-.621-1.687l5.34-4.548-5.34-4.547a.958.958 0 011.24-1.458l6.197 5.276a.957.957 0 010 1.459l-6.196 5.276a.954.954 0 01-.62.229z" fill="url(#paint1_linear)"/><path d="M26.806 44.603a.958.958 0 01-.938-1.155l3.862-18.335a.958.958 0 011.874.395l-3.862 18.335a.958.958 0 01-.936.76z" fill="url(#paint2_linear)"/><path d="M51.57 54.592H6.43A6.437 6.437 0 010 48.162V9.85a6.437 6.437 0 016.43-6.43h45.14A6.437 6.437 0 0158 9.85v38.314a6.437 6.437 0 01-6.43 6.43zM6.43 5.335a4.52 4.52 0 00-4.515 4.514v38.314a4.52 4.52 0 004.514 4.514h45.142a4.52 4.52 0 004.514-4.514V9.849a4.52 4.52 0 00-4.514-4.514H6.429z" fill="url(#paint3_linear)"/><path d="M57.042 18.753H.958a.957.957 0 110-1.915h56.084a.958.958 0 010 1.915z" fill="url(#paint4_linear)"/><path d="M16.36 14.17a3.034 3.034 0 01-3.03-3.03c0-1.67 1.36-3.03 3.03-3.03 1.672 0 3.03 1.36 3.03 3.03a3.032 3.032 0 01-3.03 3.03zm0-4.145a1.117 1.117 0 000 2.23 1.116 1.116 0 000-2.23z" fill="url(#paint5_linear)"/><path d="M7.05 14.141a3.034 3.034 0 01-3.03-3.03c0-1.67 1.36-3.03 3.03-3.03 1.671 0 3.03 1.36 3.03 3.03a3.033 3.033 0 01-3.03 3.03zm0-4.145a1.116 1.116 0 000 2.23 1.116 1.116 0 000-2.23z" fill="url(#paint6_linear)"/><path d="M25.671 14.2c-1.67 0-3.03-1.36-3.03-3.03 0-1.671 1.36-3.03 3.03-3.03 1.67 0 3.03 1.359 3.03 3.03 0 1.67-1.36 3.03-3.03 3.03zm0-4.146a1.116 1.116 0 000 2.23 1.116 1.116 0 000-2.23z" fill="url(#paint7_linear)"/><defs><linearGradient id="paint0_linear" x1="19.787" y1="28.178" x2="19.787" y2="40.646" gradientUnits="userSpaceOnUse"><stop stop-color="#9F2FFF"/><stop offset="1" stop-color="#25A6EF"/></linearGradient><linearGradient id="paint1_linear" x1="38.214" y1="28.178" x2="38.214" y2="40.646" gradientUnits="userSpaceOnUse"><stop stop-color="#9F2FFF"/><stop offset="1" stop-color="#25A6EF"/></linearGradient><linearGradient id="paint2_linear" x1="28.736" y1="24.352" x2="28.736" y2="44.603" gradientUnits="userSpaceOnUse"><stop stop-color="#9F2FFF"/><stop offset="1" stop-color="#25A6EF"/></linearGradient><linearGradient id="paint3_linear" x1="29" y1="3.42" x2="29" y2="54.592" gradientUnits="userSpaceOnUse"><stop stop-color="#9F2FFF"/><stop offset="1" stop-color="#25A6EF"/></linearGradient><linearGradient id="paint4_linear" x1="29" y1="16.838" x2="29" y2="18.753" gradientUnits="userSpaceOnUse"><stop stop-color="#9F2FFF"/><stop offset="1" stop-color="#25A6EF"/></linearGradient><linearGradient id="paint5_linear" x1="16.361" y1="8.11" x2="16.361" y2="14.171" gradientUnits="userSpaceOnUse"><stop stop-color="#9F2FFF"/><stop offset="1" stop-color="#25A6EF"/></linearGradient><linearGradient id="paint6_linear" x1="7.05" y1="8.081" x2="7.05" y2="14.141" gradientUnits="userSpaceOnUse"><stop stop-color="#9F2FFF"/><stop offset="1" stop-color="#25A6EF"/></linearGradient><linearGradient id="paint7_linear" x1="25.671" y1="8.14" x2="25.671" y2="14.2" gradientUnits="userSpaceOnUse"><stop stop-color="#9F2FFF"/><stop offset="1" stop-color="#25A6EF"/></linearGradient></defs></svg>